<svg width="20" height="20" viewBox="0 0 20 20" fill="none" xmlns="http://www.w3.org/2000/svg">
<path d="M3.33353 13.7498C3.33353 14.4129 3.59692 15.0488 4.06576 15.5176C4.5346 15.9864 5.17048 16.2498 5.83353 16.2498C5.83353 16.8024 6.05302 17.3323 6.44372 17.723C6.83442 18.1137 7.36432 18.3332 7.91686 18.3332C8.46939 18.3332 8.9993 18.1137 9.39 17.723C9.7807 17.3323 10.0002 16.8024 10.0002 16.2498C10.0002 16.8024 10.2197 17.3323 10.6104 17.723C11.0011 18.1137 11.531 18.3332 12.0835 18.3332C12.6361 18.3332 13.166 18.1137 13.5567 17.723C13.9474 17.3323 14.1669 16.8024 14.1669 16.2498C14.6101 16.2499 15.0453 16.1321 15.428 15.9085C15.8107 15.685 16.1271 15.3637 16.3448 14.9776C16.5625 14.5916 16.6736 14.1546 16.6668 13.7114C16.66 13.2683 16.5355 12.8349 16.306 12.4557C16.8764 12.3455 17.3906 12.0401 17.7604 11.5921C18.1302 11.144 18.3324 10.5812 18.3324 10.0003C18.3324 9.41932 18.1302 8.85651 17.7604 8.40845C17.3906 7.9604 16.8764 7.65505 16.306 7.54484C16.5357 7.16562 16.6603 6.73215 16.6673 6.28887C16.6742 5.84559 16.5631 5.40844 16.3454 5.02223C16.1277 4.63603 15.8112 4.31466 15.4284 4.09107C15.0456 3.86748 14.6102 3.74971 14.1669 3.74984C14.1669 3.1973 13.9474 2.6674 13.5567 2.2767C13.166 1.886 12.6361 1.6665 12.0835 1.6665C11.531 1.6665 11.0011 1.886 10.6104 2.2767C10.2197 2.6674 10.0002 3.1973 10.0002 3.74984C10.0002 3.1973 9.7807 2.6674 9.39 2.2767C8.9993 1.886 8.46939 1.6665 7.91686 1.6665C7.36432 1.6665 6.83442 1.886 6.44372 2.2767C6.05302 2.6674 5.83353 3.1973 5.83353 3.74984C5.39032 3.7498 4.95506 3.86759 4.57236 4.09114C4.18966 4.31468 3.87326 4.63595 3.65559 5.02203C3.43792 5.4081 3.3268 5.84511 3.33361 6.28826C3.34042 6.73142 3.46492 7.1648 3.69436 7.544C3.12398 7.65422 2.60975 7.95956 2.23998 8.40762C1.87022 8.85568 1.66797 9.41849 1.66797 9.99942C1.66797 10.5804 1.87022 11.1432 2.23998 11.5912C2.60975 12.0393 3.12398 12.3446 3.69436 12.4548C3.4581 12.8455 3.33331 13.2933 3.33353 13.7498Z" stroke="#1C4CC3" stroke-width="1.4" stroke-linecap="round" stroke-linejoin="round"/>
<path d="M6.25 12.083L7.785 7.47801C7.82353 7.36309 7.8972 7.26318 7.99559 7.19239C8.09398 7.1216 8.21212 7.08352 8.33333 7.08352C8.45454 7.08352 8.57269 7.1216 8.67108 7.19239C8.76947 7.26318 8.84314 7.36309 8.88167 7.47801L10.4167 12.083M12.9167 7.08301V12.083M7.08333 10.4163H9.58333" stroke="#1C4CC3" stroke-width="1.4" stroke-linecap="round" stroke-linejoin="round"/>
</svg>
