<svg width="134" height="44" viewBox="0 0 134 44" fill="none" xmlns="http://www.w3.org/2000/svg">
<path d="M9.50266 43.9934C9.15989 43.9934 8.82541 43.9889 8.48533 43.981C7.78084 43.9717 7.07799 43.909 6.38255 43.7935C5.73409 43.6793 5.10591 43.467 4.51872 43.1634C3.93692 42.8624 3.40627 42.4676 2.9471 41.9943C2.48129 41.5266 2.09347 40.9841 1.79903 40.3883C1.50134 39.7887 1.29533 39.146 1.18816 38.4826C1.07242 37.7697 1.0098 37.0489 1.00084 36.3263C0.993712 36.0838 0.984375 35.2762 0.984375 35.2762V8.7106C0.984375 8.7106 0.99432 7.91548 1.0009 7.68188C1.00948 6.96046 1.07173 6.24076 1.18712 5.529C1.29449 4.86375 1.50067 4.21917 1.79851 3.61758C2.09187 3.02224 2.47753 2.47935 2.94054 2.00994C3.40303 1.53607 3.93538 1.1393 4.51817 0.834101C5.10401 0.531517 5.73101 0.320652 6.37815 0.20857C7.07588 0.0919209 7.78116 0.0288549 8.4881 0.0199009L9.50321 0.00585938H125.118L126.145 0.0204643C126.845 0.0289734 127.544 0.0914769 128.236 0.207443C128.889 0.320931 129.523 0.533267 130.115 0.83747C131.283 1.45254 132.233 2.42565 132.832 3.62039C133.125 4.21782 133.328 4.85714 133.434 5.51665C133.551 6.23425 133.616 6.95961 133.63 7.68694C133.633 8.01262 133.633 8.36245 133.633 8.7106C133.642 9.14185 133.642 9.55232 133.642 9.96616V34.0341C133.642 34.4519 133.642 34.8596 133.633 35.2706C133.633 35.6446 133.633 35.9872 133.629 36.3398C133.616 37.0541 133.551 37.7665 133.436 38.4713C133.331 39.1395 133.127 39.7873 132.829 40.3918C132.532 40.9811 132.147 41.5189 131.686 41.9853C131.227 42.4612 130.695 42.8582 130.112 43.1612C129.521 43.4671 128.889 43.6803 128.236 43.7935C127.54 43.9096 126.837 43.9723 126.133 43.981C125.803 43.9889 125.458 43.9934 125.123 43.9934L123.904 43.9957L9.50266 43.9934Z" fill="#1A233B"/>
<path d="M48.68 29.3142H43.6506L42.4428 32.9599H40.3125L45.0763 19.472H47.2896L52.0534 32.9599H49.8868L48.68 29.3142ZM44.1715 27.632H48.1581L46.1928 21.7154H46.1378L44.1715 27.632ZM62.3416 28.0435C62.3416 31.0994 60.7415 33.0627 58.3269 33.0627C57.0789 33.1295 55.9032 32.4612 55.3001 31.3423H55.2545V36.213H53.2798V23.1261H55.1912V24.7617H55.2275C55.8574 23.6497 57.0343 22.9818 58.2906 23.0232C60.7321 23.0232 62.3416 24.9961 62.3416 28.0435ZM60.3119 28.0435C60.3119 26.0526 59.3054 24.7437 57.7697 24.7437C56.261 24.7437 55.2462 26.0802 55.2462 28.0435C55.2462 30.0249 56.261 31.3518 57.7697 31.3518C59.3054 31.3518 60.3119 30.0525 60.3119 28.0435ZM72.9296 28.0435C72.9296 31.0994 71.3296 33.0627 68.915 33.0627C67.6669 33.1295 66.4913 32.4612 65.8882 31.3423H65.8425V36.213H63.8679V23.1261H65.7792V24.7617H65.8155C66.4454 23.6497 67.6223 22.9818 68.8786 23.0232C71.3202 23.0232 72.9296 24.9961 72.9296 28.0435ZM70.9 28.0435C70.9 26.0526 69.8935 24.7437 68.3578 24.7437C66.8491 24.7437 65.8342 26.0802 65.8342 28.0435C65.8342 30.0249 66.8491 31.3518 68.3578 31.3518C69.8935 31.3518 70.9 30.0525 70.9 28.0435ZM79.9274 29.2018C80.0738 30.5393 81.3449 31.4175 83.0819 31.4175C84.7462 31.4175 85.9437 30.5393 85.9437 29.3333C85.9437 28.2864 85.2215 27.6595 83.5115 27.2299L81.8014 26.8088C79.3785 26.2106 78.2537 25.0523 78.2537 23.1727C78.2537 20.8455 80.2377 19.2471 83.0549 19.2471C85.843 19.2471 87.7543 20.8455 87.8187 23.1727H85.8254C85.706 21.8267 84.6175 21.0142 83.0269 21.0142C81.4362 21.0142 80.3477 21.8362 80.3477 23.0327C80.3477 23.9863 81.0429 24.5474 82.7436 24.9769L84.1973 25.3418C86.9045 25.9963 88.0293 27.1079 88.0293 29.0808C88.0293 31.6042 86.063 33.1846 82.9355 33.1846C80.0094 33.1846 78.0337 31.6413 77.9061 29.2017L79.9274 29.2018ZM92.2909 20.7989V23.1261H94.1203V24.7246H92.2909V30.1458C92.2909 30.988 92.6572 31.3805 93.4614 31.3805C93.6785 31.3766 93.8954 31.361 94.1109 31.3338V32.9227C93.7494 32.9917 93.3819 33.023 93.0141 33.016C91.0665 33.016 90.3069 32.2682 90.3069 30.3611V24.7246H88.9082V23.1261H90.3069V20.7989H92.2909ZM95.1797 28.0435C95.1797 24.9495 96.9624 23.0052 99.7422 23.0052C102.531 23.0052 104.306 24.9494 104.306 28.0435C104.306 31.1461 102.541 33.0818 99.7422 33.0818C96.9447 33.0818 95.1797 31.146 95.1797 28.0435ZM102.294 28.0435C102.294 25.9211 101.342 24.6684 99.7422 24.6684C98.1422 24.6684 97.1917 25.9306 97.1917 28.0435C97.1917 30.1744 98.1422 31.4176 99.7422 31.4176C101.342 31.4176 102.294 30.1744 102.294 28.0435ZM105.934 23.1261H107.817V24.7999H107.863C108.125 23.7224 109.091 22.9808 110.177 23.0232C110.404 23.0224 110.631 23.0477 110.853 23.0985V24.9866C110.566 24.8968 110.266 24.8556 109.966 24.8646C109.386 24.8405 108.824 25.077 108.428 25.512C108.033 25.947 107.843 26.5369 107.908 27.127V32.9598H105.934V23.1261ZM119.957 30.0716C119.692 31.8567 117.991 33.0818 115.815 33.0818C113.017 33.0818 111.28 31.1651 111.28 28.0902C111.28 25.0057 113.026 23.0052 115.732 23.0052C118.394 23.0052 120.067 24.8741 120.067 27.8558V28.5473H113.273V28.6693C113.21 29.4014 113.457 30.1261 113.952 30.659C114.447 31.1919 115.142 31.4817 115.861 31.4547C116.819 31.5465 117.723 30.984 118.082 30.0715L119.957 30.0716ZM113.282 27.1366H118.092C118.128 26.4788 117.893 25.8355 117.445 25.3617C116.998 24.8879 116.377 24.6266 115.732 24.6408C115.083 24.6368 114.459 24.8982 113.999 25.3669C113.538 25.8356 113.281 26.4727 113.282 27.1366Z" fill="white"/>
<path d="M43.9229 9.31933C44.7612 9.25784 45.5823 9.58386 46.1601 10.2077C46.738 10.8315 47.0118 11.6873 46.9061 12.5396C46.9061 14.6101 45.8114 15.8002 43.9229 15.8002H41.6328V9.31933H43.9229ZM42.6175 14.8837H43.8129C44.412 14.9203 44.9953 14.679 45.4009 14.2269C45.8065 13.7747 45.9912 13.1598 45.9037 12.5528C45.9848 11.9484 45.7975 11.3385 45.3929 10.8901C44.9883 10.4416 44.4088 10.2014 43.8129 10.2352H42.6175V14.8837ZM48.0184 13.3526C47.9364 12.4759 48.3476 11.6275 49.0796 11.1632C49.8117 10.6988 50.7379 10.6988 51.4699 11.1632C52.2019 11.6275 52.6132 12.4759 52.5311 13.3526C52.6147 14.2302 52.2039 15.0802 51.4712 15.5456C50.7385 16.0109 49.811 16.0109 49.0783 15.5456C48.3457 15.0802 47.9348 14.2302 48.0184 13.3526ZM51.5599 13.3526C51.5599 12.2924 51.094 11.6725 50.2763 11.6725C49.4556 11.6725 48.9938 12.2924 48.9938 13.3526C48.9938 14.4213 49.4556 15.0365 50.2763 15.0365C51.094 15.0365 51.5599 14.417 51.5599 13.3526ZM58.5297 15.8001H57.5502L56.5613 12.198H56.4866L55.5019 15.8001H54.5317L53.2129 10.9093H54.1706L55.0277 14.6413H55.0983L56.0819 10.9093H56.9878L57.9715 14.6413H58.0462L58.8991 10.9093H59.8434L58.5297 15.8001ZM60.9526 10.9093H61.8616V11.6862H61.9321C62.1775 11.1142 62.7509 10.7643 63.3599 10.8149C63.8315 10.7786 64.2936 10.9635 64.6158 11.3174C64.9379 11.6713 65.0852 12.1557 65.016 12.634V15.8001H64.0717V12.8763C64.0717 12.0904 63.7376 11.6995 63.0393 11.6995C62.7194 11.6843 62.409 11.8126 62.1894 12.0508C61.9698 12.289 61.863 12.6134 61.8968 12.9389V15.8001H60.9526V10.9093ZM66.5206 9H67.4648V15.8001H66.5206V9ZM68.7774 13.3526C68.6954 12.4759 69.1067 11.6275 69.8388 11.1631C70.5709 10.6987 71.4972 10.6987 72.2293 11.1631C72.9613 11.6275 73.3726 12.4759 73.2906 13.3526C73.3741 14.2302 72.9632 15.0803 72.2305 15.5456C71.4978 16.0109 70.5703 16.0109 69.8376 15.5456C69.1049 15.0803 68.6939 14.2302 68.7774 13.3526ZM72.3189 13.3526C72.3189 12.2924 71.853 11.6725 71.0353 11.6725C70.2146 11.6725 69.7528 12.2924 69.7528 13.3526C69.7528 14.4213 70.2146 15.0365 71.0353 15.0365C71.853 15.0365 72.3189 14.417 72.3189 13.3526ZM74.2847 14.417C74.2847 13.5366 74.926 13.0291 76.0642 12.957L77.3603 12.8806V12.4584C77.3603 11.9419 77.0261 11.6502 76.3807 11.6502C75.8536 11.6502 75.4884 11.848 75.3836 12.1938H74.4694C74.5659 11.3537 75.3389 10.8149 76.4243 10.8149C77.6238 10.8149 78.3004 11.4253 78.3004 12.4584V15.8002H77.3914V15.1128H77.3167C77.008 15.6148 76.459 15.9081 75.8796 15.8807C75.4734 15.9239 75.0683 15.7895 74.7644 15.5106C74.4606 15.2317 74.2863 14.8344 74.2847 14.417ZM77.3603 13.9991V13.5902L76.1919 13.6666C75.533 13.7116 75.2341 13.9407 75.2341 14.3719C75.2341 14.8121 75.6077 15.0683 76.1214 15.0683C76.4254 15.0997 76.729 15.0037 76.9625 14.8022C77.1961 14.6006 77.3396 14.3108 77.3603 13.9991ZM79.5414 13.3526C79.5414 11.8072 80.3186 10.8281 81.5274 10.8281C82.1378 10.7994 82.7095 11.1337 82.9946 11.6862H83.0652V9H84.0094V15.8001H83.1046V15.0274H83.0299C82.7232 15.5753 82.1445 15.904 81.5274 15.8807C80.3103 15.8808 79.5414 14.9017 79.5414 13.3526ZM80.5168 13.3526C80.5168 14.39 80.9951 15.0142 81.7952 15.0142C82.591 15.0142 83.0829 14.381 83.0829 13.3568C83.0829 12.3375 82.5858 11.6953 81.7952 11.6953C81.0003 11.6953 80.5167 12.3237 80.5167 13.3526H80.5168ZM87.9161 13.3526C87.8341 12.4759 88.2453 11.6275 88.9773 11.1632C89.7094 10.6988 90.6356 10.6988 91.3676 11.1632C92.0997 11.6275 92.5109 12.4759 92.4288 13.3526C92.5124 14.2302 92.1016 15.0802 91.3689 15.5456C90.6363 16.0109 89.7087 16.0109 88.9761 15.5456C88.2434 15.0802 87.8325 14.2302 87.9161 13.3526ZM91.4576 13.3526C91.4576 12.2924 90.9917 11.6725 90.174 11.6725C89.3533 11.6725 88.8916 12.2924 88.8916 13.3526C88.8916 14.4213 89.3533 15.0365 90.174 15.0365C90.9917 15.0365 91.4576 14.417 91.4576 13.3526ZM93.6958 10.9093H94.6048V11.6862H94.6753C94.9207 11.1142 95.4941 10.7643 96.1031 10.8149C96.5747 10.7786 97.0368 10.9635 97.359 11.3174C97.6811 11.6713 97.8284 12.1557 97.7592 12.634V15.8001H96.8149V12.8763C96.8149 12.0904 96.4808 11.6995 95.7825 11.6995C95.4626 11.6843 95.1522 11.8126 94.9326 12.0508C94.713 12.289 94.6062 12.6134 94.64 12.9389V15.8001H93.6958V10.9093ZM103.095 9.69159V10.9315H104.131V11.7446H103.095V14.2595C103.095 14.7718 103.301 14.9961 103.771 14.9961C103.892 14.9958 104.012 14.9883 104.131 14.9739V15.7779C103.962 15.8089 103.79 15.8254 103.618 15.8272C102.568 15.8272 102.149 15.4496 102.149 14.5066V11.7445H101.39V10.9315H102.149V9.69159H103.095ZM105.421 9H106.357V11.6952H106.432C106.689 11.1182 107.272 10.7678 107.891 10.8191C108.36 10.793 108.815 10.982 109.134 11.3346C109.453 11.6872 109.601 12.1667 109.538 12.6424V15.8001H108.593V12.8806C108.593 12.0994 108.237 11.7037 107.57 11.7037C107.242 11.6762 106.918 11.7983 106.686 12.0373C106.453 12.2764 106.336 12.6081 106.365 12.9437V15.8001H105.421L105.421 9ZM115.044 14.4796C114.779 15.4021 113.906 15.9982 112.971 15.8945C112.333 15.9118 111.72 15.6414 111.294 15.1553C110.869 14.6692 110.674 14.0164 110.761 13.3701C110.676 12.722 110.87 12.0682 111.293 11.5779C111.717 11.0877 112.327 10.8093 112.967 10.8149C114.298 10.8149 115.101 11.7446 115.101 13.2804V13.6172H111.723V13.6713C111.693 14.0343 111.814 14.3932 112.057 14.66C112.299 14.9268 112.641 15.0765 112.997 15.0725C113.459 15.1292 113.909 14.8949 114.135 14.4795L115.044 14.4796ZM111.723 12.9034H114.139C114.163 12.5715 114.049 12.2446 113.825 12.0033C113.601 11.762 113.287 11.6288 112.962 11.6364C112.632 11.6321 112.314 11.7643 112.081 12.0028C111.848 12.2414 111.718 12.5661 111.723 12.9034H111.723Z" fill="white"/>
<path d="M30.0509 21.8857C30.0741 20.0431 31.0191 18.3411 32.5548 17.376C31.5816 15.9552 30.01 15.0866 28.3141 15.0324C26.5298 14.8409 24.8 16.1238 23.8908 16.1238C22.964 16.1238 21.5641 15.0514 20.0566 15.0831C18.0732 15.1486 16.2689 16.2734 15.304 18.046C13.249 21.6829 14.7818 27.0279 16.7503 29.9677C17.7352 31.4073 18.8862 33.0153 20.3923 32.9582C21.8661 32.8958 22.4165 31.9976 24.1955 31.9976C25.958 31.9976 26.4745 32.9582 28.0111 32.922C29.5926 32.8957 30.589 31.476 31.5393 30.0229C32.2469 28.9972 32.7915 27.8635 33.1527 26.6639C31.2744 25.8518 30.0531 23.9705 30.0509 21.8857ZM27.1484 13.099C28.0107 12.0408 28.4355 10.6808 28.3326 9.30762C27.0153 9.44906 25.7984 10.0927 24.9245 11.1102C24.0615 12.1142 23.6243 13.4276 23.7092 14.7612C25.0442 14.7753 26.3118 14.1626 27.1484 13.099Z" fill="white"/>
</svg>
