<svg width="25" height="24" viewBox="0 0 25 24" fill="none" xmlns="http://www.w3.org/2000/svg">
<mask id="path-1-inside-1_709_5562" fill="white">
<path d="M18.8 4.8H17V3.9C17 3.66131 16.9052 3.43239 16.7364 3.2636C16.5676 3.09482 16.3387 3 16.1 3C15.8613 3 15.6324 3.09482 15.4636 3.2636C15.2948 3.43239 15.2 3.66131 15.2 3.9V4.8H9.8V3.9C9.8 3.66131 9.70518 3.43239 9.5364 3.2636C9.36761 3.09482 9.13869 3 8.9 3C8.6613 3 8.43239 3.09482 8.2636 3.2636C8.09482 3.43239 8 3.66131 8 3.9V4.8H6.2C5.48392 4.8 4.79716 5.08446 4.29081 5.59081C3.78446 6.09716 3.5 6.78392 3.5 7.5V18.3C3.5 19.0161 3.78446 19.7028 4.29081 20.2092C4.79716 20.7155 5.48392 21 6.2 21H18.8C19.5161 21 20.2028 20.7155 20.7092 20.2092C21.2155 19.7028 21.5 19.0161 21.5 18.3V7.5C21.5 6.78392 21.2155 6.09716 20.7092 5.59081C20.2028 5.08446 19.5161 4.8 18.8 4.8ZM19.7 18.3C19.7 18.5387 19.6052 18.7676 19.4364 18.9364C19.2676 19.1052 19.0387 19.2 18.8 19.2H6.2C5.96131 19.2 5.73239 19.1052 5.5636 18.9364C5.39482 18.7676 5.3 18.5387 5.3 18.3V12H19.7V18.3ZM19.7 10.2H5.3V7.5C5.3 7.2613 5.39482 7.03239 5.5636 6.8636C5.73239 6.69482 5.96131 6.6 6.2 6.6H8V7.5C8 7.73869 8.09482 7.96761 8.2636 8.1364C8.43239 8.30518 8.6613 8.4 8.9 8.4C9.13869 8.4 9.36761 8.30518 9.5364 8.1364C9.70518 7.96761 9.8 7.73869 9.8 7.5V6.6H15.2V7.5C15.2 7.73869 15.2948 7.96761 15.4636 8.1364C15.6324 8.30518 15.8613 8.4 16.1 8.4C16.3387 8.4 16.5676 8.30518 16.7364 8.1364C16.9052 7.96761 17 7.73869 17 7.5V6.6H18.8C19.0387 6.6 19.2676 6.69482 19.4364 6.8636C19.6052 7.03239 19.7 7.2613 19.7 7.5V10.2Z"/>
</mask>
<path d="M18.8 4.8H17V3.9C17 3.66131 16.9052 3.43239 16.7364 3.2636C16.5676 3.09482 16.3387 3 16.1 3C15.8613 3 15.6324 3.09482 15.4636 3.2636C15.2948 3.43239 15.2 3.66131 15.2 3.9V4.8H9.8V3.9C9.8 3.66131 9.70518 3.43239 9.5364 3.2636C9.36761 3.09482 9.13869 3 8.9 3C8.6613 3 8.43239 3.09482 8.2636 3.2636C8.09482 3.43239 8 3.66131 8 3.9V4.8H6.2C5.48392 4.8 4.79716 5.08446 4.29081 5.59081C3.78446 6.09716 3.5 6.78392 3.5 7.5V18.3C3.5 19.0161 3.78446 19.7028 4.29081 20.2092C4.79716 20.7155 5.48392 21 6.2 21H18.8C19.5161 21 20.2028 20.7155 20.7092 20.2092C21.2155 19.7028 21.5 19.0161 21.5 18.3V7.5C21.5 6.78392 21.2155 6.09716 20.7092 5.59081C20.2028 5.08446 19.5161 4.8 18.8 4.8ZM19.7 18.3C19.7 18.5387 19.6052 18.7676 19.4364 18.9364C19.2676 19.1052 19.0387 19.2 18.8 19.2H6.2C5.96131 19.2 5.73239 19.1052 5.5636 18.9364C5.39482 18.7676 5.3 18.5387 5.3 18.3V12H19.7V18.3ZM19.7 10.2H5.3V7.5C5.3 7.2613 5.39482 7.03239 5.5636 6.8636C5.73239 6.69482 5.96131 6.6 6.2 6.6H8V7.5C8 7.73869 8.09482 7.96761 8.2636 8.1364C8.43239 8.30518 8.6613 8.4 8.9 8.4C9.13869 8.4 9.36761 8.30518 9.5364 8.1364C9.70518 7.96761 9.8 7.73869 9.8 7.5V6.6H15.2V7.5C15.2 7.73869 15.2948 7.96761 15.4636 8.1364C15.6324 8.30518 15.8613 8.4 16.1 8.4C16.3387 8.4 16.5676 8.30518 16.7364 8.1364C16.9052 7.96761 17 7.73869 17 7.5V6.6H18.8C19.0387 6.6 19.2676 6.69482 19.4364 6.8636C19.6052 7.03239 19.7 7.2613 19.7 7.5V10.2Z" fill="black"/>
<path d="M18.8 4.8V2.8V4.8ZM17 4.8H15V6.8H17V4.8ZM16.1 3V1V3ZM15.2 4.8V6.8H17.2V4.8H15.2ZM9.8 4.8H7.8V6.8H9.8V4.8ZM8.9 3V1V3ZM8 4.8V6.8H10V4.8H8ZM3.5 7.5H1.5H3.5ZM3.5 18.3H1.5H3.5ZM6.2 21V23V21ZM18.8 21V23V21ZM21.5 18.3H23.5H21.5ZM21.5 7.5H23.5H21.5ZM19.4364 18.9364L18.0222 17.5222L19.4364 18.9364ZM5.5636 18.9364L6.97782 17.5222L5.5636 18.9364ZM5.3 12V10H3.3V12H5.3ZM19.7 12H21.7V10H19.7V12ZM19.7 10.2V12.2H21.7V10.2H19.7ZM5.3 10.2H3.3V12.2H5.3V10.2ZM6.2 6.6V8.6V6.6ZM8 6.6H10V4.6H8V6.6ZM9.8 6.6V4.6H7.8V6.6H9.8ZM15.2 6.6H17.2V4.6H15.2V6.6ZM17 6.6V4.6H15V6.6H17ZM19.4364 6.8636L18.0222 8.27782L19.4364 6.8636ZM18.8 4.8V2.8H17V4.8V6.8H18.8V4.8ZM17 4.8H19V3.9H17H15V4.8H17ZM17 3.9H19C19 3.13088 18.6945 2.39325 18.1506 1.84939L16.7364 3.2636L15.3222 4.67782C15.1159 4.47152 15 4.19173 15 3.9H17ZM16.7364 3.2636L18.1506 1.84939C17.6068 1.30553 16.8691 1 16.1 1V3V5C15.8083 5 15.5285 4.88411 15.3222 4.67782L16.7364 3.2636ZM16.1 3V1C15.3309 1 14.5932 1.30553 14.0494 1.84939L15.4636 3.2636L16.8778 4.67782C16.6715 4.88411 16.3917 5 16.1 5V3ZM15.4636 3.2636L14.0494 1.84939C13.5055 2.39325 13.2 3.13087 13.2 3.9H15.2H17.2C17.2 4.19174 17.0841 4.47153 16.8778 4.67782L15.4636 3.2636ZM15.2 3.9H13.2V4.8H15.2H17.2V3.9H15.2ZM15.2 4.8V2.8H9.8V4.8V6.8H15.2V4.8ZM9.8 4.8H11.8V3.9H9.8H7.8V4.8H9.8ZM9.8 3.9H11.8C11.8 3.13087 11.4945 2.39325 10.9506 1.84939L9.5364 3.2636L8.12218 4.67782C7.91589 4.47153 7.8 4.19174 7.8 3.9H9.8ZM9.5364 3.2636L10.9506 1.84939C10.4068 1.30553 9.66913 1 8.9 1L8.9 3V5C8.60826 5 8.32847 4.88411 8.12218 4.67782L9.5364 3.2636ZM8.9 3V1C8.13087 1 7.39325 1.30553 6.84939 1.84939L8.2636 3.2636L9.67782 4.67782C9.47153 4.88411 9.19174 5 8.9 5L8.9 3ZM8.2636 3.2636L6.84939 1.84939C6.30554 2.39325 6 3.13087 6 3.9H8H10C10 4.19174 9.88411 4.47153 9.67782 4.67782L8.2636 3.2636ZM8 3.9H6V4.8H8H10V3.9H8ZM8 4.8V2.8H6.2V4.8V6.8H8V4.8ZM6.2 4.8V2.8C4.95348 2.8 3.75802 3.29518 2.8766 4.1766L4.29081 5.59081L5.70503 7.00503C5.8363 6.87375 6.01435 6.8 6.2 6.8V4.8ZM4.29081 5.59081L2.8766 4.1766C1.99518 5.05802 1.5 6.25348 1.5 7.5H3.5H5.5C5.5 7.31435 5.57375 7.1363 5.70503 7.00503L4.29081 5.59081ZM3.5 7.5H1.5V18.3H3.5H5.5V7.5H3.5ZM3.5 18.3H1.5C1.5 19.5465 1.99518 20.742 2.8766 21.6234L4.29081 20.2092L5.70503 18.795C5.57375 18.6637 5.5 18.4857 5.5 18.3H3.5ZM4.29081 20.2092L2.8766 21.6234C3.75802 22.5048 4.95348 23 6.2 23V21L6.2 19C6.01435 19 5.8363 18.9262 5.70503 18.795L4.29081 20.2092ZM6.2 21V23H18.8V21V19H6.2V21ZM18.8 21V23C20.0465 23 21.242 22.5048 22.1234 21.6234L20.7092 20.2092L19.295 18.795C19.1637 18.9262 18.9857 19 18.8 19V21ZM20.7092 20.2092L22.1234 21.6234C23.0048 20.742 23.5 19.5465 23.5 18.3H21.5H19.5C19.5 18.4857 19.4262 18.6637 19.295 18.795L20.7092 20.2092ZM21.5 18.3H23.5V7.5H21.5H19.5V18.3H21.5ZM21.5 7.5H23.5C23.5 6.25348 23.0048 5.05802 22.1234 4.1766L20.7092 5.59081L19.295 7.00503C19.4262 7.1363 19.5 7.31435 19.5 7.5H21.5ZM20.7092 5.59081L22.1234 4.1766C21.242 3.29518 20.0465 2.8 18.8 2.8V4.8V6.8C18.9857 6.8 19.1637 6.87375 19.295 7.00503L20.7092 5.59081ZM19.7 18.3H17.7C17.7 18.0083 17.8159 17.7285 18.0222 17.5222L19.4364 18.9364L20.8506 20.3506C21.3945 19.8068 21.7 19.0691 21.7 18.3H19.7ZM19.4364 18.9364L18.0222 17.5222C18.2285 17.3159 18.5083 17.2 18.8 17.2V19.2V21.2C19.5691 21.2 20.3068 20.8945 20.8506 20.3506L19.4364 18.9364ZM18.8 19.2V17.2H6.2V19.2V21.2H18.8V19.2ZM6.2 19.2V17.2C6.49173 17.2 6.77153 17.3159 6.97782 17.5222L5.5636 18.9364L4.14939 20.3506C4.69325 20.8945 5.43088 21.2 6.2 21.2V19.2ZM5.5636 18.9364L6.97782 17.5222C7.18411 17.7285 7.3 18.0083 7.3 18.3H5.3H3.3C3.3 19.0691 3.60553 19.8068 4.14939 20.3506L5.5636 18.9364ZM5.3 18.3H7.3V12H5.3H3.3V18.3H5.3ZM5.3 12V14H19.7V12V10H5.3V12ZM19.7 12H17.7V18.3H19.7H21.7V12H19.7ZM19.7 10.2V8.2H5.3V10.2V12.2H19.7V10.2ZM5.3 10.2H7.3V7.5H5.3H3.3V10.2H5.3ZM5.3 7.5H7.3C7.3 7.79174 7.18411 8.07153 6.97782 8.27782L5.5636 6.8636L4.14939 5.44939C3.60554 5.99324 3.3 6.73087 3.3 7.5H5.3ZM5.5636 6.8636L6.97782 8.27782C6.77153 8.48411 6.49174 8.6 6.2 8.6V6.6L6.2 4.6C5.43087 4.6 4.69324 4.90554 4.14939 5.44939L5.5636 6.8636ZM6.2 6.6V8.6H8V6.6V4.6H6.2V6.6ZM8 6.6H6V7.5H8H10V6.6H8ZM8 7.5H6C6 8.26913 6.30554 9.00675 6.84939 9.55061L8.2636 8.1364L9.67782 6.72218C9.88411 6.92847 10 7.20826 10 7.5H8ZM8.2636 8.1364L6.84939 9.55061C7.39324 10.0945 8.13087 10.4 8.9 10.4V8.4V6.4C9.19174 6.4 9.47153 6.51589 9.67782 6.72218L8.2636 8.1364ZM8.9 8.4V10.4C9.66913 10.4 10.4068 10.0945 10.9506 9.55061L9.5364 8.1364L8.12218 6.72218C8.32847 6.51589 8.60826 6.4 8.9 6.4V8.4ZM9.5364 8.1364L10.9506 9.55061C11.4945 9.00675 11.8 8.26913 11.8 7.5H9.8H7.8C7.8 7.20826 7.91589 6.92847 8.12218 6.72218L9.5364 8.1364ZM9.8 7.5H11.8V6.6H9.8H7.8V7.5H9.8ZM9.8 6.6V8.6H15.2V6.6V4.6H9.8V6.6ZM15.2 6.6H13.2V7.5H15.2H17.2V6.6H15.2ZM15.2 7.5H13.2C13.2 8.26913 13.5055 9.00675 14.0494 9.55061L15.4636 8.1364L16.8778 6.72218C17.0841 6.92847 17.2 7.20826 17.2 7.5H15.2ZM15.4636 8.1364L14.0494 9.55061C14.5932 10.0945 15.3309 10.4 16.1 10.4V8.4V6.4C16.3917 6.4 16.6715 6.51589 16.8778 6.72218L15.4636 8.1364ZM16.1 8.4V10.4C16.8691 10.4 17.6068 10.0945 18.1506 9.55061L16.7364 8.1364L15.3222 6.72218C15.5285 6.51589 15.8083 6.4 16.1 6.4V8.4ZM16.7364 8.1364L18.1506 9.55061C18.6945 9.00675 19 8.26912 19 7.5H17H15C15 7.20827 15.1159 6.92847 15.3222 6.72218L16.7364 8.1364ZM17 7.5H19V6.6H17H15V7.5H17ZM17 6.6V8.6H18.8V6.6V4.6H17V6.6ZM18.8 6.6V8.6C18.5083 8.6 18.2285 8.48411 18.0222 8.27782L19.4364 6.8636L20.8506 5.44939C20.3068 4.90553 19.5691 4.6 18.8 4.6V6.6ZM19.4364 6.8636L18.0222 8.27782C17.8159 8.07153 17.7 7.79173 17.7 7.5H19.7H21.7C21.7 6.73088 21.3945 5.99325 20.8506 5.44939L19.4364 6.8636ZM19.7 7.5H17.7V10.2H19.7H21.7V7.5H19.7Z" fill="#1C4CC3" mask="url(#path-1-inside-1_709_5562)"/>
</svg>
