<svg width="20" height="20" viewBox="0 0 20 20" fill="none" xmlns="http://www.w3.org/2000/svg">
<path d="M13.8652 4.75732V4.7583C14.1139 5.36417 14.5861 5.85195 15.1836 6.12061H15.1846L15.5381 6.27783L15.1621 6.4458V6.44678C14.5791 6.70807 14.1145 7.17782 13.8613 7.76416L13.75 8.01807L13.6396 7.76318C13.3861 7.17731 12.9217 6.70769 12.3389 6.44678L11.9619 6.27783L12.3164 6.12158L12.3174 6.12061C12.9147 5.85231 13.3867 5.36559 13.6357 4.76025L13.751 4.48096L13.8652 4.75732Z" fill="#1C4CC3" stroke="#1C4CC3" stroke-width="0.567009"/>
<path d="M10.7558 4.62354H4.46702C3.84072 4.62354 3.33301 5.13125 3.33301 5.75755V15.5325C3.33301 16.1588 3.84072 16.6665 4.46703 16.6665H14.5703C15.1966 16.6665 15.7043 16.1588 15.7043 15.5325V9.56977" stroke="#1C4CC3" stroke-width="1.4" stroke-linecap="round"/>
<path d="M7.36699 10.833C7.36699 10.4464 7.05359 10.133 6.66699 10.133C6.28039 10.133 5.96699 10.4464 5.96699 10.833H6.66699H7.36699ZM5.96699 15.833V16.533H7.36699V15.833H6.66699H5.96699ZM10.3994 12.083C10.3994 11.6964 10.086 11.383 9.6994 11.383C9.3128 11.383 8.9994 11.6964 8.9994 12.083H9.6994H10.3994ZM8.9994 15.833V16.533H10.3994V15.833H9.6994H8.9994ZM13.2003 11.3018C13.2003 10.9152 12.8869 10.6018 12.5003 10.6018C12.1137 10.6018 11.8003 10.9152 11.8003 11.3018H12.5003H13.2003ZM11.8003 15.833V16.533H13.2003V15.833H12.5003H11.8003ZM6.66699 10.833H5.96699V15.833H6.66699H7.36699V10.833H6.66699ZM9.6994 12.083H8.9994V15.833H9.6994H10.3994V12.083H9.6994ZM12.5003 11.3018H11.8003V15.833H12.5003H13.2003V11.3018H12.5003Z" fill="#1C4CC3"/>
</svg>
