<svg width="20" height="20" viewBox="0 0 20 20" fill="none" xmlns="http://www.w3.org/2000/svg">
<path d="M5.83353 3.74984C5.39019 3.74971 4.9548 3.86748 4.57197 4.09107C4.18915 4.31466 3.87267 4.63603 3.65497 5.02223C3.43727 5.40844 3.32619 5.84559 3.33312 6.28887C3.34004 6.73215 3.46471 7.16562 3.69436 7.54484C3.12398 7.65505 2.60975 7.9604 2.23999 8.40845C1.87022 8.85651 1.66797 9.41932 1.66797 10.0003C1.66797 10.5812 1.87022 11.144 2.23999 11.5921C2.60975 12.0401 3.12398 12.3455 3.69436 12.4557M5.83353 3.74984C5.83353 3.1973 6.05302 2.6674 6.44372 2.2767C6.83442 1.886 7.36432 1.6665 7.91686 1.6665C8.46939 1.6665 8.9993 1.886 9.39 2.2767C9.7807 2.6674 10.0002 3.1973 10.0002 3.74984V16.2498C10.0002 16.8024 9.7807 17.3323 9.39 17.723C8.9993 18.1137 8.46939 18.3332 7.91686 18.3332C7.36432 18.3332 6.83442 18.1137 6.44372 17.723C6.05302 17.3323 5.83353 16.8024 5.83353 16.2498C5.39032 16.2499 4.95506 16.1321 4.57236 15.9085C4.18966 15.685 3.87326 15.3637 3.65559 14.9776C3.43792 14.5916 3.3268 14.1546 3.33361 13.7114C3.34042 13.2683 3.46492 12.8349 3.69436 12.4557M5.83353 3.74984C5.83353 4.4315 6.16103 5.0365 6.66686 5.4165M3.69436 12.4557C3.99342 11.9606 4.45491 11.5845 5.00019 11.3915M16.0419 3.95817L14.1669 5.83317H12.5002M16.0419 16.0415L14.1669 14.1665H12.5002M16.0419 9.99984H12.5002M15.4169 3.95817C15.4169 4.12393 15.4827 4.2829 15.5999 4.40011C15.7171 4.51732 15.8761 4.58317 16.0419 4.58317C16.2076 4.58317 16.3666 4.51732 16.4838 4.40011C16.601 4.2829 16.6669 4.12393 16.6669 3.95817C16.6669 3.79241 16.601 3.63344 16.4838 3.51623C16.3666 3.39902 16.2076 3.33317 16.0419 3.33317C15.8761 3.33317 15.7171 3.39902 15.5999 3.51623C15.4827 3.63344 15.4169 3.79241 15.4169 3.95817ZM15.4169 16.0415C15.4169 15.8757 15.4827 15.7168 15.5999 15.5996C15.7171 15.4824 15.8761 15.4165 16.0419 15.4165C16.2076 15.4165 16.3666 15.4824 16.4838 15.5996C16.601 15.7168 16.6669 15.8757 16.6669 16.0415C16.6669 16.2073 16.601 16.3662 16.4838 16.4834C16.3666 16.6007 16.2076 16.6665 16.0419 16.6665C15.8761 16.6665 15.7171 16.6007 15.5999 16.4834C15.4827 16.3662 15.4169 16.2073 15.4169 16.0415ZM15.4169 9.99984C15.4169 10.1656 15.4827 10.3246 15.5999 10.4418C15.7171 10.559 15.8761 10.6248 16.0419 10.6248C16.2076 10.6248 16.3666 10.559 16.4838 10.4418C16.601 10.3246 16.6669 10.1656 16.6669 9.99984C16.6669 9.83408 16.601 9.67511 16.4838 9.5579C16.3666 9.44069 16.2076 9.37484 16.0419 9.37484C15.8761 9.37484 15.7171 9.44069 15.5999 9.5579C15.4827 9.67511 15.4169 9.83408 15.4169 9.99984Z" stroke="#1C4CC3" stroke-width="1.4" stroke-linecap="round" stroke-linejoin="round"/>
</svg>
