<svg width="114" height="19" viewBox="0 0 114 19" fill="none" xmlns="http://www.w3.org/2000/svg">
<path d="M62.7812 1.9755C65.3625 1.9043 67.2139 0.492022 70.3784 0.333972C73.5022 0.196015 74.0496 0.765908 77.613 0.375093C81.1958 -0.00947583 84.7784 0.323584 86.4109 0.056462C88.0269 -0.209153 88.1485 0.55554 90.4596 0.427184C92.7097 0.311788 94.1527 0.489945 96.0722 0.89556C98.0859 1.24669 104.065 2.34211 106.268 2.72312C108.557 3.00684 110.738 4.44743 112.046 5.31154C112.449 5.57123 112.738 5.80398 112.946 5.99627C113.034 6.07786 113.053 6.14896 113.026 6.19092C113.026 6.19095 113.026 6.19098 113.026 6.191C112.994 6.24325 112.892 6.25075 112.76 6.18032C112.143 5.84656 111.03 5.36335 109.796 5.0948C107.362 4.59486 107.285 4.06039 104.042 3.50413C100.757 3.03223 98.7838 3.20064 94.9334 2.62581C91.018 2.12063 90.1669 3.22244 84.6559 2.65015C79.1338 2.16983 78.6048 3.4294 73.1773 4.04243C67.746 4.67549 60.7965 4.95058 57.5254 5.51966C54.2562 6.07439 49.8923 6.9502 45.2465 7.68303C40.5976 8.4102 35.0096 10.0136 29.9017 10.9397C24.7845 11.8443 17.576 13.4055 14.26 14.146C10.9863 14.8655 10.1369 15.0672 7.07569 16.2342C5.28589 16.9232 2.88963 17.6829 0.721434 18.253C-0.298955 18.5177 -0.195744 18.2309 0.772187 17.7127C2.28541 16.9255 3.53913 16.5838 4.2345 16.0432C5.61462 14.9752 6.23852 14.5393 8.3758 14.1789C10.4568 13.8439 11.2773 12.8454 12.4406 12.5825C13.6381 12.3249 13.7354 12.6822 19.7017 10.7135C25.6705 8.77838 29.0647 7.91811 31.3264 7.3075C33.6617 6.68098 38.5423 5.98338 42.3378 5.09847C46.1094 4.18745 53.8927 2.94641 57.0102 2.27239C60.1202 1.5832 60.2065 2.05618 62.7812 1.9755Z" fill="#FF8A00"/>
</svg>
