<svg width="16" height="16" viewBox="0 0 16 16" fill="none" xmlns="http://www.w3.org/2000/svg">
<path d="M10.2168 2.86951C10.8922 4.35866 11.7215 6.18663 12.3436 6.91315C12.4652 6.63043 12.4519 6.15775 12.5908 5.00353C12.7163 3.96096 13.5761 3.86209 13.9449 3.93597C14.7603 4.10593 15.0092 4.93299 14.982 5.23793C14.9386 5.72395 14.9364 5.70728 14.8475 6.88205C14.717 8.6006 15.3808 9.89812 15.4419 11.3695C15.4419 14.1423 13.0118 15.5048 11.311 15.5048C9.95018 15.5048 8.58878 14.6338 8.07833 14.1984L5.52606 11.8683C5.2139 11.6256 4.44183 10.824 4.10301 10.363C3.1793 9.10605 4.51515 8.24067 5.26611 8.45785C5.20668 8.4123 4.85064 7.83408 4.68011 7.55081C4.22187 6.63043 4.68011 6.01778 5.01894 5.84948C5.78656 5.46788 6.35089 5.89724 6.52864 6.13164C6.46087 6.01611 6.24758 5.54842 5.90376 4.69082C5.55994 3.83321 6.11372 3.30387 6.4331 3.14612C7.12741 2.82507 7.78728 3.23277 7.95224 3.5977C8.03278 3.77544 8.46881 4.7297 8.65766 5.15073C8.51491 4.80191 8.25607 4.10871 8.16442 3.78822C7.98224 3.03281 8.42048 2.51569 8.69821 2.38238C9.0848 2.19742 9.89019 2.1491 10.209 2.85118L10.2168 2.86951Z" fill="#F7B247"/>
<path d="M8.65558 2.68232C8.71446 2.49346 8.795 2.37904 8.8561 2.32239C8.79796 2.33942 8.74538 2.35942 8.69835 2.38238C8.42063 2.51568 7.98238 3.03336 8.16513 3.78821C8.25622 4.1087 8.51506 4.8019 8.65836 5.15072L8.58949 4.99852C8.90276 5.71783 9.29324 6.49267 9.58762 6.99257C9.62497 7.05607 9.686 7.10212 9.7573 7.12061C9.82861 7.1391 9.90433 7.12851 9.96783 7.09117C10.0313 7.05382 10.0774 6.99279 10.0959 6.92148C10.1144 6.85018 10.1038 6.77446 10.0664 6.71096C9.58873 5.89946 8.86221 4.35865 8.65392 3.5938C8.56986 3.2959 8.57043 2.97991 8.65558 2.68232ZM4.68026 7.5508C4.80912 7.7652 5.04408 8.1479 5.17683 8.3412C5.35235 8.55227 5.54453 8.755 5.73894 8.94774C5.96112 9.16714 6.19163 9.37932 6.40992 9.5804L6.42825 9.59706C6.65376 9.8048 6.86427 9.99976 7.04701 10.1847C7.07265 10.2107 7.10316 10.2314 7.13678 10.2455C7.17041 10.2597 7.20649 10.2671 7.24299 10.2674C7.27948 10.2676 7.31566 10.2606 7.34946 10.2469C7.38326 10.2331 7.41402 10.2129 7.43999 10.1872C7.46596 10.1616 7.48662 10.1311 7.5008 10.0975C7.51498 10.0638 7.5224 10.0277 7.52263 9.99125C7.52286 9.95476 7.5159 9.91858 7.50215 9.88478C7.4884 9.85097 7.46813 9.82021 7.44249 9.79424C7.24864 9.59817 7.02813 9.39432 6.80428 9.18881L6.78873 9.17437C6.56877 8.97163 6.34437 8.765 6.12997 8.55227C5.68673 8.11346 5.30791 7.67244 5.10684 7.22753C4.96409 6.91315 4.9291 6.54489 4.96798 6.2405C4.98162 6.11509 5.0146 5.99256 5.06574 5.87724C5.07678 5.85418 5.0894 5.83191 5.10351 5.81059C5.07574 5.82244 5.04741 5.8354 5.01853 5.84947C4.68026 6.01777 4.22202 6.63042 4.68026 7.5508ZM6.4899 3.12167C6.43047 3.16167 6.34937 3.25831 6.29772 3.44605C6.2394 3.65768 6.23106 3.9554 6.32827 4.31422C6.46935 4.83411 6.82372 5.53175 7.22864 6.21495C7.57928 6.80301 7.95625 7.37496 8.35842 7.92906C8.38105 7.95841 8.39758 7.992 8.40703 8.02784C8.41648 8.06369 8.41866 8.10106 8.41343 8.13776C8.40821 8.17445 8.3957 8.20974 8.37663 8.24152C8.35755 8.27331 8.33231 8.30095 8.30239 8.32283C8.27247 8.3447 8.23847 8.36037 8.20239 8.3689C8.16632 8.37743 8.12891 8.37865 8.09235 8.3725C8.0558 8.36634 8.02085 8.35293 7.98956 8.33305C7.95828 8.31318 7.93128 8.28724 7.91018 8.25677C7.49749 7.68834 7.11069 7.10156 6.75096 6.49823C6.63913 6.31086 6.53137 6.12127 6.42769 5.92945C6.24292 5.52095 6.06827 5.10794 5.90391 4.69081C5.56009 3.83376 6.11387 3.30386 6.43325 3.14667C6.45213 3.13741 6.47102 3.12908 6.4899 3.12167ZM12.4848 6.0311C12.4443 6.47212 12.421 6.72429 12.3487 6.90093L12.336 7.05256C12.3293 7.12593 12.3521 7.19892 12.3993 7.25548C12.4465 7.31204 12.5142 7.34754 12.5876 7.35417C12.6609 7.3608 12.7339 7.33801 12.7905 7.29083C12.8471 7.24364 12.8826 7.17592 12.8892 7.10255C12.8973 7.01183 12.9057 6.90685 12.9142 6.78762C12.947 6.34715 12.9931 5.71894 13.1291 4.92909C13.1858 4.60138 13.333 4.31699 13.5013 4.13147C13.6318 3.98872 13.744 3.93374 13.8212 3.91985C13.4119 3.89097 12.7037 4.06482 12.5909 5.00297C12.5503 5.34493 12.515 5.6875 12.4848 6.03054" fill="#D67D00"/>
<path d="M12.1305 3.03892C12.1307 3.07539 12.1381 3.11145 12.1523 3.14505C12.1665 3.17865 12.1872 3.20912 12.2132 3.23473C12.2391 3.26034 12.2699 3.28058 12.3037 3.2943C12.3375 3.30802 12.3737 3.31495 12.4101 3.3147C12.4466 3.31444 12.4827 3.307 12.5163 3.29281C12.5499 3.27862 12.5803 3.25795 12.6059 3.23198C12.6315 3.20601 12.6518 3.17525 12.6655 3.14146C12.6792 3.10767 12.6862 3.0715 12.6859 3.03503C12.6776 1.76028 11.7083 -0.013256 9.62539 7.4708e-05C9.55174 0.000590306 9.4813 0.0303448 9.42959 0.0827925C9.37787 0.13524 9.3491 0.206085 9.34962 0.279742C9.35013 0.353398 9.37989 0.423833 9.43233 0.475552C9.48478 0.52727 9.55563 0.556036 9.62928 0.55552C11.3134 0.544411 12.1232 1.9708 12.1305 3.03892Z" fill="#5092FF"/>
<path d="M11.4852 4.38807C11.4117 4.38851 11.3409 4.35975 11.2886 4.3081C11.2362 4.25645 11.2064 4.18613 11.2059 4.11257C11.2025 3.60711 10.9942 2.93502 10.5521 2.39346C10.1166 1.86024 9.45953 1.4592 8.54138 1.46531C8.46772 1.46583 8.39688 1.43706 8.34443 1.38535C8.29198 1.33363 8.26223 1.26319 8.26171 1.18954C8.2612 1.11588 8.28996 1.04503 8.34168 0.992586C8.3934 0.940139 8.46384 0.910384 8.53749 0.909869C9.64172 0.902648 10.4527 1.39422 10.982 2.04187C11.5041 2.68118 11.7569 3.47658 11.7613 4.10868C11.7615 4.14515 11.7546 4.18131 11.7408 4.21509C11.727 4.24887 11.7068 4.27961 11.6811 4.30555C11.6555 4.33149 11.625 4.35213 11.5914 4.36629C11.5578 4.38045 11.5217 4.38785 11.4852 4.38807ZM1.48611 8.62279C1.48611 8.54913 1.45685 8.47849 1.40477 8.42641C1.35268 8.37432 1.28204 8.34506 1.20839 8.34506C1.13473 8.34506 1.06409 8.37432 1.01201 8.42641C0.959924 8.47849 0.930664 8.54913 0.930664 8.62279C0.930664 9.25433 1.17784 10.0514 1.69607 10.6946C2.22152 11.3456 3.02914 11.8421 4.13336 11.8421C4.20702 11.8421 4.27766 11.8129 4.32974 11.7608C4.38183 11.7087 4.41109 11.6381 4.41109 11.5644C4.41109 11.4908 4.38183 11.4201 4.32974 11.368C4.27766 11.316 4.20702 11.2867 4.13336 11.2867C3.21521 11.2867 2.56034 10.8812 2.12821 10.3458C1.68996 9.80144 1.48611 9.12713 1.48611 8.62223" fill="#5092FF"/>
<path d="M0.555446 9.68983C0.555446 9.61618 0.526186 9.54554 0.474103 9.49345C0.422019 9.44137 0.351379 9.41211 0.277723 9.41211C0.204066 9.41211 0.133426 9.44137 0.0813432 9.49345C0.0292601 9.54554 0 9.61618 0 9.68983C0 10.9646 0.957033 12.7448 3.03995 12.7448C3.11361 12.7448 3.18425 12.7155 3.23633 12.6634C3.28842 12.6114 3.31768 12.5407 3.31768 12.4671C3.31768 12.3934 3.28842 12.3228 3.23633 12.2707C3.18425 12.2186 3.11361 12.1893 3.03995 12.1893C1.35584 12.1893 0.555446 10.7585 0.555446 9.68983Z" fill="#5092FF"/>
</svg>
