<svg width="340" height="249" viewBox="0 0 340 249" fill="none" xmlns="http://www.w3.org/2000/svg">
<mask id="mask0_585_10460" style="mask-type:luminance" maskUnits="userSpaceOnUse" x="263" y="82" width="41" height="39">
<path d="M297.37 115.073C305.223 107.713 305.223 95.78 297.37 88.4197C289.517 81.0595 276.785 81.0595 268.933 88.4197C261.08 95.7799 261.08 107.713 268.933 115.073C276.785 122.434 289.517 122.434 297.37 115.073Z" fill="white"/>
</mask>
<g mask="url(#mask0_585_10460)">
<path d="M297.37 115.073C305.223 107.713 305.223 95.78 297.37 88.4197C289.517 81.0595 276.785 81.0595 268.933 88.4197C261.08 95.7799 261.08 107.713 268.933 115.073C276.785 122.434 289.517 122.434 297.37 115.073Z" fill="white"/>
</g>
<mask id="mask1_585_10460" style="mask-type:luminance" maskUnits="userSpaceOnUse" x="263" y="82" width="41" height="39">
<path d="M297.37 115.073C305.223 107.713 305.223 95.78 297.37 88.4197C289.517 81.0595 276.785 81.0595 268.933 88.4197C261.08 95.7799 261.08 107.713 268.933 115.073C276.785 122.434 289.517 122.434 297.37 115.073Z" fill="white"/>
</mask>
<g mask="url(#mask1_585_10460)">
<path d="M283.157 122.338C290.265 122.338 296.027 120.049 296.027 117.225C296.027 114.401 290.265 112.112 283.157 112.112C276.049 112.112 270.287 114.401 270.287 117.225C270.287 120.049 276.049 122.338 283.157 122.338Z" fill="#FFB679"/>
<path d="M280.019 113.869C280.019 113.869 278.682 113.413 278.464 114.513C278.246 115.613 282.08 117.48 284.126 117.48C286.173 117.48 290.087 114.619 288.231 114.144L280.019 113.869Z" fill="#BD561B"/>
<path d="M294.012 102.922C294.23 101.663 293.318 100.478 291.975 100.273C290.632 100.069 289.367 100.924 289.149 102.182C288.932 103.441 289.843 104.627 291.186 104.831C292.529 105.035 293.794 104.18 294.012 102.922Z" fill="#BD561B"/>
<path d="M277.488 102.922C277.706 101.663 276.794 100.478 275.452 100.273C274.109 100.069 272.844 100.924 272.626 102.182C272.408 103.441 273.32 104.627 274.663 104.831C276.005 105.035 277.27 104.18 277.488 102.922Z" fill="#BD561B"/>
<path d="M279.965 110.271L279.724 114.82C279.799 115.797 287.888 115.975 287.812 114.998V109.937L279.965 110.271Z" fill="#BD561B"/>
<path d="M287.813 112.664V109.937L279.965 110.271L279.786 113.653C283.499 114.277 286.27 113.424 287.813 112.664Z" fill="#8A3A0C"/>
<path d="M292.731 101.501C291.923 107.414 289.125 112.188 283.678 112.188C278.232 112.188 274.387 106.086 274.387 100.13C274.387 94.174 278.232 90.6191 283.678 90.6191C289.125 90.6191 293.666 94.655 292.731 101.501Z" fill="#BD561B"/>
<path d="M284.374 105.188C284.376 105.192 284.378 105.195 284.38 105.198C284.378 105.195 284.376 105.192 284.374 105.188Z" fill="#8A3A0C"/>
<path d="M285.055 104.924C284.849 104.571 284.445 104.345 284.019 104.328C283.582 104.31 283.163 104.54 282.934 104.881C282.832 105.033 282.895 105.264 283.064 105.348C283.244 105.437 283.454 105.387 283.562 105.226C283.569 105.215 283.577 105.204 283.585 105.194C283.606 105.173 283.625 105.151 283.648 105.131C283.657 105.124 283.666 105.116 283.675 105.109C283.703 105.094 283.729 105.076 283.757 105.062C283.768 105.056 283.78 105.051 283.792 105.045C283.821 105.037 283.85 105.026 283.881 105.02C283.895 105.016 283.909 105.014 283.923 105.011C283.955 105.01 283.987 105.008 284.019 105.01C284.027 105.01 284.036 105.011 284.044 105.011C284.076 105.018 284.107 105.025 284.138 105.034C284.148 105.037 284.158 105.041 284.169 105.044C284.197 105.057 284.224 105.071 284.251 105.086C284.261 105.092 284.27 105.098 284.28 105.104C284.278 105.102 284.277 105.101 284.275 105.099C284.277 105.102 284.28 105.103 284.282 105.106C284.284 105.107 284.286 105.108 284.288 105.109C284.323 105.132 284.309 105.127 284.293 105.115C284.31 105.131 284.332 105.146 284.348 105.162C284.357 105.171 284.365 105.18 284.374 105.189C284.372 105.186 284.37 105.183 284.369 105.18C284.37 105.183 284.373 105.186 284.374 105.189C284.375 105.19 284.377 105.191 284.378 105.193C284.406 105.224 284.393 105.215 284.38 105.199C284.394 105.222 284.414 105.245 284.427 105.268C284.518 105.425 284.762 105.488 284.925 105.39C285.094 105.288 285.153 105.091 285.055 104.924Z" fill="#8A3A0C"/>
<path d="M284.28 105.104C284.284 105.108 284.288 105.112 284.293 105.115C284.289 105.112 284.286 105.109 284.283 105.105C284.282 105.105 284.281 105.105 284.28 105.104Z" fill="#8A3A0C"/>
<path d="M281.778 99.2434C281.19 99.099 278.563 99.3454 278.703 100.697C278.719 100.858 279.508 100.543 280.281 100.473C280.702 100.435 281.103 100.465 281.404 100.397C282.256 100.205 281.892 99.2717 281.778 99.2434Z" fill="#1C100A"/>
<path d="M285.435 99.2917C286.016 99.1274 288.651 99.2854 288.563 100.641C288.553 100.802 287.753 100.514 286.978 100.47C286.555 100.447 286.156 100.489 285.853 100.432C284.994 100.269 285.322 99.3236 285.435 99.2917Z" fill="#1C100A"/>
<path d="M281.519 102.44C281.519 103.012 281.111 103.476 280.607 103.476C280.103 103.476 279.695 103.012 279.695 102.44C279.695 101.867 280.104 101.403 280.607 101.403C281.111 101.403 281.519 101.867 281.519 102.44Z" fill="#1C100A"/>
<path d="M286.632 103.476C287.135 103.476 287.544 103.012 287.544 102.44C287.544 101.867 287.135 101.403 286.632 101.403C286.128 101.403 285.72 101.867 285.72 102.44C285.72 103.012 286.128 103.476 286.632 103.476Z" fill="#1C100A"/>
<path d="M283.678 90.6191C278.232 90.6191 274.387 93.4587 274.387 99.4147C274.387 99.7185 274.397 100.025 274.417 100.332C274.431 100.448 274.649 102.213 274.783 102.826C274.788 102.852 274.795 102.878 274.801 102.904C274.807 102.897 275.753 100.985 276.092 98.6546C276.092 98.6546 277.058 95.0588 281.379 94.6497C281.379 94.6497 286.37 98.1875 290.885 97.0867C290.885 97.0867 291.031 101.651 292.424 102.559C292.547 101.975 292.649 101.383 292.731 100.786C293.666 93.9398 289.125 90.6191 283.678 90.6191Z" fill="#422618"/>
<path d="M283.993 94.4905C280.014 98.2198 276.834 101.614 276.445 100.251C276.055 98.8878 279.773 94.0303 279.909 94.0303C280.046 94.0303 283.993 94.4905 283.993 94.4905Z" fill="#422618"/>
<path d="M283.38 93.4941C281.738 97.8656 282.652 100.385 283.62 99.4768C284.589 98.5687 285.278 95.3598 285.278 95.3598L283.38 93.4941Z" fill="#422618"/>
<path d="M285.277 94.7715C286.621 98.2493 287.579 100.898 288.565 99.9742C289.55 99.0506 287.413 94.7715 287.413 94.7715H285.277Z" fill="#422618"/>
<path d="M288.231 95.1045C291.287 99.3493 292.893 100.97 293.661 100.251C294.428 99.5316 290.932 95.1045 290.796 95.1045C290.66 95.1045 288.231 95.1045 288.231 95.1045Z" fill="#1C100A"/>
<path d="M280.813 91.052C276.768 88.863 271.127 91.0983 271.127 92.7475C271.127 94.3969 274.193 93.8754 274.193 93.8754C274.193 93.8754 270.35 96.1189 271.45 98.4626C272.064 99.7704 275.494 97.2699 275.494 97.2699C275.494 97.2699 270.383 100.897 272.988 101.743C274.453 102.219 277.107 99.5122 277.107 99.5122L280.813 91.052Z" fill="#422618"/>
<path d="M278.697 93.0203C275.627 91.0641 275.34 87.7271 276.772 87.7271C278.205 87.7271 281.956 91.5065 281.52 92.2149C281.083 92.9231 278.697 93.0203 278.697 93.0203Z" fill="#422618"/>
<path d="M286.455 91.2479C290.5 89.0587 296.141 91.294 296.141 92.9434C296.141 94.5929 294.165 94.2475 294.165 94.2475C294.165 94.2475 298.58 96.3148 297.48 98.6585C296.867 99.9663 292.707 97.2939 292.707 97.2939C292.707 97.2939 294.712 100.251 294.063 100.777C292.366 102.151 288.42 98.0372 288.016 97.1139L286.455 91.2479Z" fill="#422618"/>
<path d="M287.617 93.0203C290.687 91.0641 290.973 87.7271 289.541 87.7271C288.109 87.7271 284.358 91.5065 284.794 92.2149C285.23 92.9231 287.617 93.0203 287.617 93.0203Z" fill="#422618"/>
<path d="M279.786 92.0993C278.696 89.798 279.716 87.3696 280.987 87.7265C282.259 88.0837 283.104 91.1628 283.104 91.1628L279.786 92.0993Z" fill="#422618"/>
<path d="M281.952 92.6749C281.952 89.7598 283.434 86.7295 284.379 86.7295C285.325 86.7295 285.72 90.7703 285.72 91.7542C285.72 92.7382 284.855 93.1571 284.855 93.1571L281.952 92.6749Z" fill="#422618"/>
<path d="M285.034 108.105C284.935 108 284.735 107.975 284.623 108.079C284.077 108.587 283.196 108.615 282.646 108.094C282.536 107.99 282.359 107.967 282.236 108.068C282.123 108.161 282.097 108.348 282.208 108.453C282.573 108.799 283.074 109.021 283.599 109.023C284.12 109.026 284.634 108.836 285.006 108.49C285.118 108.386 285.142 108.221 285.034 108.105Z" fill="#1C100A"/>
</g>
<mask id="mask2_585_10460" style="mask-type:luminance" maskUnits="userSpaceOnUse" x="263" y="82" width="41" height="39">
<path d="M297.37 115.073C305.223 107.713 305.223 95.78 297.37 88.4197C289.517 81.0595 276.785 81.0595 268.933 88.4197C261.08 95.7799 261.08 107.713 268.933 115.073C276.785 122.434 289.517 122.434 297.37 115.073Z" fill="white"/>
</mask>
<g mask="url(#mask2_585_10460)">
<path d="M283.157 121.634C271.455 121.634 261.935 112.711 261.935 101.743C261.935 90.7747 271.455 81.8516 283.157 81.8516C294.859 81.8516 304.379 90.7747 304.379 101.743C304.379 112.711 294.859 121.634 283.157 121.634ZM283.157 83.9395C272.683 83.9395 264.162 91.9259 264.162 101.743C264.162 111.56 272.683 119.546 283.157 119.546C293.631 119.546 302.152 111.56 302.152 101.743C302.152 91.9259 293.631 83.9395 283.157 83.9395Z" fill="#1C4CC3"/>
</g>
<path d="M283.157 152.601H277.599C277.16 152.601 276.804 152.267 276.804 151.855V119.669C276.804 119.257 277.16 118.923 277.599 118.923C278.039 118.923 278.395 119.257 278.395 119.669V151.109H283.156C283.596 151.109 283.952 151.443 283.952 151.855C283.952 152.267 283.596 152.601 283.157 152.601Z" fill="#1C4CC3"/>
<path d="M283.157 141.055H277.599C277.16 141.055 276.804 140.721 276.804 140.31C276.804 139.898 277.16 139.564 277.599 139.564H283.157C283.596 139.564 283.952 139.898 283.952 140.31C283.952 140.721 283.596 141.055 283.157 141.055Z" fill="#1C4CC3"/>
<path d="M283.157 129.518H277.599C277.16 129.518 276.804 129.184 276.804 128.772C276.804 128.361 277.16 128.027 277.599 128.027H283.157C283.596 128.027 283.952 128.361 283.952 128.772C283.952 129.184 283.596 129.518 283.157 129.518Z" fill="#1C4CC3"/>
<rect x="288.462" y="136.737" width="36.1811" height="6.57838" rx="0.939769" fill="#FF5E62" fill-opacity="0.1"/>
<rect x="288.462" y="136.737" width="9.39769" height="6.57838" rx="0.939769" fill="#FF5E62"/>
<path d="M331.581 139.13V138.397H332.858V141.761H332.038V139.13H331.581ZM333.314 139.13V138.397H334.59V141.761H333.77V139.13H333.314ZM335.065 139.245C335.065 138.996 335.135 138.804 335.277 138.669C335.421 138.534 335.607 138.466 335.834 138.466C336.062 138.466 336.246 138.534 336.387 138.669C336.529 138.804 336.599 138.996 336.599 139.245C336.599 139.494 336.529 139.686 336.387 139.821C336.246 139.956 336.062 140.024 335.834 140.024C335.607 140.024 335.421 139.956 335.277 139.821C335.135 139.686 335.065 139.494 335.065 139.245ZM338.194 138.517L336.42 141.761H335.659L337.433 138.517H338.194ZM335.83 138.927C335.682 138.927 335.609 139.033 335.609 139.245C335.609 139.454 335.682 139.558 335.83 139.558C335.9 139.558 335.956 139.532 335.996 139.48C336.036 139.428 336.055 139.349 336.055 139.245C336.055 139.033 335.98 138.927 335.83 138.927ZM337.258 141.033C337.258 140.784 337.329 140.592 337.47 140.457C337.611 140.322 337.796 140.254 338.023 140.254C338.25 140.254 338.435 140.322 338.576 140.457C338.717 140.592 338.788 140.784 338.788 141.033C338.788 141.282 338.717 141.474 338.576 141.609C338.435 141.744 338.25 141.811 338.023 141.811C337.796 141.811 337.611 141.744 337.47 141.609C337.329 141.474 337.258 141.282 337.258 141.033ZM338.018 140.715C337.948 140.715 337.893 140.741 337.853 140.793C337.816 140.845 337.797 140.925 337.797 141.033C337.797 141.242 337.871 141.346 338.018 141.346C338.089 141.346 338.144 141.32 338.184 141.268C338.224 141.215 338.244 141.137 338.244 141.033C338.244 140.928 338.224 140.85 338.184 140.798C338.144 140.742 338.089 140.715 338.018 140.715Z" fill="#FF5E62"/>
<rect x="289.106" y="148.249" width="36.1811" height="6.57838" rx="0.939769" fill="#8AB424" fill-opacity="0.1"/>
<rect x="289.106" y="148.483" width="28.1931" height="6.57838" rx="0.939769" fill="#8AB424"/>
<path d="M330.747 151.231C330.458 151.078 330.313 150.837 330.313 150.508C330.313 150.342 330.356 150.191 330.443 150.056C330.529 149.918 330.659 149.809 330.834 149.729C331.009 149.646 331.224 149.605 331.479 149.605C331.734 149.605 331.948 149.646 332.12 149.729C332.295 149.809 332.425 149.918 332.511 150.056C332.597 150.191 332.64 150.342 332.64 150.508C332.64 150.674 332.601 150.818 332.521 150.941C332.444 151.064 332.339 151.161 332.207 151.231C332.373 151.311 332.501 151.422 332.59 151.563C332.679 151.701 332.723 151.864 332.723 152.052C332.723 152.27 332.668 152.459 332.558 152.618C332.447 152.775 332.296 152.895 332.106 152.978C331.919 153.061 331.71 153.102 331.479 153.102C331.249 153.102 331.038 153.061 330.848 152.978C330.661 152.895 330.512 152.775 330.401 152.618C330.29 152.459 330.235 152.27 330.235 152.052C330.235 151.861 330.28 151.697 330.369 151.558C330.458 151.417 330.584 151.308 330.747 151.231ZM331.876 150.628C331.876 150.502 331.839 150.405 331.765 150.337C331.694 150.267 331.599 150.231 331.479 150.231C331.359 150.231 331.263 150.267 331.189 150.337C331.118 150.408 331.083 150.506 331.083 150.632C331.083 150.752 331.12 150.847 331.194 150.918C331.267 150.986 331.363 151.019 331.479 151.019C331.596 151.019 331.691 150.984 331.765 150.913C331.839 150.843 331.876 150.747 331.876 150.628ZM331.479 151.572C331.335 151.572 331.218 151.612 331.129 151.692C331.04 151.769 330.995 151.876 330.995 152.015C330.995 152.144 331.038 152.25 331.124 152.333C331.214 152.416 331.332 152.457 331.479 152.457C331.627 152.457 331.742 152.416 331.825 152.333C331.911 152.25 331.954 152.144 331.954 152.015C331.954 151.879 331.909 151.772 331.82 151.692C331.734 151.612 331.621 151.572 331.479 151.572ZM335.55 150.36H334.112V150.996C334.174 150.929 334.26 150.873 334.37 150.83C334.481 150.787 334.601 150.766 334.73 150.766C334.96 150.766 335.151 150.818 335.301 150.923C335.455 151.027 335.567 151.162 335.638 151.328C335.708 151.494 335.744 151.674 335.744 151.867C335.744 152.227 335.642 152.512 335.439 152.724C335.237 152.933 334.951 153.038 334.582 153.038C334.337 153.038 334.123 152.996 333.942 152.913C333.761 152.827 333.621 152.709 333.523 152.558C333.424 152.408 333.371 152.234 333.361 152.038H334.131C334.149 152.133 334.194 152.213 334.264 152.277C334.335 152.339 334.432 152.369 334.555 152.369C334.699 152.369 334.807 152.323 334.877 152.231C334.948 152.139 334.983 152.016 334.983 151.863C334.983 151.712 334.946 151.597 334.873 151.517C334.799 151.437 334.691 151.397 334.55 151.397C334.446 151.397 334.36 151.423 334.292 151.476C334.225 151.525 334.18 151.591 334.158 151.674H333.398V149.669H335.55V150.36ZM336.114 150.522C336.114 150.273 336.185 150.081 336.326 149.946C336.47 149.811 336.656 149.743 336.884 149.743C337.111 149.743 337.295 149.811 337.437 149.946C337.578 150.081 337.648 150.273 337.648 150.522C337.648 150.771 337.578 150.963 337.437 151.098C337.295 151.233 337.111 151.3 336.884 151.3C336.656 151.3 336.47 151.233 336.326 151.098C336.185 150.963 336.114 150.771 336.114 150.522ZM339.243 149.794L337.469 153.038H336.708L338.483 149.794H339.243ZM336.879 150.204C336.732 150.204 336.658 150.31 336.658 150.522C336.658 150.731 336.732 150.835 336.879 150.835C336.95 150.835 337.005 150.809 337.045 150.757C337.085 150.704 337.105 150.626 337.105 150.522C337.105 150.31 337.029 150.204 336.879 150.204ZM338.307 152.31C338.307 152.061 338.378 151.869 338.519 151.734C338.661 151.598 338.845 151.531 339.072 151.531C339.3 151.531 339.484 151.598 339.625 151.734C339.767 151.869 339.837 152.061 339.837 152.31C339.837 152.558 339.767 152.75 339.625 152.886C339.484 153.021 339.3 153.088 339.072 153.088C338.845 153.088 338.661 153.021 338.519 152.886C338.378 152.75 338.307 152.558 338.307 152.31ZM339.068 151.992C338.997 151.992 338.942 152.018 338.902 152.07C338.865 152.122 338.847 152.202 338.847 152.31C338.847 152.518 338.92 152.623 339.068 152.623C339.138 152.623 339.194 152.597 339.234 152.545C339.274 152.492 339.293 152.414 339.293 152.31C339.293 152.205 339.274 152.127 339.234 152.075C339.194 152.019 339.138 151.992 339.068 151.992Z" fill="#8AB424"/>
<rect x="288.938" y="125.435" width="36.1811" height="6.57838" rx="0.939769" fill="#FBC51F" fill-opacity="0.1"/>
<rect x="288.938" y="125.435" width="19.7351" height="6.57838" rx="0.939769" fill="#FBC51F"/>
<path d="M330.044 129.39V128.754L331.5 126.672H332.38V128.708H332.758V129.39H332.38V129.989H331.592V129.39H330.044ZM331.648 127.538L330.874 128.708H331.648V127.538ZM333.061 127.358V126.625H334.338V129.989H333.517V127.358H333.061ZM334.812 127.473C334.812 127.225 334.883 127.033 335.024 126.897C335.168 126.762 335.354 126.695 335.582 126.695C335.809 126.695 335.993 126.762 336.135 126.897C336.276 127.033 336.347 127.225 336.347 127.473C336.347 127.722 336.276 127.914 336.135 128.049C335.993 128.184 335.809 128.252 335.582 128.252C335.354 128.252 335.168 128.184 335.024 128.049C334.883 127.914 334.812 127.722 334.812 127.473ZM337.941 126.745L336.167 129.989H335.407L337.181 126.745H337.941ZM335.577 127.155C335.43 127.155 335.356 127.261 335.356 127.473C335.356 127.682 335.43 127.787 335.577 127.787C335.648 127.787 335.703 127.761 335.743 127.708C335.783 127.656 335.803 127.578 335.803 127.473C335.803 127.261 335.728 127.155 335.577 127.155ZM337.005 129.261C337.005 129.012 337.076 128.82 337.217 128.685C337.359 128.55 337.543 128.482 337.77 128.482C337.998 128.482 338.182 128.55 338.323 128.685C338.465 128.82 338.535 129.012 338.535 129.261C338.535 129.51 338.465 129.702 338.323 129.837C338.182 129.972 337.998 130.04 337.77 130.04C337.543 130.04 337.359 129.972 337.217 129.837C337.076 129.702 337.005 129.51 337.005 129.261ZM337.766 128.943C337.695 128.943 337.64 128.969 337.6 129.022C337.563 129.074 337.545 129.154 337.545 129.261C337.545 129.47 337.618 129.575 337.766 129.575C337.836 129.575 337.892 129.548 337.932 129.496C337.972 129.444 337.992 129.366 337.992 129.261C337.992 129.157 337.972 129.078 337.932 129.026C337.892 128.971 337.836 128.943 337.766 128.943Z" fill="#FBC51F"/>
<g filter="url(#filter0_d_585_10460)">
<path d="M197.533 91.152C197.794 91.152 198.049 91.0633 198.26 90.8993C201.575 88.331 206.49 86.7647 211.596 87.6453C212.332 87.7721 212.733 88.6076 212.458 89.3498C211.655 91.5228 211.108 93.0626 210.752 94.5114C210.422 95.8556 210.928 97.2271 211.758 98.2961C214.393 101.695 215.977 106.053 215.977 110.806V113.944C215.977 124.799 207.719 133.598 197.533 133.598H177.245C167.058 133.598 158.801 124.799 158.801 113.944V110.806C158.801 99.9515 167.058 91.152 177.245 91.152H197.533Z" fill="url(#paint0_linear_585_10460)" stroke="white" stroke-width="0.318344"/>
<path d="M164.972 112.853C164.972 105.175 170.99 98.9502 178.414 98.9502H196.366C203.79 98.9502 209.808 105.175 209.808 112.853C209.808 120.531 203.79 126.756 196.366 126.756H178.414C170.99 126.756 164.972 120.531 164.972 112.853Z" fill="white"/>
<path d="M180.983 115.649C180.983 119.411 178.905 117.713 175.369 117.713C171.834 117.713 168.179 119.411 168.179 115.649C168.179 111.886 171.045 108.836 174.581 108.836C178.116 108.836 180.983 111.886 180.983 115.649Z" fill="#383838"/>
<path d="M186.279 115.649C186.279 119.411 188.357 117.713 191.892 117.713C195.428 117.713 199.083 119.411 199.083 115.649C199.083 111.886 196.217 108.836 192.681 108.836C189.145 108.836 186.279 111.886 186.279 115.649Z" fill="#383838"/>
<ellipse cx="2.74037" cy="1.0088" rx="2.74037" ry="1.0088" transform="matrix(-1 0 0 1 173.189 111.69)" fill="white"/>
<ellipse cx="2.74037" cy="1.0088" rx="2.74037" ry="1.0088" transform="matrix(-1 0 0 1 191.985 111.69)" fill="white"/>
</g>
<path d="M169.594 145.13C169.904 144.224 169.375 143.243 168.465 143.036L159.412 139.738C158.587 139.55 157.944 138.886 157.763 138.035L156.228 130.797C156.077 130.086 155.422 129.614 154.722 129.712C153.93 129.823 153.403 130.613 153.587 131.415L155.736 140.801C155.926 141.631 156.558 142.277 157.366 142.465L167.786 146.158C168.555 146.337 169.332 145.895 169.594 145.13Z" fill="#AA610B"/>
<ellipse cx="5.07023" cy="5.1852" rx="5.07023" ry="5.1852" transform="matrix(-1 0 0 1 160.464 126.399)" fill="#FFA033"/>
<ellipse cx="5.07023" cy="5.1852" rx="5.07023" ry="5.1852" transform="matrix(-1 0 0 1 160.464 126.399)" fill="#EE8E20"/>
<path d="M153.31 126.863C151.549 127.676 150.322 129.485 150.322 131.589C150.322 134.453 152.592 136.775 155.393 136.775C156.735 136.775 157.955 136.239 158.862 135.368C158.226 135.662 157.521 135.828 156.777 135.828C153.977 135.827 151.708 133.506 151.708 130.642C151.708 129.151 152.324 127.809 153.31 126.863Z" fill="#CE7107"/>
<path d="M198.865 143.711C198.968 142.659 200.018 142.013 201.107 142.332L212.541 144.307C213.528 144.596 214.55 144.321 215.158 143.602L220.337 137.482C220.845 136.882 221.786 136.799 222.499 137.293C223.306 137.852 223.495 138.916 222.907 139.586L216.02 147.43C215.411 148.124 214.41 148.388 213.441 148.109L200.33 145.735C199.408 145.47 198.779 144.6 198.865 143.711Z" fill="#AA610B"/>
<ellipse cx="223.32" cy="137.393" rx="5.07023" ry="5.1852" transform="rotate(180 223.32 137.393)" fill="#FFA033"/>
<path d="M223.087 142.571C223.808 141.675 224.241 140.527 224.241 139.276C224.241 136.492 222.096 134.221 219.403 134.097C220.333 132.943 221.741 132.206 223.318 132.206C226.119 132.206 228.389 134.527 228.389 137.391C228.389 140.255 226.119 142.577 223.318 142.577C223.241 142.577 223.164 142.574 223.087 142.571Z" fill="#EE8E20"/>
<g filter="url(#filter1_d_585_10460)">
<path d="M167.77 144.012C167.995 139.58 171.877 136.334 176.295 135.918C184.097 135.182 190.499 135.137 198.68 135.855C203.523 136.28 207.588 140.12 207.405 144.978C207.211 150.108 205.713 154.128 202.005 158.435C199.348 161.523 195.279 162.892 191.206 162.892H184.622C180.566 162.892 176.549 161.511 173.799 158.53C168.985 153.311 167.514 149.07 167.77 144.012Z" fill="url(#paint1_linear_585_10460)"/>
<path d="M201.926 137.546C201.926 138.195 195.593 138.721 187.781 138.721C179.969 138.721 173.636 138.195 173.636 137.546C173.636 136.897 179.969 135.93 187.781 135.93C195.593 135.93 201.926 136.897 201.926 137.546Z" fill="#FFE1BE"/>
<path opacity="0.04" d="M175.4 136.005C175.371 136.223 175.348 136.443 175.337 136.667C175.08 141.725 176.551 145.966 181.365 151.185C184.115 154.166 188.133 155.547 192.188 155.547H198.772C200.875 155.547 202.975 155.18 204.882 154.402C203.997 155.971 202.854 157.52 201.404 159.117C199.054 161.705 195.63 162.892 192.177 162.892H183.661C180.223 162.892 176.832 161.696 174.422 159.188C168.815 153.353 167.337 148.791 167.836 143.113C168.177 139.228 171.469 136.399 175.265 136.018C175.31 136.013 175.355 136.009 175.4 136.005Z" fill="black"/>
</g>
<path d="M222.789 97.4906C222.354 97.1121 222.032 96.4465 221.7 95.7589C220.916 94.1357 219.941 92.1156 217.222 91.9815C217.025 91.9717 216.874 91.8142 216.884 91.6297C216.895 91.4451 217.063 91.3034 217.26 91.313C220.413 91.4686 221.533 93.789 222.351 95.4829C222.953 96.7301 223.272 97.2607 223.794 97.1098C223.982 97.0553 224.182 97.1539 224.24 97.3307C224.299 97.5073 224.193 97.6947 224.005 97.7494C223.502 97.895 223.114 97.7725 222.789 97.4906Z" fill="#9D5A40"/>
<path d="M223.765 97.247C223.642 97.1398 223.613 96.9622 223.706 96.8238L224.724 95.303C224.828 95.1464 225.049 95.0989 225.216 95.1972C225.383 95.295 225.434 95.5019 225.329 95.6586L224.311 97.1794C224.207 97.336 223.986 97.3835 223.819 97.2853C223.8 97.2739 223.782 97.2611 223.765 97.247Z" fill="#9D5A40"/>
<path d="M224.076 97.4157C224.056 97.399 224.038 97.38 224.023 97.3586C223.912 97.2059 223.954 96.9978 224.117 96.8935C224.65 96.5525 225.521 95.9919 225.629 95.915C225.765 95.8056 225.969 95.8068 226.104 95.9236C226.249 96.0493 226.257 96.261 226.123 96.3966C226.089 96.4313 226.062 96.4586 224.519 97.4461C224.379 97.5358 224.195 97.5194 224.076 97.4157Z" fill="#9D5A40"/>
<path d="M224.054 97.7164C224.003 97.6721 223.965 97.6135 223.948 97.5451C223.905 97.3647 224.025 97.1854 224.218 97.1444C225.115 96.9537 226.134 96.7179 226.285 96.6538C226.459 96.5664 226.672 96.6289 226.765 96.7924C226.858 96.9553 226.789 97.1599 226.616 97.2471C226.394 97.3587 225.117 97.6397 224.376 97.7973C224.256 97.823 224.137 97.7891 224.054 97.7164Z" fill="#9D5A40"/>
<path d="M196.921 91.5162C197.562 89.8057 197.873 89.0097 197.873 89.0097L196.952 88.7021L194.961 82.283L195.842 80.493C195.9 80.3762 196.044 80.3209 196.172 80.3666L220.642 89.0685C220.782 89.1181 220.868 89.2486 220.851 89.3874C220.704 90.6409 219.595 98.5064 219.467 99.4125C219.459 99.469 219.437 99.5223 219.404 99.5701L218.74 100.52L213.58 97.7237L212.437 99.1093C212.437 99.1093 206.548 96.6157 203.187 95.0623C199.825 93.5087 196.921 91.5162 196.921 91.5162Z" fill="#9D5A40"/>
<path d="M218.74 100.52L219.323 90.7162C219.323 90.7162 195.081 82.3869 194.962 82.2833L195.842 80.4937C195.9 80.3767 196.044 80.3214 196.172 80.3671L220.642 89.0686C220.782 89.118 220.868 89.2485 220.851 89.3879C220.704 90.6406 219.595 98.5071 219.468 99.4128C219.459 99.4693 219.438 99.5228 219.404 99.5708L218.74 100.52Z" fill="#E36B46"/>
<path d="M218.74 100.52L213.581 97.7233C213.52 97.539 214.248 95.407 209.922 92.0864C205.595 88.7666 202.116 88.0399 200.065 87.8443C198.014 87.6469 197.873 89.0092 197.873 89.0092L196.952 88.7017L194.962 82.2827C195.082 82.3866 219.323 90.7157 219.323 90.7157L218.74 100.52Z" fill="#9D5A40"/>
<path d="M197.752 89.132C197.705 89.092 197.683 89.0301 197.7 88.9689L197.927 88.11C197.935 88.0792 197.953 88.0514 197.977 88.0294C198.03 87.982 199.311 86.8792 202.796 87.9579C206.156 88.9981 211.121 91.6303 212.875 93.7441C214.582 95.8014 214.392 96.777 214.383 96.8174C214.379 96.8368 214.371 96.8556 214.36 96.8725L213.733 97.8117C213.681 97.8901 213.571 97.9139 213.487 97.8649C213.404 97.8157 213.378 97.7125 213.43 97.6341L214.036 96.7266C214.046 96.5755 214.033 95.6848 212.593 93.9497C210.929 91.9428 205.988 89.2988 202.684 88.2758C199.739 87.3642 198.482 88.0904 198.26 88.2448L198.046 89.0495C198.022 89.1392 197.926 89.1939 197.83 89.1716C197.799 89.1645 197.773 89.1506 197.752 89.132Z" fill="#E36B46"/>
<path d="M226.315 137.299L225.773 136.815C225.255 136.353 225.235 135.578 225.728 135.092L242.25 118.82C242.744 118.334 243.571 118.315 244.089 118.778L244.631 119.261C245.149 119.723 245.17 120.498 244.677 120.984L228.154 137.256C227.661 137.742 226.834 137.761 226.315 137.299Z" fill="#AA4929"/>
<path d="M237.454 128.097L235.028 125.933L242.074 118.994C242.709 118.369 243.774 118.344 244.442 118.939C245.109 119.535 245.135 120.533 244.5 121.158L237.454 128.097Z" fill="#FFB679"/>
<path d="M263.324 100.343C257.078 94.7718 247.196 95.001 241.252 100.855C235.308 106.709 235.553 115.971 241.798 121.542C248.044 127.113 257.926 126.884 263.87 121.03C269.814 115.176 269.569 105.914 263.324 100.343ZM244.36 119.019C239.601 114.773 239.414 107.715 243.943 103.255C248.473 98.7942 256.003 98.6197 260.763 102.865C265.522 107.111 265.709 114.168 261.179 118.629C256.65 123.09 249.12 123.264 244.36 119.019Z" fill="#AA4929"/>
<path d="M132.498 113.372C140.357 113.372 146.729 107.4 146.729 100.034C146.729 92.6671 140.357 86.6953 132.498 86.6953C124.638 86.6953 118.267 92.6671 118.267 100.034C118.267 107.4 124.638 113.372 132.498 113.372Z" fill="white"/>
<path d="M132.497 114.416C124.036 114.416 117.152 107.964 117.152 100.034C117.152 92.1033 124.036 85.6514 132.497 85.6514C140.958 85.6514 147.842 92.1033 147.842 100.034C147.842 107.964 140.958 114.416 132.497 114.416ZM132.497 87.7391C125.264 87.7391 119.38 93.2544 119.38 100.033C119.38 106.812 125.264 112.328 132.497 112.328C139.73 112.328 145.614 106.812 145.614 100.033C145.614 93.2544 139.73 87.7391 132.497 87.7391Z" fill="#1C4CC3"/>
<path d="M128.156 107.195C127.892 107.195 127.679 106.995 127.679 106.748V93.3196C127.679 93.0724 127.892 92.8721 128.156 92.8721C128.42 92.8721 128.633 93.0724 128.633 93.3196V106.748C128.634 106.995 128.42 107.195 128.156 107.195Z" fill="#5E58B5"/>
<path d="M128.156 93.3198L137.355 93.7085C137.439 93.712 137.463 93.8453 137.388 93.889L135.078 95.6794L138.136 97.9933C138.222 97.9992 138.241 98.1393 138.161 98.177L128.156 101.58L128.156 93.3198Z" fill="#E36B46"/>
<path d="M129.529 107.195H126.784C126.52 107.195 126.307 106.995 126.307 106.748C126.307 106.501 126.52 106.3 126.784 106.3H129.529C129.793 106.3 130.006 106.501 130.006 106.748C130.006 106.995 129.793 107.195 129.529 107.195Z" fill="#5E58B5"/>
<path d="M109.483 59.8896C115.041 54.6807 115.041 46.2354 109.483 41.0265C103.926 35.8176 94.9151 35.8176 89.3576 41.0265C83.8001 46.2354 83.8002 54.6806 89.3576 59.8895C94.9151 65.0984 103.926 65.0985 109.483 59.8896Z" fill="white"/>
<path d="M99.4249 64.8368C90.9637 64.8368 84.0801 58.3849 84.0801 50.4545C84.0801 42.5242 90.9637 36.0723 99.4249 36.0723C107.886 36.0723 114.77 42.5242 114.77 50.4545C114.77 58.3849 107.886 64.8368 99.4249 64.8368ZM99.4249 38.1602C92.192 38.1602 86.3077 43.6755 86.3077 50.4545C86.3077 57.2338 92.192 62.7489 99.4249 62.7489C106.658 62.7489 112.542 57.2336 112.542 50.4545C112.542 43.6753 106.658 38.1602 99.4249 38.1602Z" fill="#1C4CC3"/>
<path d="M162.465 59.8895C168.022 54.6806 168.022 46.2353 162.465 41.0265C156.907 35.8176 147.897 35.8176 142.339 41.0265C136.782 46.2354 136.782 54.6806 142.339 59.8895C147.897 65.0984 156.907 65.0984 162.465 59.8895Z" fill="white"/>
<path d="M152.406 64.8368C143.945 64.8368 137.062 58.3849 137.062 50.4545C137.062 42.5242 143.945 36.0723 152.406 36.0723C160.867 36.0723 167.751 42.5242 167.751 50.4545C167.751 58.3849 160.868 64.8368 152.406 64.8368ZM152.406 38.1602C145.173 38.1602 139.289 43.6755 139.289 50.4545C139.289 57.2338 145.174 62.7489 152.406 62.7489C159.639 62.7489 165.523 57.2336 165.523 50.4545C165.524 43.6753 159.639 38.1602 152.406 38.1602Z" fill="#1C4CC3"/>
<path d="M95.0827 57.616C94.819 57.616 94.6055 57.4157 94.6055 57.1686V43.7405C94.6055 43.4933 94.819 43.293 95.0827 43.293C95.3464 43.293 95.5599 43.4933 95.5599 43.7405V57.1688C95.5601 57.4157 95.3464 57.616 95.0827 57.616Z" fill="#5E58B5"/>
<path d="M95.083 43.7402L104.282 44.1289C104.365 44.1325 104.39 44.2655 104.315 44.3095L102.005 46.0998L105.063 48.4137C105.149 48.4196 105.168 48.5597 105.088 48.5974L95.0833 51.9999V43.7402H95.083Z" fill="#E36B46"/>
<path d="M96.4554 57.6157H93.7106C93.4469 57.6157 93.2334 57.4154 93.2334 57.1682C93.2334 56.921 93.4469 56.7207 93.7106 56.7207H96.4554C96.7191 56.7207 96.9327 56.921 96.9327 57.1682C96.9327 57.4154 96.7191 57.6157 96.4554 57.6157Z" fill="#5E58B5"/>
<path d="M155.34 48.5844L152.407 44.8428L149.474 48.5844L145.297 45.3501V56.0675H152.407H159.517V45.3501L155.34 48.5844Z" fill="#FFB679"/>
<path d="M131.066 27.7206C138.926 27.7206 145.297 21.7488 145.297 14.3823C145.297 7.01572 138.926 1.04395 131.066 1.04395C123.206 1.04395 116.835 7.01572 116.835 14.3823C116.835 21.7488 123.206 27.7206 131.066 27.7206Z" fill="white"/>
<path d="M131.065 28.7646C122.604 28.7646 115.721 22.3127 115.721 14.3823C115.721 6.45189 122.604 0 131.065 0C139.527 0 146.41 6.45189 146.41 14.3823C146.41 22.3127 139.527 28.7646 131.065 28.7646ZM131.065 2.0879C123.833 2.0879 117.948 7.60325 117.948 14.3823C117.948 21.1613 123.833 26.6766 131.065 26.6766C138.298 26.6766 144.183 21.1613 144.183 14.3823C144.183 7.60325 138.298 2.0879 131.065 2.0879Z" fill="#1C4CC3"/>
<path d="M137.003 5.15771C137.003 5.15771 131.454 5.15771 131.155 5.15771C130.857 5.15771 125.308 5.15771 125.308 5.15771C125.308 5.15771 125.248 14.6576 131.155 15.2607C137.063 14.6574 137.003 5.15771 137.003 5.15771Z" fill="#FFB679"/>
<path d="M132.37 21.9426V18.3983H132.433C132.842 18.3983 133.174 18.0874 133.174 17.7039V17.1213C133.174 16.7377 132.842 16.4268 132.433 16.4268H132.391V13.8262L131.165 14.0622L129.94 13.8262V16.4268H129.898C129.488 16.4268 129.157 16.7377 129.157 17.1213V17.7039C129.157 18.0874 129.488 18.3983 129.898 18.3983H129.96V21.9426C127.694 22.1523 127.694 23.9141 127.694 23.9141H130.867H131.464H134.616C134.616 23.9141 134.636 22.1523 132.37 21.9426Z" fill="#FFB679"/>
<path d="M126.636 12.1205C127.979 12.1205 129.067 11.1002 129.067 9.84152C129.067 8.58285 127.979 7.5625 126.636 7.5625C125.293 7.5625 124.204 8.58285 124.204 9.84152C124.204 11.1002 125.293 12.1205 126.636 12.1205Z" fill="#FFB679"/>
<path d="M135.496 12.1205C136.839 12.1205 137.928 11.1002 137.928 9.84152C137.928 8.58285 136.839 7.5625 135.496 7.5625C134.153 7.5625 133.064 8.58285 133.064 9.84152C133.064 11.1002 134.153 12.1205 135.496 12.1205Z" fill="#FFB679"/>
<path d="M137.047 6.08065H125.263C124.902 6.08065 124.606 5.80389 124.606 5.46538C124.606 5.12706 124.902 4.8501 125.263 4.8501H137.047C137.408 4.8501 137.704 5.12687 137.704 5.46538C137.704 5.80369 137.409 6.08065 137.047 6.08065Z" fill="#FFB679"/>
<path d="M133.979 86.756H132.388V84.5321C132.388 79.4239 127.954 75.2682 122.504 75.2682H109.064C102.737 75.2682 97.5889 70.4434 97.5889 64.5129V63.7573H99.1801V64.5129C99.1801 69.6212 103.614 73.7768 109.064 73.7768H122.504C128.832 73.7768 133.979 78.6016 133.979 84.5321L133.979 86.756Z" fill="#1C4CC3"/>
<path d="M138.176 49.709H113.656V51.2004H138.176V49.709Z" fill="#1C4CC3"/>
<path d="M166.638 51.2004V49.709C170.397 49.709 173.455 46.8425 173.455 43.319V23.6917C173.455 17.7226 168.274 12.8664 161.906 12.8664H145.093V11.375H161.906C169.152 11.375 175.047 16.9001 175.047 23.6915V43.3192C175.046 47.665 171.274 51.2004 166.638 51.2004Z" fill="#1C4CC3"/>
<path d="M174.251 63.524H164.361C163.922 63.524 163.565 63.1902 163.565 62.7783C163.565 62.3665 163.922 62.0327 164.361 62.0327H174.251C174.69 62.0327 175.047 62.3667 175.047 62.7783C175.047 63.19 174.691 63.524 174.251 63.524Z" fill="#1C4CC3"/>
<path d="M170.268 67.2154H164.361C163.922 67.2154 163.565 66.8816 163.565 66.4697C163.565 66.0579 163.922 65.7241 164.361 65.7241H170.268C170.708 65.7241 171.064 66.0579 171.064 66.4697C171.064 66.8816 170.708 67.2154 170.268 67.2154Z" fill="#1C4CC3"/>
<path d="M159.122 20.9683H149.232C148.793 20.9683 148.437 20.6345 148.437 20.2227C148.437 19.8109 148.793 19.4771 149.232 19.4771H159.122C159.562 19.4771 159.918 19.8109 159.918 20.2227C159.918 20.6343 159.562 20.9683 159.122 20.9683Z" fill="#1C4CC3"/>
<path d="M155.139 24.6597H149.232C148.793 24.6597 148.437 24.3259 148.437 23.9141C148.437 23.5023 148.793 23.1685 149.232 23.1685H155.139C155.579 23.1685 155.935 23.5023 155.935 23.9141C155.935 24.3259 155.579 24.6597 155.139 24.6597Z" fill="#1C4CC3"/>
<path d="M88.6857 66.544H78.7956C78.3562 66.544 78 66.2102 78 65.7984C78 65.3865 78.3562 65.0527 78.7956 65.0527H88.6857C89.125 65.0527 89.4812 65.3865 89.4812 65.7984C89.4814 66.2102 89.125 66.544 88.6857 66.544Z" fill="#1C4CC3"/>
<path d="M84.7028 70.2354H78.7956C78.3562 70.2354 78 69.9016 78 69.4898C78 69.0779 78.3562 68.7441 78.7956 68.7441H84.7028C85.1422 68.7441 85.4983 69.0779 85.4983 69.4898C85.4983 69.9014 85.1422 70.2354 84.7028 70.2354Z" fill="#1C4CC3"/>
<path d="M137.442 118.471H127.552C127.113 118.471 126.757 118.137 126.757 117.726C126.757 117.314 127.113 116.98 127.552 116.98H137.442C137.882 116.98 138.238 117.314 138.238 117.726C138.238 118.137 137.882 118.471 137.442 118.471Z" fill="#1C4CC3"/>
<path d="M133.46 122.163H127.552C127.113 122.163 126.757 121.829 126.757 121.417C126.757 121.005 127.113 120.671 127.552 120.671H133.46C133.899 120.671 134.255 121.005 134.255 121.417C134.255 121.829 133.899 122.163 133.46 122.163Z" fill="#1C4CC3"/>
<mask id="mask3_585_10460" style="mask-type:luminance" maskUnits="userSpaceOnUse" x="241" y="99" width="24" height="23">
<path d="M252.978 121.928C259.593 121.928 264.955 116.795 264.955 110.464C264.955 104.133 259.593 99 252.978 99C246.363 99 241 104.133 241 110.464C241 116.795 246.363 121.928 252.978 121.928Z" fill="white"/>
</mask>
<g mask="url(#mask3_585_10460)">
<path d="M258.481 127.931C268.589 127.931 276.783 120.251 276.783 110.778C276.783 101.304 268.589 93.624 258.481 93.624C248.374 93.624 240.18 101.304 240.18 110.778C240.18 120.251 248.374 127.931 258.481 127.931Z" fill="white"/>
<path d="M260.179 126.288C266.648 126.288 271.892 124.205 271.892 121.634C271.892 119.064 266.648 116.981 260.179 116.981C253.709 116.981 248.465 119.064 248.465 121.634C248.465 124.205 253.709 126.288 260.179 126.288Z" fill="#FFB679"/>
<path d="M257.323 118.58C257.323 118.58 256.106 118.166 255.908 119.166C255.709 120.167 259.199 121.866 261.061 121.866C262.923 121.866 266.486 119.263 264.797 118.831L257.323 118.58Z" fill="#BD561B"/>
<path d="M252.793 110.387C254.031 110.387 255.035 109.447 255.035 108.286C255.035 107.126 254.031 106.186 252.793 106.186C251.555 106.186 250.552 107.126 250.552 108.286C250.552 109.447 251.555 110.387 252.793 110.387Z" fill="#BD561B"/>
<path d="M257.274 115.305L257.055 119.446C257.123 120.335 264.485 120.497 264.417 119.608V115.001L257.274 115.305Z" fill="#BD561B"/>
<path d="M264.416 117.484V115.001L257.273 115.305L257.11 118.383C260.489 118.951 263.012 118.175 264.416 117.484Z" fill="#8A3A0C"/>
<path d="M268.892 107.323C268.157 112.705 265.61 117.049 260.653 117.049C255.696 117.049 252.196 111.496 252.196 106.075C252.196 100.654 255.696 97.4189 260.653 97.4189C265.61 97.4189 269.743 101.092 268.892 107.323Z" fill="#BD561B"/>
<path d="M261.286 110.68C261.288 110.683 261.289 110.685 261.291 110.688C261.29 110.685 261.288 110.682 261.286 110.68Z" fill="#8A3A0C"/>
<path d="M261.906 110.438C261.718 110.117 261.351 109.912 260.963 109.896C260.565 109.879 260.184 110.089 259.975 110.4C259.883 110.537 259.94 110.748 260.094 110.824C260.257 110.905 260.448 110.86 260.547 110.713C260.554 110.703 260.561 110.694 260.568 110.684C260.587 110.665 260.605 110.645 260.625 110.627C260.633 110.62 260.641 110.614 260.65 110.607C260.675 110.593 260.699 110.577 260.725 110.564C260.735 110.559 260.746 110.554 260.756 110.549C260.783 110.541 260.809 110.532 260.837 110.526C260.849 110.523 260.862 110.521 260.875 110.518C260.904 110.517 260.933 110.516 260.962 110.517C260.97 110.517 260.978 110.518 260.986 110.518C261.014 110.525 261.043 110.53 261.071 110.539C261.08 110.542 261.09 110.545 261.099 110.548C261.124 110.56 261.149 110.572 261.174 110.586C261.183 110.592 261.192 110.597 261.2 110.603C261.199 110.601 261.197 110.6 261.196 110.598C261.198 110.6 261.201 110.602 261.202 110.604C261.204 110.605 261.206 110.606 261.207 110.607C261.239 110.628 261.226 110.624 261.212 110.613C261.228 110.627 261.247 110.641 261.262 110.656C261.27 110.664 261.278 110.672 261.286 110.68C261.284 110.677 261.282 110.675 261.281 110.672C261.282 110.675 261.285 110.677 261.286 110.68C261.287 110.681 261.288 110.682 261.289 110.683C261.315 110.712 261.303 110.703 261.291 110.689C261.304 110.71 261.322 110.731 261.334 110.752C261.417 110.894 261.64 110.952 261.787 110.863C261.941 110.77 261.995 110.591 261.906 110.438Z" fill="#8A3A0C"/>
<path d="M261.201 110.603C261.205 110.606 261.209 110.609 261.213 110.612C261.209 110.61 261.206 110.607 261.203 110.604C261.203 110.603 261.202 110.603 261.201 110.603Z" fill="#8A3A0C"/>
<path d="M258.923 105.268C258.388 105.137 255.997 105.361 256.124 106.592C256.139 106.738 256.857 106.451 257.561 106.388C257.944 106.353 258.309 106.38 258.582 106.318C259.358 106.144 259.027 105.294 258.923 105.268Z" fill="#1C100A"/>
<path d="M262.251 105.312C262.78 105.163 265.178 105.307 265.098 106.541C265.089 106.687 264.361 106.425 263.655 106.385C263.27 106.364 262.907 106.403 262.631 106.35C261.849 106.202 262.148 105.341 262.251 105.312Z" fill="#1C100A"/>
<path d="M258.688 108.178C258.688 108.699 258.317 109.121 257.858 109.121C257.4 109.121 257.028 108.699 257.028 108.178C257.028 107.657 257.4 107.235 257.858 107.235C258.317 107.235 258.688 107.657 258.688 108.178Z" fill="#1C100A"/>
<path d="M264.172 108.178C264.172 108.699 263.8 109.121 263.342 109.121C262.883 109.121 262.512 108.699 262.512 108.178C262.512 107.657 262.883 107.235 263.342 107.235C263.8 107.235 264.172 107.657 264.172 108.178Z" fill="#1C100A"/>
<path d="M260.653 97.4189C255.696 97.4189 252.196 100.004 252.196 105.424C252.196 105.701 252.206 105.979 252.224 106.259C252.237 106.364 252.435 107.972 252.557 108.529C252.562 108.553 252.568 108.576 252.573 108.6C252.579 108.594 253.44 106.853 253.748 104.733C253.748 104.733 254.627 101.46 258.56 101.088C258.56 101.088 263.102 104.308 267.213 103.306C267.213 103.306 267.345 107.46 268.613 108.286C268.725 107.755 268.818 107.216 268.892 106.672C269.743 100.441 265.61 97.4189 260.653 97.4189Z" fill="#422618"/>
<path d="M260.94 100.943C257.319 104.337 254.425 107.426 254.07 106.185C253.715 104.944 257.099 100.523 257.224 100.523C257.348 100.524 260.94 100.943 260.94 100.943Z" fill="#422618"/>
<path d="M260.381 100.036C258.887 104.014 259.718 106.307 260.6 105.481C261.481 104.654 262.108 101.733 262.108 101.733L260.381 100.036Z" fill="#422618"/>
<path d="M262.109 101.198C263.333 104.363 264.205 106.774 265.101 105.933C265.998 105.093 264.053 101.198 264.053 101.198H262.109Z" fill="#422618"/>
<path d="M264.797 101.501C267.578 105.365 269.04 106.84 269.738 106.186C270.437 105.531 267.255 101.501 267.131 101.501C267.007 101.501 264.797 101.501 264.797 101.501Z" fill="#1C100A"/>
<path d="M258.046 97.8135C254.364 95.8211 249.229 97.8554 249.229 99.3567C249.229 100.858 252.02 100.383 252.02 100.383C252.02 100.383 248.522 102.425 249.524 104.558C250.083 105.749 253.205 103.473 253.205 103.473C253.205 103.473 248.553 106.774 250.924 107.544C252.257 107.977 254.672 105.514 254.672 105.514L258.046 97.8135Z" fill="#422618"/>
<path d="M256.119 99.6044C253.325 97.824 253.064 94.7866 254.368 94.7866C255.672 94.7866 259.086 98.2266 258.688 98.8713C258.291 99.5158 256.119 99.6044 256.119 99.6044Z" fill="#422618"/>
<path d="M263.181 97.9912C266.863 95.9988 271.997 98.0332 271.997 99.5344C271.997 101.036 270.198 100.721 270.198 100.721C270.198 100.721 274.217 102.603 273.215 104.736C272.657 105.927 268.871 103.494 268.871 103.494C268.871 103.494 270.696 106.186 270.105 106.665C268.561 107.915 264.97 104.171 264.601 103.33L263.181 97.9912Z" fill="#422618"/>
<path d="M264.238 99.6044C267.032 97.824 267.293 94.7866 265.989 94.7866C264.686 94.7866 261.272 98.2266 261.669 98.8713C262.066 99.5158 264.238 99.6044 264.238 99.6044Z" fill="#422618"/>
<path d="M259.083 99.2902C259.083 96.637 260.432 93.8789 261.292 93.8789C262.153 93.8789 262.512 97.5566 262.512 98.4522C262.512 99.3478 261.726 99.729 261.726 99.729L259.083 99.2902Z" fill="#422618"/>
<path d="M261.887 113.334C261.797 113.238 261.615 113.216 261.513 113.311C261.016 113.772 260.214 113.798 259.714 113.324C259.613 113.229 259.453 113.209 259.34 113.301C259.237 113.385 259.214 113.555 259.315 113.651C259.647 113.966 260.103 114.167 260.58 114.17C261.055 114.172 261.523 113.999 261.861 113.685C261.963 113.59 261.985 113.44 261.887 113.334Z" fill="#1C100A"/>
</g>
<path d="M102.81 248.448C159.591 248.448 205.62 246.558 205.62 244.226C205.62 241.895 159.591 240.004 102.81 240.004C46.0297 240.004 0 241.895 0 244.226C0 246.558 46.0297 248.448 102.81 248.448Z" fill="#EAEAEA"/>
<path d="M122.455 233.515H114.924V241.767H122.455V233.515Z" fill="#E6A781"/>
<path d="M187.799 233.515H180.268V241.767H187.799V233.515Z" fill="#E6A781"/>
<path d="M190.398 178.301H112.109V236.151H190.398V178.301Z" fill="#EAEAEA"/>
<path d="M190.398 206.463H112.109V207.988H190.398V206.463Z" fill="#C4C4C4"/>
<path d="M159.692 184.695H142.817C142.456 184.695 142.16 184.418 142.16 184.08C142.16 183.741 142.456 183.464 142.817 183.464H159.692C160.053 183.464 160.349 183.741 160.349 184.08C160.349 184.418 160.054 184.695 159.692 184.695Z" fill="#C4C4C4"/>
<path d="M159.692 212.365H142.817C142.456 212.365 142.16 212.088 142.16 211.75C142.16 211.411 142.456 211.134 142.817 211.134H159.692C160.053 211.134 160.349 211.411 160.349 211.75C160.349 212.088 160.054 212.365 159.692 212.365Z" fill="#C4C4C4"/>
<path d="M131.827 163.933C131.754 163.933 131.685 163.89 131.659 163.821C129.895 159.099 124.953 156.38 124.904 156.353C124.818 156.307 124.789 156.205 124.838 156.125C124.887 156.045 124.997 156.018 125.082 156.064C125.133 156.091 130.188 158.873 131.996 163.711C132.028 163.798 131.979 163.893 131.886 163.923C131.867 163.93 131.847 163.933 131.827 163.933Z" fill="#ABB984"/>
<path d="M136.503 155.684C136.484 155.684 136.465 155.681 136.446 155.675C136.352 155.646 136.302 155.551 136.334 155.464C136.349 155.42 137.956 151.027 141.742 148.883C141.826 148.836 141.935 148.861 141.986 148.94C142.037 149.019 142.01 149.122 141.926 149.169C138.251 151.251 136.687 155.527 136.671 155.57C136.647 155.64 136.577 155.684 136.503 155.684Z" fill="#ABB984"/>
<path d="M137.036 154.545C135.886 153.591 134.187 153.477 132.877 154.249C131.551 155.03 131.319 156.345 131.624 157.629C131.681 158.074 131.85 158.509 132.077 158.902C132.903 160.332 134.554 161.01 136.205 161.175C137.047 161.259 138.052 161.301 138.721 160.732C139.032 160.467 139.193 160.181 139.285 159.876C140.47 158.263 138.371 155.65 137.036 154.545Z" fill="#9BA872"/>
<path d="M125.374 150.962C123.323 149.783 121.22 151.11 120.119 152.797C119.008 154.501 119.236 156.915 121.225 157.954C122.031 158.375 123.05 158.691 123.977 158.518C124.178 158.51 124.372 158.487 124.553 158.445C125.606 158.202 126.337 157.288 126.769 156.407C127.686 154.536 127.372 152.112 125.374 150.962Z" fill="#9BA872"/>
<path d="M135.269 146.386C134.326 146.415 133.34 146.469 132.408 146.301C131.897 146.208 131.219 146.067 130.735 145.767C130.684 145.632 130.614 145.506 130.525 145.401C130.115 144.919 129.242 144.641 128.653 145.051C128.25 145.331 127.997 145.7 127.914 146.09C127.74 146.401 127.683 146.81 127.802 147.101C128.309 148.342 130.083 148.678 131.333 148.948C132.762 149.256 134.218 149.42 135.655 149.06C137.215 148.668 136.93 146.334 135.269 146.386Z" fill="#9BA872"/>
<path d="M145.831 138.011C145.412 137.109 144.462 136.553 143.459 136.352C143.18 136.295 142.897 136.263 142.613 136.248C141.769 136.106 140.858 136.271 140.089 136.664C139.689 136.826 139.308 137.031 138.96 137.28C138.248 137.522 137.695 138.068 137.472 138.764C136.95 140.402 138.335 141.84 139.96 142.213C141.412 142.546 143.363 142.642 144.572 141.691C144.582 141.683 144.592 141.674 144.602 141.666C144.993 141.415 145.332 141.096 145.591 140.7C146.117 139.898 146.233 138.876 145.831 138.011Z" fill="#9BA872"/>
<path d="M130.506 135.746C130.067 134.26 128.675 133.359 127.179 132.912C125.538 132.421 123.416 132.428 121.862 133.194C120.341 133.943 120.418 135.72 120.902 137.155C120.95 137.381 121.023 137.601 121.117 137.803C121.499 138.624 122.265 139.237 123.092 139.659C124.699 140.477 126.694 140.626 128.227 139.643C128.317 139.608 128.406 139.571 128.494 139.531C129.979 138.855 130.962 137.294 130.506 135.746Z" fill="#9BA872"/>
<path d="M116.244 154.836C115.62 154.834 115.007 154.885 114.446 155.045C114.051 154.911 113.593 154.949 113.175 155.125C111.481 155.838 110.091 157.671 110.972 159.392C111.379 160.188 112.641 160.254 113.253 159.667C113.777 159.166 114.327 158.683 114.919 158.252C115.31 157.969 115.824 157.56 116.244 157.562C118.116 157.566 118.118 154.841 116.244 154.836ZM113.553 158.322C113.571 158.326 113.589 158.329 113.606 158.332C113.658 158.564 113.473 158.445 113.553 158.322Z" fill="#9BA872"/>
<path d="M145.939 163.323C144.961 162.57 143.833 162.12 142.552 162.109C141.794 162.103 141.069 162.738 141.104 163.466C141.14 164.223 141.74 164.798 142.552 164.824C142.641 164.825 142.731 164.831 142.82 164.837C142.844 164.842 142.875 164.847 142.916 164.854C143.063 164.89 143.208 164.924 143.352 164.969C143.41 164.987 143.443 164.995 143.463 164.999C143.479 165.011 143.507 165.03 143.558 165.061C143.608 165.091 144.021 165.355 143.884 165.25C144.49 165.717 145.347 165.805 145.939 165.25C146.453 164.768 146.549 163.793 145.939 163.323Z" fill="#9BA872"/>
<path d="M149.449 155.133C149.366 155.102 149.287 155.064 149.21 155.022C149.199 155.011 149.177 154.99 149.142 154.959C149.139 154.949 149.112 154.907 149.059 154.834C149.051 154.81 149.04 154.777 149.025 154.734C148.979 154.557 148.976 154.393 148.995 154.206C149.18 154.059 149.329 153.878 149.411 153.688C149.653 153.125 149.49 152.262 148.818 151.992C147.952 151.643 147.003 151.779 146.499 152.604C146.157 153.163 146.054 153.92 146.083 154.556C146.148 155.972 146.944 157.075 148.33 157.621C148.988 157.88 149.804 157.392 150.044 156.833C150.289 156.262 150.119 155.412 149.449 155.133Z" fill="#9BA872"/>
<path d="M123.602 146.796C123.169 144.375 120.16 142.878 117.906 144.346C116.66 145.157 116.207 146.623 116.474 147.994C116.565 148.459 116.774 148.864 117.066 149.2C117.259 149.691 117.787 150.016 118.336 150.054C118.619 150.157 118.921 150.228 119.235 150.259C119.685 150.303 120.111 150.254 120.504 150.133C120.881 150.108 121.242 150.05 121.552 149.972C122.255 149.797 122.937 149.467 123.331 148.872C123.736 148.26 123.724 147.48 123.602 146.796Z" fill="#9BA872"/>
<path d="M144.076 149.324C144.216 149.465 144.053 149.241 143.993 149.175C143.987 149.153 143.98 149.131 143.974 149.109C143.973 149.09 143.972 149.07 143.97 149.045C143.965 148.987 143.958 148.96 143.952 148.948C143.961 148.937 143.975 148.913 143.996 148.864C144.049 148.708 144.056 148.69 144.016 148.811C144.034 148.785 144.047 148.765 144.059 148.747C144.571 148.196 144.626 147.369 144.05 146.829C143.713 146.513 143.185 146.376 142.71 146.46C142.206 146.314 141.618 146.408 141.25 146.787C140.519 147.541 140.402 148.802 140.684 149.77C141.002 150.863 141.868 151.512 143.048 151.651C143.602 151.717 144.187 151.255 144.377 150.813C144.601 150.292 144.484 149.739 144.076 149.324Z" fill="#9BA872"/>
<path d="M132.362 160.223C132.266 160.223 132.187 160.151 132.184 160.061C132.182 160.01 131.978 154.863 129.792 150.235C127.582 145.558 126.002 137.368 125.986 137.286C125.969 137.195 126.033 137.108 126.13 137.092C126.228 137.076 126.32 137.136 126.337 137.227C126.353 137.309 127.925 145.46 130.118 150.1C132.333 154.789 132.538 159.998 132.54 160.05C132.543 160.142 132.466 160.22 132.368 160.223C132.366 160.223 132.364 160.223 132.362 160.223Z" fill="#ABB984"/>
<path d="M131.622 155.221C131.597 155.221 131.571 155.215 131.546 155.204C131.457 155.165 131.419 155.065 131.462 154.982C131.946 154.029 132.908 147.219 132.456 143.567C132.445 143.475 132.515 143.392 132.612 143.382C132.71 143.372 132.798 143.437 132.81 143.529C133.255 147.119 132.358 153.995 131.784 155.126C131.753 155.186 131.689 155.221 131.622 155.221Z" fill="#ABB984"/>
<path d="M133.033 160.391C133.03 160.391 133.027 160.392 133.024 160.391C132.926 160.387 132.85 160.309 132.855 160.216C133.215 153.24 138.182 143.185 142.054 139.51C142.124 139.444 142.237 139.444 142.306 139.509C142.376 139.574 142.377 139.679 142.308 139.745C138.48 143.378 133.568 153.327 133.211 160.233C133.206 160.322 133.127 160.391 133.033 160.391Z" fill="#ABB984"/>
<path d="M134.092 161.39C134.017 161.39 133.947 161.346 133.923 161.275C133.892 161.187 133.944 161.093 134.037 161.064C136.962 160.177 141.89 153.206 144.538 149.461C145.425 148.205 146.067 147.298 146.39 146.949C146.454 146.88 146.566 146.872 146.641 146.933C146.715 146.993 146.723 147.098 146.658 147.168C146.351 147.5 145.682 148.447 144.835 149.646C141.976 153.69 137.191 160.459 134.147 161.382C134.129 161.388 134.11 161.39 134.092 161.39Z" fill="#ABB984"/>
<path d="M144.756 151.429C142.181 150.193 139.191 148.908 136.265 149.884C135.587 150.111 134.852 150.429 134.337 150.916C133.891 151.34 133.738 151.922 133.869 152.45C133.867 152.458 133.864 152.466 133.861 152.474C133.662 153.154 134.106 153.986 134.873 154.145C136.814 154.547 138.794 154.807 140.779 154.898C142.475 154.976 144.311 154.782 145.277 153.294C145.669 152.69 145.447 151.761 144.756 151.429Z" fill="#ABB984"/>
<path d="M136.149 141.104C134.664 140.571 132.863 140.761 131.285 141.18C130.881 141.208 130.477 141.248 130.072 141.301C129.027 141.437 127.891 141.893 127.881 143.064C127.877 143.611 128.158 144.162 128.665 144.452C129.158 144.732 129.732 144.732 130.29 144.77C131.256 144.836 132.223 144.901 133.19 144.966C134.128 145.03 135.085 145.161 136.019 145.001C136.948 144.842 137.951 144.223 138.071 143.281C138.212 142.168 137.13 141.456 136.149 141.104Z" fill="#ABB984"/>
<path d="M144.305 156.952C143.555 156.738 142.723 157.208 142.52 157.902C142.394 158.33 142.504 158.743 142.762 159.062C142.959 159.475 143.361 159.832 143.902 160.083C144.771 160.485 145.677 160.825 146.602 161.097C147.321 161.308 148.228 160.847 148.39 160.145C148.905 157.905 145.984 157.432 144.305 156.952Z" fill="#ABB984"/>
<path d="M122.774 142.77C122.546 141.993 121.766 141.708 120.988 141.82C118.071 142.239 115.266 143.093 112.612 144.299C111.908 144.62 111.718 145.561 112.092 146.159C112.513 146.835 113.369 146.968 114.077 146.647C116.502 145.547 119.099 144.826 121.76 144.444C122.536 144.332 122.964 143.419 122.774 142.77Z" fill="#ABB984"/>
<path d="M150.205 145.278C149.396 144.494 148.37 143.797 147.356 143.265C146.248 142.684 144.912 142.429 143.794 143.136C142.81 143.758 142.534 144.846 142.894 145.801C142.55 147.015 143.354 148.147 144.382 148.832C145.233 149.4 146.285 149.644 147.302 149.791C148.612 149.981 149.88 149.945 150.578 148.711C151.195 147.622 151.131 146.176 150.205 145.278Z" fill="#ABB984"/>
<path d="M127.295 163.844C127.238 163.844 127.181 163.818 127.147 163.769L125.164 160.975C124.178 159.585 121.46 159.336 118.831 159.094C116.337 158.865 113.981 158.649 113.191 157.45C113.139 157.372 113.165 157.269 113.249 157.22C113.332 157.172 113.442 157.196 113.494 157.274C114.192 158.333 116.462 158.542 118.866 158.762C121.577 159.011 124.381 159.269 125.46 160.79L127.443 163.584C127.498 163.661 127.476 163.765 127.394 163.816C127.363 163.835 127.329 163.844 127.295 163.844Z" fill="#ABB984"/>
<path d="M132.362 162.018C132.304 162.018 132.247 161.992 132.213 161.943C129.536 158.128 127.74 152.349 130.725 147.569C130.775 147.49 130.885 147.463 130.969 147.51C131.054 147.556 131.083 147.659 131.033 147.738C128.13 152.386 129.893 158.029 132.51 161.759C132.565 161.836 132.542 161.94 132.459 161.991C132.429 162.01 132.395 162.018 132.362 162.018Z" fill="#ABB984"/>
<path d="M137.607 163.033C137.583 163.033 137.559 163.028 137.536 163.019C137.446 162.982 137.404 162.884 137.443 162.799C139.124 159.148 140.84 157.172 147.119 154.389C147.208 154.349 147.315 154.385 147.357 154.468C147.399 154.551 147.361 154.651 147.272 154.69C141.097 157.428 139.413 159.362 137.77 162.932C137.741 162.995 137.676 163.033 137.607 163.033Z" fill="#ABB984"/>
<path d="M121.592 150.457C121.556 150.457 121.519 150.447 121.488 150.425C121.371 150.346 118.622 148.431 117.77 143.575C117.754 143.484 117.82 143.398 117.917 143.383C118.014 143.368 118.106 143.429 118.122 143.52C118.948 148.231 121.67 150.136 121.697 150.155C121.777 150.209 121.794 150.313 121.736 150.388C121.702 150.433 121.647 150.457 121.592 150.457Z" fill="#ABB984"/>
<path d="M129.358 150.499C128.234 149.194 126.027 148.887 124.365 148.695C122.509 148.481 120.6 148.291 118.75 148.652C118.122 148.774 117.471 148.989 116.863 149.287C115.356 149.408 113.966 150.478 113.224 151.693C112.672 152.597 112.707 153.696 113.475 154.481C114.062 155.082 114.93 155.302 115.762 155.393C119.326 155.781 123.177 155.227 126.567 154.185C127.425 153.921 128.46 153.683 129.134 153.086C129.922 152.388 130.049 151.301 129.358 150.499Z" fill="#ABB984"/>
<path d="M134.2 177.84H130.169C126.641 177.84 123.781 175.16 123.781 171.854V161.349H140.549V171.89C140.549 175.176 137.706 177.84 134.2 177.84Z" fill="#E6A781"/>
<path d="M137.69 178.301H126.638C126.092 178.301 125.645 177.882 125.645 177.369V176.942H138.686V177.367C138.686 177.88 138.238 178.301 137.69 178.301Z" fill="#E6A781"/>
<path d="M132.819 162.882C132.782 162.882 132.745 162.871 132.713 162.849L128.853 160.191C127.147 159.016 124.997 158.672 122.953 159.248C121.092 159.772 119.585 160.989 119.021 162.424C118.987 162.511 118.885 162.555 118.792 162.523C118.7 162.491 118.653 162.395 118.687 162.309C119.289 160.778 120.884 159.482 122.851 158.928C125.002 158.321 127.267 158.684 129.064 159.922L132.924 162.58C133.004 162.635 133.02 162.739 132.962 162.814C132.928 162.858 132.874 162.882 132.819 162.882Z" fill="#ABB984"/>
<path d="M143.731 163.41C143.64 163.41 143.563 163.345 143.554 163.259C143.392 161.617 142.741 160.46 141.619 159.819C140.096 158.948 138.011 159.221 136.569 159.766C136.477 159.8 136.374 159.759 136.337 159.674C136.3 159.588 136.345 159.491 136.436 159.456C137.958 158.881 140.168 158.598 141.805 159.534C143.028 160.233 143.736 161.476 143.909 163.228C143.918 163.32 143.846 163.401 143.748 163.41C143.742 163.41 143.737 163.41 143.731 163.41Z" fill="#ABB984"/>
<path d="M134.849 162.275C134.76 162.275 134.683 162.213 134.672 162.128C134.66 162.036 134.73 161.953 134.828 161.942C134.896 161.935 141.69 161.161 145.363 158.95C145.446 158.9 145.556 158.922 145.609 159C145.662 159.078 145.639 159.181 145.556 159.231C141.813 161.484 134.939 162.267 134.87 162.274C134.863 162.275 134.856 162.275 134.849 162.275Z" fill="#ABB984"/>
<path d="M136.183 167.464C136.14 167.464 136.097 167.449 136.063 167.42C135.99 167.358 135.985 167.253 136.051 167.184C138.271 164.9 137.759 162.005 136.556 160.878C136.487 160.813 136.487 160.707 136.556 160.642C136.626 160.576 136.739 160.576 136.808 160.642C138.314 162.053 138.482 165.179 136.315 167.409C136.28 167.445 136.231 167.464 136.183 167.464Z" fill="#ABB984"/>
<path d="M139.731 160.345C139.763 159.782 139.259 159.15 138.664 159.032C136.933 158.688 135.155 158.546 133.391 158.689C132.502 158.76 131.611 158.883 130.741 159.071C129.926 159.248 129.083 159.453 128.505 160.06C127.814 160.787 127.843 161.903 128.603 162.577C129.247 163.146 130.107 163.159 130.934 163.116C131.513 163.085 132.091 163.056 132.67 163.026C133.381 163.031 134.091 162.994 134.805 162.914C135.34 162.885 135.875 162.858 136.41 162.827C136.779 162.806 137.121 162.672 137.382 162.457C138.571 162.131 139.662 161.549 139.731 160.345Z" fill="#ABB984"/>
<path d="M139.39 169.827C139.475 169.097 139.18 168.37 138.794 167.748C138.331 167 137.799 166.25 137.042 165.739C135.646 164.796 133.527 165.046 131.946 165.381C130.248 165.74 130.741 168.014 132.283 168.047C132.51 168.246 132.827 168.373 133.235 168.371C133.891 168.367 134.459 168.816 134.988 169.202C135.65 169.684 136.276 170.21 136.885 170.751C137.856 171.613 139.253 171.006 139.39 169.827Z" fill="#ABB984"/>
<path d="M120.261 160.551C119.315 160.239 118.341 160.001 117.354 159.836C116.29 159.66 114.97 159.333 114.118 160.159C113.592 160.668 113.563 161.467 113.95 162.047C113.945 162.406 114.093 162.769 114.361 163.064C115.586 164.406 117.327 165.25 119.126 165.707C120.926 166.164 124.141 166.724 124.638 164.324C125.102 162.079 121.988 161.118 120.261 160.551Z" fill="#ABB984"/>
<path d="M57.3235 191.364L17.2926 190.731L16.9734 189.421C16.8856 189.06 14.8136 180.468 13.9729 169.905C12.8241 155.472 14.5158 144.858 19.0003 138.356C22.3192 133.545 27.0988 131.105 33.2064 131.105C39.3397 131.105 44.4564 133.593 48.4144 138.499C51.3478 142.135 53.6443 147.128 55.24 153.34C56.4933 158.219 57.3239 163.871 57.7087 170.139C58.3608 180.757 57.5211 189.377 57.4851 189.739L57.3235 191.364ZM19.809 187.172L54.3915 187.718C54.8729 180.768 56.0547 153.359 45.9965 140.897C42.6335 136.73 38.4501 134.704 33.2066 134.704C28.0913 134.704 24.2871 136.614 21.5766 140.542C13.0613 152.882 18.4323 180.798 19.809 187.172Z" fill="#DD8B5B"/>
<path d="M24.9602 189.168L18.0713 139.829L21.2753 139.278L28.1642 188.617L24.9602 189.168Z" fill="#DD8B5B"/>
<path d="M36.0557 188.973C35.9884 187.757 32.7787 151.844 31.0908 133.024L34.317 132.667C36.1766 153.402 39.2959 188.278 39.2959 188.892H36.0536C36.0538 188.907 36.0534 188.934 36.0557 188.973Z" fill="#DD8B5B"/>
<path d="M47.4132 191.092L45.1143 139.202L48.4655 141.577L50.6518 190.915L47.4132 191.092Z" fill="#DD8B5B"/>
<path d="M57.2255 190.474L60.3256 242.392C60.363 243.716 58.434 243.911 58.2444 242.553L52.3243 190.853C52.1869 189.504 53.1705 188.298 54.5213 188.161C55.9132 188.015 57.1546 189.078 57.2255 190.474Z" fill="#DD8B5B"/>
<path d="M24.2602 190.854L18.3402 242.553C18.1732 243.867 16.2372 243.763 16.259 242.392L19.3591 190.474C19.431 189.12 20.5888 188.08 21.9445 188.152C23.3426 188.222 24.4051 189.463 24.2602 190.854Z" fill="#DD8B5B"/>
<path d="M82.0405 190.474L85.1406 242.392C85.178 243.716 83.249 243.911 83.0596 242.553L77.1398 190.853C77.0022 189.504 77.9857 188.298 79.3367 188.161C80.7282 188.015 81.9698 189.078 82.0405 190.474Z" fill="#DD8B5B"/>
<path d="M81.5463 217.476H56.2245C55.6721 217.476 55.2246 216.83 55.2246 216.032C55.2246 215.234 55.6721 214.587 56.2245 214.587H81.5463C82.0986 214.587 82.5461 215.234 82.5461 216.032C82.5461 216.83 82.0986 217.476 81.5463 217.476Z" fill="#DD8B5B"/>
<path d="M78.817 192.658H23.9188C20.8375 192.658 18.3164 190.139 18.3164 187.061C18.3164 183.983 20.8375 181.464 23.9188 181.464H78.817C81.8983 181.464 84.4193 183.983 84.4193 187.061C84.4193 190.139 81.8983 192.658 78.817 192.658Z" fill="#FEFBEC"/>
<path d="M81.9988 193.222H20.6883C18.7403 193.222 17.1611 191.913 17.1611 190.298V187.373H81.9988C83.9469 187.373 85.526 188.682 85.526 190.297C85.526 191.913 83.9469 193.222 81.9988 193.222Z" fill="#DD8B5B"/>
<path d="M43.4355 111.387C43.4355 111.387 55.6846 108.44 60.7507 113.188C65.8171 117.937 61.3725 124.4 61.3725 124.4C61.3725 124.4 50.1013 121.174 49.8541 120.773C49.6069 120.371 43.4355 111.387 43.4355 111.387Z" fill="#FFB679"/>
<path d="M57.0759 158.487C57.0759 158.487 92.5353 153.932 94.8196 161.172C98.1014 171.574 83.1513 178.844 83.1513 178.844L62.6521 174.456L40.5625 172.316V163.005L57.0759 158.487Z" fill="#574782"/>
<path d="M81.4017 220.428C80.918 220.348 80.0827 220.036 79.0597 219.605C78.8719 219.526 78.6778 219.443 78.4787 219.356C75.6751 218.141 71.823 216.272 69.7353 215.698C67.9023 215.192 67.5107 213.526 67.9532 211.532C67.9978 211.322 68.0551 211.107 68.1187 210.89C68.3334 210.171 68.6406 209.422 69.0162 208.679C69.1053 208.505 69.1961 208.332 69.2915 208.159C69.4331 207.902 69.5811 207.647 69.7355 207.397C69.7355 207.397 70.4515 204.791 70.4515 204.513C70.4515 204.232 79.1042 205.184 78.7685 206.526C78.619 207.127 78.958 208.841 79.5609 210.72C79.6279 210.926 79.6962 211.133 79.7678 211.34C80.0302 212.101 80.3326 212.872 80.6572 213.592C80.7494 213.8 80.845 214.001 80.942 214.198C81.2124 214.749 81.4956 215.256 81.7852 215.689C81.8998 215.865 82.019 216.028 82.1367 216.177C82.2783 216.356 82.4216 216.514 82.5649 216.648C84.5934 218.549 83.2203 220.731 81.4017 220.428Z" fill="#FFB679"/>
<path d="M70.0233 176.803C67.2057 181.378 64.069 182.695 64.069 182.695L62.4453 176.803H70.0233Z" fill="#3B3058"/>
<path d="M33.9044 156.658C33.9044 156.658 28.5505 178.417 38.4856 181.783C45.2733 184.082 70.743 179.602 70.743 179.602C70.743 179.602 67.6968 200.791 70.1428 206.053C70.7116 207.276 79.7213 208.107 79.7213 206.974C79.7213 205.842 93.8527 171.005 86.1593 167.959C75.8112 163.862 59.5429 166.151 59.5429 166.151L58.385 157.726L33.9044 156.658Z" fill="#574782"/>
<path d="M66.5042 157.285H32.835V138.179L47.0139 116.652C54.3859 116.652 59.686 118.86 61.8086 122.306C62.3687 123.216 62.9239 124.573 63.43 126.196C64.8351 130.714 65.8534 137.3 65.5288 142.067C65.4843 142.73 65.4525 143.388 65.4335 144.035C65.2233 151.233 66.5042 157.285 66.5042 157.285Z" fill="#FFB679"/>
<path d="M88.4528 175.722C88.4243 175.722 88.3954 175.718 88.3666 175.711C88.1974 175.666 88.0989 175.501 88.1462 175.343C88.1752 175.246 90.9889 165.647 86.4525 163.192C81.7841 160.666 55.1936 162.238 54.9257 162.254C54.7509 162.264 54.5989 162.14 54.5876 161.976C54.5765 161.811 54.7095 161.67 54.8848 161.659C55.9873 161.592 81.9374 160.059 86.7708 162.675C91.7336 165.361 88.8828 175.091 88.7592 175.504C88.7196 175.636 88.5918 175.722 88.4528 175.722Z" fill="#3B3058"/>
<path d="M31.7357 157.284C32.2128 157.01 28.3941 163.795 33.6184 164.416C39.301 165.092 64.557 162.645 66.504 160.821C68.451 158.996 67.774 157.296 67.3629 157.073C66.9519 156.851 31.7357 157.284 31.7357 157.284Z" fill="#FFB679"/>
<path d="M140.403 158.996H30.4015C29.171 158.996 28.1641 158.052 28.1641 156.898V156.24C28.1641 155.087 29.1708 154.143 30.4015 154.143H140.403C141.633 154.143 142.64 155.087 142.64 156.24V156.898C142.64 158.052 141.633 158.996 140.403 158.996Z" fill="#9D5A40"/>
<path d="M48.7794 153.455C46.1557 149.092 48.5552 146.072 49.4376 146.072C50.3199 146.072 56.2995 144.73 58.0298 144.73C59.7601 144.73 63.8243 149.119 63.221 150.099C62.6176 151.078 55.4347 153.454 55.4347 153.454L48.7794 153.455Z" fill="#BD561B"/>
<path d="M51.5504 118.424C35.2119 109.798 17.5417 149.755 24.3535 153.225C31.1652 156.696 44.0944 153.225 44.0944 153.225L47.024 153.197L48.7475 142.703L45.904 142.474C45.904 142.474 44.6975 141.258 40.9924 141.258C40.9924 141.258 50.8155 132.436 52.6251 127.569C54.4347 122.702 55.1514 120.325 51.5504 118.424Z" fill="#FFB679"/>
<path d="M54.5104 154.143H89.6103V150.337H52.7366C51.8037 150.337 51.1443 150.968 51.4377 151.579L52.0873 152.934C52.4336 153.656 53.41 154.143 54.5104 154.143Z" fill="#D1D1D1"/>
<path d="M87.8219 124.098C87.3106 124.098 84.797 124.098 83.6468 126.187C82.7494 127.817 73.8467 150.337 73.8467 150.337H78.4477L87.8219 124.098Z" fill="#D1D1D1"/>
<path d="M112.91 123.513H88.0085C87.1375 123.513 86.3681 124.044 86.1097 124.824L75.245 152.302C74.9422 153.216 75.671 154.143 76.6918 154.143H102.568C103.461 154.143 104.247 153.593 104.502 152.791L114.74 125.813C115.104 124.665 114.187 123.513 112.91 123.513Z" fill="#A1A1A1"/>
<path d="M97.4131 137.245C98.3822 136.843 100.643 137.726 99.0552 138.912C97.4671 140.098 94.2908 140.981 93.6448 140.224C92.9988 139.467 94.91 132.479 96.0136 133.513C97.1172 134.548 97.4131 137.245 97.4131 137.245Z" fill="#C6C6C6"/>
<path d="M67.9573 152.613H72.1111C72.3396 152.613 72.5264 152.438 72.5264 152.224C72.5264 152.01 72.3394 151.834 72.1111 151.834H67.9573C67.729 151.834 67.542 152.01 67.542 152.224C67.542 152.438 67.729 152.613 67.9573 152.613Z" fill="#12416B"/>
<path d="M62.6335 152.613H64.5382C64.6996 152.613 64.832 152.489 64.832 152.338V152.11C64.832 151.959 64.6998 151.834 64.5382 151.834H62.6335C62.472 151.834 62.3398 151.958 62.3398 152.11V152.338C62.3398 152.489 62.472 152.613 62.6335 152.613Z" fill="#12416B"/>
<path d="M59.1725 152.613H61.0773C61.2387 152.613 61.3711 152.489 61.3711 152.338V152.11C61.3711 151.959 61.2389 151.834 61.0773 151.834H59.1725C59.011 151.834 58.8789 151.958 58.8789 152.11V152.338C58.8789 152.489 59.011 152.613 59.1725 152.613Z" fill="#12416B"/>
<path d="M60.6526 120.371L64.126 115.167C64.126 115.167 55.1649 109.595 54.5584 111.981C53.9519 114.368 51.2852 117.004 51.2852 117.004L60.6526 120.371Z" fill="#BD561B"/>
<path d="M58.1264 114.158C57.1711 114.473 58.6739 117.397 62.3395 117.845L64.0696 115.164C64.0696 115.164 59.0817 113.844 58.1264 114.158Z" fill="#8A3A0C"/>
<path d="M72.4984 110.948C70.3215 114.604 64.0699 115.165 64.0699 115.165L55.1449 112.439C55.1449 112.439 47.2909 112.164 47.8748 101.605C48.2631 94.6049 54.3094 89.946 62.1413 91.5776C67.4494 92.6842 70.9406 101.151 72.1642 106.56C72.2723 107.037 72.3631 107.492 72.4363 107.914C72.6973 109.446 72.7225 110.57 72.4984 110.948Z" fill="#BD561B"/>
<path d="M69.7764 102.942C69.7764 102.942 71.8327 102.557 72.1289 103.78C72.379 104.814 70.8122 105.532 70.8122 105.532L69.7764 102.942Z" fill="#BD561B"/>
<path d="M69.4963 102.041C69.7478 102.671 69.5191 103.334 68.985 103.521C68.4511 103.709 67.97 103.275 67.7183 102.646C67.4667 102.016 67.5397 101.428 68.0736 101.24C68.6079 101.053 69.2447 101.411 69.4963 102.041Z" fill="#422618"/>
<path d="M66.1984 101.074C66.041 100.185 66.4874 99.2895 67.6929 99.1452C68.5476 99.0429 68.7897 99.8456 68.3267 99.9933C67.8639 100.141 67.4739 100.123 67.0969 100.715C66.72 101.307 66.2773 101.519 66.1984 101.074Z" fill="#422618"/>
<path d="M64.2327 97.4414C63.1392 103.926 59.0334 105.753 55.9801 105.605C52.9269 105.456 50.5836 102.956 50.7463 100.021C50.9088 97.0858 53.5158 94.8266 56.569 94.9752C59.6221 95.1238 64.7221 94.5383 64.2327 97.4414Z" fill="#422618"/>
<path d="M67.3823 93.2988C63.4208 90.515 58.2198 89.7212 53.5673 91.3093C51.9881 91.8483 50.092 93.1929 49.0118 94.2853C45.1704 98.1704 44.9119 105.152 48.3713 108.502C49.6808 109.77 53.9763 113.075 53.9763 113.075C53.9763 113.075 57.0468 112.612 56.3117 106.974C56.0423 104.908 54.0516 101.055 54.0516 101.055L64.2688 97.0661L67.7311 93.5438L67.3823 93.2988Z" fill="#422618"/>
<path d="M59.4575 107.955C60.8674 107.251 61.4015 105.609 60.6504 104.287C59.8993 102.966 58.1474 102.465 56.7375 103.169C55.3275 103.873 54.7935 105.515 55.5446 106.837C56.2957 108.158 58.0476 108.659 59.4575 107.955Z" fill="#BD561B"/>
<path d="M59.213 106.942C59.1444 106.701 58.9045 106.55 58.64 106.599C58.6145 106.603 58.5889 106.607 58.5634 106.611C58.5588 106.611 58.502 106.618 58.4838 106.618C58.4428 106.618 58.4018 106.617 58.361 106.615C58.3535 106.614 58.3056 106.609 58.274 106.606C58.2581 106.603 58.1956 106.592 58.1852 106.589C58.1454 106.579 58.1063 106.567 58.0676 106.555C58.0291 106.542 57.9923 106.526 57.9543 106.513C57.9421 106.507 57.9302 106.501 57.9185 106.495C57.8468 106.457 57.7799 106.412 57.715 106.365C57.7023 106.355 57.6811 106.337 57.67 106.327C57.6412 106.3 57.6134 106.271 57.5872 106.242C57.5784 106.232 57.5504 106.196 57.542 106.187C57.5253 106.162 57.5086 106.137 57.4937 106.112C57.4737 106.077 57.4578 106.041 57.4386 106.006C57.4337 105.997 57.4304 105.991 57.4277 105.987C57.4262 105.982 57.4249 105.977 57.4222 105.968C57.3988 105.893 57.3785 105.817 57.3664 105.739C57.3631 105.718 57.3637 105.603 57.3609 105.702C57.362 105.663 57.3589 105.624 57.3603 105.584C57.3618 105.545 57.3647 105.506 57.3693 105.466C57.3706 105.455 57.3821 105.408 57.3844 105.395C57.4026 105.331 57.4199 105.267 57.4463 105.205C57.4542 105.186 57.4743 105.151 57.4775 105.145C57.4934 105.119 57.509 105.092 57.5266 105.067C57.5431 105.044 57.5615 105.021 57.5797 104.999C57.5873 104.992 57.6201 104.956 57.6309 104.947C57.6378 104.941 57.6824 104.905 57.7041 104.887C57.7213 104.878 57.7686 104.849 57.778 104.845C57.7914 104.838 57.8052 104.832 57.819 104.827C57.857 104.82 57.9682 104.8 57.8601 104.808C58.1096 104.789 58.3631 104.648 58.365 104.382C58.3666 104.164 58.1784 103.888 57.9099 103.909C57.3576 103.951 56.8954 104.244 56.6397 104.708C56.4017 105.14 56.3283 105.653 56.4713 106.125C56.7618 107.083 57.8055 107.669 58.8468 107.479C59.094 107.434 59.2789 107.173 59.213 106.942Z" fill="#8A3A0C"/>
<path d="M72.4364 107.914C70.7975 107.723 69.7775 106.495 70.1021 106.586C70.7671 106.771 71.6455 106.658 72.1643 106.56C72.2724 107.037 72.3632 107.492 72.4364 107.914Z" fill="#F2F2F2"/>
<path d="M54.6273 107.993C52.8781 110.832 52.4643 114.178 50.9178 113.341C49.3713 112.504 50.3276 106.98 50.3276 106.98C50.3276 106.98 46.0282 112.971 44.8056 111.825C43.5832 110.679 46.281 101.37 48.0515 101.56C49.822 101.75 54.6273 107.993 54.6273 107.993Z" fill="#422618"/>
<path d="M51.8801 97.439C45.9531 98.1801 37.7641 104.883 41.802 105.166C45.8396 105.449 51.0444 102.607 51.0444 102.607L51.8801 97.439Z" fill="#422618"/>
<path d="M64.3091 96.3926C64.6042 103.109 64.4274 105.711 62.6992 105.711C60.971 105.711 60.5059 100.326 60.5059 100.326L64.3091 96.3926Z" fill="#422618"/>
<path d="M55.9332 103.565C58.8838 110.825 58.0048 114.618 56.8369 113.986C55.6687 113.354 53.9521 110.667 53.9521 109.956C53.9521 109.245 54.43 103.565 55.1816 103.565C55.9332 103.565 55.9332 103.565 55.9332 103.565Z" fill="#422618"/>
<path d="M57.1637 98.3208C60.1143 105.581 59.2353 109.374 58.0673 108.742C56.8991 108.109 55.1826 105.423 55.1826 104.712C55.1826 104.001 55.6603 98.321 56.4121 98.321C57.1639 98.321 57.1637 98.3208 57.1637 98.3208Z" fill="#422618"/>
<path d="M62.6492 99.1638C67.5798 97.0924 71.8006 93.8962 70.779 92.9387C69.3459 91.5955 66.1684 92.2499 66.1684 92.2499C66.1684 92.2499 71.2046 86.2469 68.1695 86.6025C65.1347 86.958 62.5293 90.3012 62.6492 90.1889C62.769 90.0766 64.2657 85.9747 61.4387 85.2239C59.6917 84.76 56.5315 88.266 56.5315 88.266C56.5315 88.266 55.182 84.9474 52.4351 86.0931C50.7807 86.783 51.3813 90.2941 51.3813 90.2941C51.3813 90.2941 44.1948 90.1738 43.2458 92.1378C42.2343 94.2318 47.0817 94.9429 47.0817 94.9429C47.0817 94.9429 38.3917 96.4532 39.452 99.3489C40.1264 101.191 44.5665 100.224 44.5665 100.224L43.7797 102.041L54.3319 100.909L62.6492 99.1638Z" fill="#422618"/>
<path d="M50.0713 109.544C50.0684 109.544 50.0655 109.544 50.0623 109.544C49.8867 109.54 49.7484 109.403 49.753 109.238C49.7591 109.031 49.9082 104.151 50.4287 102.131C50.4701 101.971 50.6414 101.872 50.8129 101.911C50.9838 101.949 51.0887 102.111 51.0475 102.271C50.5427 104.231 50.3909 109.204 50.3894 109.254C50.3846 109.416 50.243 109.544 50.0713 109.544Z" fill="#78452C"/>
<path d="M52.87 111.964C52.7886 111.964 52.707 111.935 52.6449 111.877C52.5207 111.76 52.5207 111.571 52.6449 111.455C53.2993 110.842 53.9455 106.484 54.1992 103.881C54.2153 103.717 54.3699 103.595 54.5451 103.611C54.7201 103.626 54.849 103.771 54.8333 103.935C54.764 104.646 54.1264 110.91 53.095 111.877C53.0327 111.935 52.9513 111.964 52.87 111.964Z" fill="#78452C"/>
<path d="M45.776 104.984C45.7223 104.984 45.6679 104.972 45.618 104.945C45.4655 104.863 45.4128 104.681 45.5002 104.538C46.3482 103.152 48.2187 101.395 48.2977 101.321C48.4222 101.204 48.6236 101.204 48.7478 101.321C48.872 101.437 48.8718 101.626 48.7475 101.743C48.7287 101.76 46.8579 103.518 46.0523 104.835C45.9935 104.931 45.8862 104.984 45.776 104.984Z" fill="#78452C"/>
<path d="M45.2081 100.522C45.1196 100.522 45.0314 100.488 44.9684 100.421C44.8528 100.297 44.8659 100.108 44.9983 99.9998C48.0727 97.4758 49.2317 97.1741 49.3536 97.148C49.5262 97.1118 49.6956 97.2119 49.7349 97.3725C49.774 97.533 49.6667 97.693 49.4954 97.7296C49.4894 97.7312 48.3697 98.025 45.4176 100.449C45.3572 100.498 45.2825 100.522 45.2081 100.522Z" fill="#78452C"/>
<path d="M59.3689 102.676C59.2796 102.676 59.191 102.641 59.1281 102.573C59.0204 102.456 56.4857 99.6819 56.2142 96.909C56.1981 96.7449 56.3272 96.5997 56.502 96.5848C56.6814 96.5697 56.8318 96.6906 56.8479 96.8545C57.101 99.4385 59.5844 102.156 59.6093 102.183C59.7243 102.307 59.7096 102.495 59.5768 102.603C59.5168 102.652 59.4428 102.676 59.3689 102.676Z" fill="#78452C"/>
<path d="M61.8714 96.5962C61.4358 96.5962 61.1505 96.585 61.1047 96.583C60.9291 96.5756 60.7934 96.4362 60.8011 96.2718C60.8088 96.1071 60.9598 95.9813 61.1332 95.9872C61.1794 95.9891 65.7675 96.1669 67.5482 94.9969C67.6923 94.9024 67.8905 94.935 67.9915 95.07C68.0923 95.2049 68.0576 95.3909 67.9138 95.4854C66.4101 96.4733 63.315 96.5962 61.8714 96.5962Z" fill="#78452C"/>
<path d="M52.3126 93.31C52.2065 93.31 52.1032 93.2604 52.043 93.1701C52.0191 93.1342 51.4568 92.2712 51.2036 90.3299C51.1822 90.1664 51.3064 90.0176 51.4808 89.9977C51.6536 89.9786 51.814 90.0939 51.8353 90.2576C52.0691 92.0499 52.5788 92.8478 52.5836 92.8557C52.6752 92.9958 52.6288 93.1793 52.4799 93.2655C52.4276 93.2955 52.3699 93.31 52.3126 93.31Z" fill="#78452C"/>
<path d="M61.5168 122.145C58.887 115.793 47.7183 110.224 43.4352 110.834C39.152 111.444 32.5923 113.188 32.8357 121.23C32.9296 124.329 38.6373 131.559 38.6505 131.813C38.9217 137.072 61.5168 122.145 61.5168 122.145Z" fill="#FFB679"/>
<path d="M43.6748 115.387C51.772 113.333 58.4196 122.579 58.4196 122.579C58.4196 122.579 53.1403 118.613 50.4054 117.845C47.6704 117.078 43.6748 115.387 43.6748 115.387Z" fill="#E38F49"/>
<path d="M59.1832 125.958C59.1292 125.958 59.0745 125.946 59.0243 125.918C58.019 125.374 57.3788 124.786 56.701 124.162C55.3214 122.893 53.758 121.454 48.4221 119.774C40.7153 117.348 34.6511 124.216 34.5907 124.285C34.4799 124.413 34.2795 124.433 34.1432 124.329C34.0068 124.225 33.9857 124.037 34.0963 123.909C34.1607 123.835 35.7016 122.071 38.2616 120.594C41.6723 118.627 45.2557 118.148 48.6245 119.209C54.0991 120.932 55.7181 122.422 57.1467 123.736C57.823 124.358 58.4069 124.895 59.3423 125.402C59.4946 125.484 59.5466 125.666 59.4588 125.809C59.4 125.905 59.2932 125.958 59.1832 125.958Z" fill="#E38F49"/>
<path d="M52.1061 145.547C51.9303 145.547 51.7879 145.414 51.7879 145.249C51.7879 143.465 44.166 142.769 39.3619 142.749C39.2236 142.749 39.1015 142.664 39.0597 142.541C39.018 142.417 39.0666 142.282 39.1795 142.207C39.2506 142.16 46.3327 137.392 49.555 129.028C49.6144 128.873 49.7967 128.793 49.9624 128.849C50.1276 128.905 50.2131 129.076 50.1535 129.231C47.4773 136.177 42.1914 140.695 40.2678 142.168C41.4486 142.198 43.6199 142.283 45.7722 142.524C50.2484 143.024 52.4242 143.915 52.4242 145.249C52.4244 145.413 52.2818 145.547 52.1061 145.547Z" fill="#E38F49"/>
<path d="M31.736 145.899C31.6904 145.899 31.644 145.89 31.6001 145.871C31.4414 145.8 31.3734 145.623 31.4487 145.474C32.7513 142.892 37.1412 142.314 38.7579 142.187C38.1207 141.461 36.5757 140.027 34.1602 139.8C33.9854 139.784 33.8578 139.638 33.8752 139.474C33.8928 139.31 34.0458 139.19 34.2236 139.207C37.7861 139.54 39.56 142.183 39.6338 142.295C39.6934 142.386 39.6967 142.499 39.6428 142.593C39.5886 142.687 39.4853 142.746 39.3717 142.75C39.3125 142.751 33.4304 142.941 32.0238 145.729C31.9696 145.836 31.8552 145.899 31.736 145.899Z" fill="#E38F49"/>
<path d="M70.7432 182.081C70.7336 182.081 70.7236 182.081 70.7137 182.08C70.5387 182.065 70.4099 181.919 70.4262 181.755C70.7947 177.999 74.1215 171.526 76.8772 171.526C77.0528 171.526 77.1955 171.66 77.1955 171.825C77.1955 171.989 77.053 172.123 76.8772 172.123C74.8304 172.123 71.4597 177.736 71.0599 181.81C71.0448 181.965 70.9059 182.081 70.7432 182.081Z" fill="#3B3058"/>
<path d="M71.9033 177.493C71.9028 177.493 71.9022 177.493 71.9016 177.493C71.7259 177.493 71.5841 177.359 71.585 177.194C71.5858 177.038 71.6228 173.334 73.2983 170.615C73.3862 170.472 73.5803 170.423 73.7331 170.505C73.8854 170.588 73.9374 170.77 73.8496 170.913C72.26 173.493 72.2215 177.16 72.2215 177.197C72.2205 177.361 72.0781 177.493 71.9033 177.493Z" fill="#3B3058"/>
<path d="M71.1643 176.279C69.2715 173.588 66.5865 175.312 63.6003 174.781C61.6753 174.439 59.9883 176.375 59.9883 179.204C59.9883 182.033 64.0052 187.51 66.7837 184.983C69.7245 182.309 73.8029 180.03 71.1643 176.279Z" fill="#FFB679"/>
<path d="M66.7001 183.847C66.5323 183.847 66.392 183.724 66.3826 183.565C66.3608 183.194 65.8905 182.512 65.3926 181.79C64.1343 179.965 62.411 177.466 63.9034 175.043C63.9914 174.901 64.1855 174.851 64.3382 174.934C64.4904 175.017 64.5425 175.199 64.4546 175.342C63.1568 177.449 64.7579 179.771 65.9271 181.466C66.5196 182.325 66.9874 183.003 67.0184 183.533C67.028 183.697 66.8935 183.838 66.718 183.847C66.712 183.847 66.7059 183.847 66.7001 183.847Z" fill="#E36B46"/>
<path d="M127.688 157.073C127.688 159.562 140.355 228.747 142.677 241.412C142.867 242.448 142.007 243.392 140.875 243.392C140.007 243.392 139.258 242.825 139.084 242.036L120.331 157.073H127.688Z" fill="#9D5A40"/>
<path d="M46.1065 157.073C46.1065 159.562 33.4396 228.747 31.1172 241.412C30.9273 242.448 31.7872 243.392 32.9194 243.392C33.7875 243.392 34.536 242.825 34.7102 242.036L53.463 157.073H46.1065Z" fill="#9D5A40"/>
<path d="M79.7669 211.34C79.6636 211.328 79.5601 211.316 79.4568 211.304C76.6005 210.955 73.7651 210.278 71.0348 209.425C70.3666 209.216 69.6758 208.975 69.0156 208.68C69.1047 208.505 69.1955 208.332 69.2909 208.159C70.1389 208.531 71.0365 208.805 71.9273 209.069C73.2656 209.467 74.6214 209.81 75.9911 210.101C77.1688 210.35 78.3603 210.584 79.5601 210.72C79.6268 210.926 79.6954 211.133 79.7669 211.34Z" fill="#E36B46"/>
<path d="M80.9419 214.197C78.396 214.116 75.8565 213.852 73.352 213.411C71.4807 213.08 69.4616 212.639 67.9531 211.532C67.9977 211.322 68.055 211.107 68.1185 210.889C68.7614 211.416 69.5379 211.805 70.3351 212.082C71.6033 212.522 72.9542 212.749 74.2811 212.964C75.6511 213.184 77.0291 213.35 78.4135 213.46C79.1599 213.52 79.9092 213.563 80.6571 213.592C80.7493 213.799 80.8449 214 80.9419 214.197Z" fill="#E36B46"/>
<path d="M82.1368 216.177C80.7747 216.97 79.8374 218.269 79.0595 219.605C78.8717 219.526 78.6776 219.443 78.4785 219.356C78.6121 219.123 78.7506 218.894 78.8939 218.667C79.5748 217.598 80.4006 216.597 81.4937 215.871C81.5893 215.808 81.6863 215.747 81.7851 215.689C81.8997 215.865 82.019 216.028 82.1368 216.177Z" fill="#E36B46"/>
<path d="M65.5297 142.066C65.4852 142.73 65.4534 143.387 65.4343 144.034C64.9234 144.105 64.3889 144.012 63.8845 143.944C63.2893 143.863 62.6878 143.775 62.0866 143.835C61.8639 143.856 61.6364 143.897 61.4199 143.844C61.2783 143.808 61.151 143.732 61.0174 143.675C60.7691 143.568 60.5112 143.565 60.2584 143.501C59.9767 143.429 59.7 143.338 59.4326 143.234C58.8391 143.001 58.2853 142.677 57.843 142.237C57.2415 141.639 56.8662 140.84 56.9663 140.009C57.014 139.62 57.1413 139.235 57.3833 138.912C57.5073 138.745 57.6506 138.597 57.8225 138.47C57.98 138.354 58.1663 138.272 58.3158 138.147C58.6372 137.878 58.4288 137.289 58.3556 136.957C58.2458 136.451 58.1008 135.951 57.9641 135.45C57.6999 134.481 57.4613 133.471 57.5678 132.465C57.6157 132.02 57.6951 131.467 57.9737 131.091C58.2775 130.684 58.8424 130.673 59.2211 131.002C59.5775 131.31 59.6748 131.835 59.8609 132.238C60.0725 132.693 60.3207 133.131 60.6024 133.552C60.8141 133.865 61.1069 134.302 61.5301 134.378C61.9438 134.451 62.0439 133.944 62.0885 133.668C62.4036 131.687 61.748 129.69 62.0837 127.708C62.1586 127.268 62.2524 126.782 62.5722 126.435C62.7949 126.192 63.1388 126.086 63.4315 126.195C64.836 130.714 65.8543 137.299 65.5297 142.066Z" fill="#E36B46"/>
<defs>
<filter id="filter0_d_585_10460" x="149.983" y="78.5803" width="74.813" height="63.8365" filterUnits="userSpaceOnUse" color-interpolation-filters="sRGB">
<feFlood flood-opacity="0" result="BackgroundImageFix"/>
<feColorMatrix in="SourceAlpha" type="matrix" values="0 0 0 0 0 0 0 0 0 0 0 0 0 0 0 0 0 0 127 0" result="hardAlpha"/>
<feOffset/>
<feGaussianBlur stdDeviation="4.32948"/>
<feComposite in2="hardAlpha" operator="out"/>
<feColorMatrix type="matrix" values="0 0 0 0 1 0 0 0 0 1 0 0 0 0 1 0 0 0 1 0"/>
<feBlend mode="normal" in2="BackgroundImageFix" result="effect1_dropShadow_585_10460"/>
<feBlend mode="normal" in="SourceGraphic" in2="effect1_dropShadow_585_10460" result="shape"/>
</filter>
<filter id="filter1_d_585_10460" x="158.829" y="126.427" width="57.4962" height="45.3785" filterUnits="userSpaceOnUse" color-interpolation-filters="sRGB">
<feFlood flood-opacity="0" result="BackgroundImageFix"/>
<feColorMatrix in="SourceAlpha" type="matrix" values="0 0 0 0 0 0 0 0 0 0 0 0 0 0 0 0 0 0 127 0" result="hardAlpha"/>
<feOffset/>
<feGaussianBlur stdDeviation="4.45681"/>
<feComposite in2="hardAlpha" operator="out"/>
<feColorMatrix type="matrix" values="0 0 0 0 1 0 0 0 0 1 0 0 0 0 1 0 0 0 1 0"/>
<feBlend mode="normal" in2="BackgroundImageFix" result="effect1_dropShadow_585_10460"/>
<feBlend mode="normal" in="SourceGraphic" in2="effect1_dropShadow_585_10460" result="shape"/>
</filter>
<linearGradient id="paint0_linear_585_10460" x1="187.389" y1="95.38" x2="187.389" y2="147.368" gradientUnits="userSpaceOnUse">
<stop stop-color="#FF8A00"/>
<stop offset="1" stop-color="white"/>
</linearGradient>
<linearGradient id="paint1_linear_585_10460" x1="175.535" y1="139.559" x2="203.736" y2="137.765" gradientUnits="userSpaceOnUse">
<stop stop-color="#EF8000"/>
<stop offset="1" stop-color="#FFDDB5"/>
</linearGradient>
</defs>
</svg>
