<svg width="24" height="24" viewBox="0 0 24 24" fill="none" xmlns="http://www.w3.org/2000/svg">
<path fill-rule="evenodd" clip-rule="evenodd" d="M12.5726 8.39529V10.3043C12.9724 9.69538 13.5235 9.20065 14.1718 8.86857C14.8202 8.5365 15.5437 8.37846 16.2715 8.40992C20.1582 8.40992 20.9985 10.8398 20.9985 14.0009V20.4368H17.3987V14.731C17.3987 13.3698 17.1242 11.6194 15.0048 11.6194C12.9495 11.6194 12.5985 13.101 12.5985 14.6298V20.4368H9.00993V8.39529H12.5726ZM6.59915 5.36917C6.59871 5.72579 6.493 6.07433 6.29528 6.37112C6.09756 6.6679 5.81662 6.89971 5.4877 7.03748C5.15891 7.17414 4.79689 7.20989 4.44772 7.14017C4.09855 7.07046 3.77801 6.89844 3.52691 6.64599C3.27533 6.3934 3.10405 6.07205 3.03462 5.72237C2.96519 5.37269 3.00069 5.01029 3.13667 4.68073C3.27266 4.35118 3.50304 4.06919 3.79886 3.87022C4.09468 3.67125 4.44273 3.56419 4.79923 3.5625C5.03617 3.5625 5.27077 3.60928 5.48959 3.70015C5.70841 3.79103 5.90713 3.92422 6.07436 4.09207C6.24159 4.25992 6.37403 4.45914 6.46408 4.6783C6.55414 4.89746 6.60004 5.13224 6.59915 5.36917Z" fill="white"/>
<path d="M6.59985 8.41016H3V20.437H6.59985V8.41016Z" fill="white"/>
</svg>
