<svg width="25" height="24" viewBox="0 0 25 24" fill="none" xmlns="http://www.w3.org/2000/svg">
<path d="M20.5 10.2217C20.5 16.4439 12.5 21.7772 12.5 21.7772C12.5 21.7772 4.5 16.4439 4.5 10.2217C4.5 8.09995 5.34285 6.06512 6.84315 4.56483C8.34344 3.06453 10.3783 2.22168 12.5 2.22168C14.6217 2.22168 16.6566 3.06453 18.1569 4.56483C19.6571 6.06512 20.5 8.09995 20.5 10.2217Z" stroke="#1C4CC3" stroke-width="2" stroke-linecap="round" stroke-linejoin="round"/>
<path d="M12.4987 12.889C13.9715 12.889 15.1654 11.6951 15.1654 10.2223C15.1654 8.74957 13.9715 7.55566 12.4987 7.55566C11.0259 7.55566 9.83203 8.74957 9.83203 10.2223C9.83203 11.6951 11.0259 12.889 12.4987 12.889Z" stroke="#1C4CC3" stroke-width="2" stroke-linecap="round" stroke-linejoin="round"/>
</svg>
