<svg width="24" height="24" viewBox="0 0 24 24" fill="none" xmlns="http://www.w3.org/2000/svg">
<path d="M21.5743 17.9074C20.5053 16.8402 19.2637 15.9624 17.9022 15.3115L17.7748 15.2475C16.9139 14.8461 16.0134 14.5363 15.0881 14.3232L14.7351 14.2495C14.6709 14.2351 14.6147 14.1963 14.5782 14.1413V14.1118L11.8279 8.00041L9.11672 1.97262C9.10065 1.93483 9.09409 1.89367 9.0976 1.85274C9.10111 1.81181 9.1146 1.77238 9.13688 1.7379C9.15915 1.70343 9.18952 1.67497 9.22533 1.65503C9.26114 1.63508 9.30128 1.62427 9.34224 1.62354H14.6126C14.6603 1.62398 14.7068 1.63811 14.7468 1.66424C14.7868 1.69038 14.8184 1.72743 14.8381 1.77103L21.9763 17.6321C22.0003 17.6846 22.0051 17.7439 21.9899 17.7997C21.9746 17.8554 21.9403 17.9039 21.8929 17.9368C21.8455 17.9696 21.7881 17.9847 21.7307 17.9793C21.6733 17.974 21.6197 17.9485 21.5792 17.9074" fill="#1C4CC3"/>
<path d="M2.36082 17.9075C3.43062 16.839 4.67405 15.9612 6.03779 15.3115L6.16035 15.2476C7.02121 14.8461 7.92169 14.5363 8.847 14.3232L9.19999 14.2495C9.26564 14.2353 9.32347 14.1966 9.36177 14.1413V14.1118L12.1121 8.00043L14.8233 1.97264C14.8407 1.93494 14.8483 1.89344 14.8453 1.85201C14.8424 1.81057 14.8291 1.77056 14.8066 1.7357C14.784 1.70084 14.7531 1.67227 14.7166 1.65266C14.6801 1.63305 14.6392 1.62303 14.5978 1.62355H9.31764C9.26994 1.624 9.22335 1.63813 9.18339 1.66426C9.14343 1.6904 9.11177 1.72745 9.09213 1.77105L1.96371 17.6321C1.9397 17.6846 1.9349 17.744 1.95016 17.7997C1.96541 17.8554 1.99975 17.9039 2.04714 17.9368C2.09453 17.9697 2.15194 17.9847 2.20931 17.9794C2.26667 17.974 2.32031 17.9485 2.36082 17.9075" fill="#1C4CC3"/>
<path d="M23.9425 22.0179L23.8738 21.895V21.8605C22.9595 20.1586 21.693 18.6723 20.1592 17.5013C18.6254 16.3303 16.8597 15.5015 14.9805 15.0707C12.9983 14.6249 10.9422 14.6249 8.96005 15.0707C5.91748 15.7758 3.21085 17.5125 1.29727 19.9873C0.846307 20.5707 0.444533 21.1907 0.0961183 21.8409V21.8753L0.0274744 21.9982C0.00799698 22.0359 -0.00140378 22.078 0.000169494 22.1204C0.00174276 22.1629 0.0142359 22.2042 0.0364514 22.2403C0.0586669 22.2764 0.08985 22.3062 0.126939 22.3267C0.164028 22.3471 0.205766 22.3576 0.248098 22.3571H5.66549C5.73174 22.357 5.79522 22.3304 5.84199 22.2834C6.64034 21.4542 7.59699 20.7948 8.65492 20.3445C9.71285 19.8941 10.8504 19.662 11.9997 19.662C13.149 19.662 14.2865 19.8941 15.3444 20.3445C16.4024 20.7948 17.359 21.4542 18.1574 22.2834C18.1802 22.3071 18.2076 22.3259 18.238 22.3386C18.2683 22.3513 18.301 22.3576 18.3339 22.3571H23.7562C23.7979 22.3578 23.8391 22.3474 23.8757 22.3272C23.9123 22.307 23.943 22.2776 23.9647 22.2419C23.9865 22.2061 23.9986 22.1653 23.9999 22.1234C24.0011 22.0816 23.9915 22.0401 23.9719 22.0031" fill="#1C4CC3"/>
</svg>
