<svg width="46" height="38" viewBox="0 0 46 38" fill="none" xmlns="http://www.w3.org/2000/svg">
<path d="M40.5167 29.7573C38.5094 27.807 36.1778 26.203 33.621 25.0134L33.3816 24.8966C31.765 24.1629 30.074 23.5968 28.3363 23.2074L27.6734 23.0727C27.5528 23.0464 27.4472 22.9755 27.3788 22.875V22.8211L22.2139 11.6531L17.1226 0.637912C17.0924 0.568863 17.0801 0.493637 17.0867 0.418847C17.0933 0.344057 17.1186 0.271995 17.1604 0.208995C17.2023 0.145995 17.2593 0.0939877 17.3266 0.0575458C17.3938 0.0211038 17.4692 0.00134141 17.5461 0H27.4433C27.5328 0.000817398 27.6203 0.0266277 27.6954 0.0743879C27.7704 0.122148 27.8299 0.18986 27.8668 0.269536L41.2717 29.2541C41.3168 29.3501 41.3258 29.4585 41.2971 29.5603C41.2685 29.6621 41.204 29.7508 41.115 29.8109C41.026 29.8709 40.9182 29.8985 40.8105 29.8887C40.7028 29.8789 40.602 29.8323 40.526 29.7573" fill="#1C4CC3"/>
<path d="M4.43216 29.7573C6.44113 27.8049 8.77619 26.2006 11.3372 25.0134L11.5673 24.8966C13.1839 24.1629 14.8749 23.5968 16.6126 23.2075L17.2755 23.0727C17.3988 23.0468 17.5074 22.9761 17.5793 22.875V22.8211L22.7442 11.6532L27.8355 0.637947C27.8682 0.569064 27.8824 0.493227 27.8769 0.417511C27.8714 0.341795 27.8464 0.268669 27.8041 0.204965C27.7618 0.141262 27.7037 0.0890579 27.6351 0.0532213C27.5665 0.0173847 27.4898 -0.000914566 27.412 3.51704e-05H17.4964C17.4068 0.000852568 17.3194 0.0266629 17.2443 0.0744231C17.1693 0.122183 17.1098 0.189896 17.0729 0.269572L3.68642 29.2542C3.64132 29.3501 3.63232 29.4585 3.66096 29.5604C3.68961 29.6622 3.75409 29.7509 3.84309 29.8109C3.93208 29.871 4.0399 29.8985 4.14762 29.8887C4.25535 29.8789 4.35608 29.8324 4.43216 29.7573Z" fill="#1C4CC3"/>
<path d="M44.9617 37.2685L44.8328 37.0439V36.981C43.1158 33.8708 40.7374 31.1548 37.8571 29.0148C34.9767 26.8749 31.6609 25.3605 28.1319 24.5731C24.4095 23.7585 20.5485 23.7585 16.8261 24.5731C11.1125 25.8618 6.02968 29.0353 2.43615 33.5578C1.58928 34.6239 0.834792 35.7569 0.180501 36.945V37.0079L0.0515944 37.2325C0.0150176 37.3014 -0.00263616 37.3784 0.000318294 37.4559C0.00327275 37.5335 0.0267337 37.6089 0.0684523 37.675C0.110171 37.741 0.16873 37.7954 0.23838 37.8328C0.30803 37.8702 0.386409 37.8894 0.465906 37.8884H10.6393C10.7637 37.8881 10.8829 37.8397 10.9707 37.7536C12.4699 36.2385 14.2664 35.0335 16.2531 34.2105C18.2398 33.3875 20.376 32.9634 22.5343 32.9634C24.6926 32.9634 26.8287 33.3875 28.8154 34.2105C30.8021 35.0335 32.5986 36.2385 34.0979 37.7536C34.1407 37.7971 34.1922 37.8314 34.2492 37.8546C34.3062 37.8778 34.3675 37.8893 34.4293 37.8884H44.6119C44.6903 37.8896 44.7677 37.8707 44.8364 37.8338C44.9051 37.7969 44.9627 37.7431 45.0036 37.6778C45.0445 37.6125 45.0672 37.5379 45.0696 37.4614C45.0719 37.3849 45.0538 37.3091 45.017 37.2415" fill="#1C4CC3"/>
</svg>
