<svg width="211" height="40" viewBox="0 0 211 40" fill="none" xmlns="http://www.w3.org/2000/svg">
<path d="M34.9976 25.7036C33.2637 24.0191 31.2497 22.6335 29.0412 21.606L28.8345 21.5051C27.4381 20.8714 25.9774 20.3823 24.4765 20.046L23.9039 19.9296C23.7997 19.9069 23.7085 19.8457 23.6494 19.7589V19.7123L19.1881 10.0657L14.7903 0.551013C14.7643 0.491371 14.7536 0.426392 14.7593 0.36179C14.765 0.297188 14.7869 0.234943 14.823 0.180525C14.8591 0.126107 14.9084 0.0811844 14.9665 0.0497067C15.0246 0.018229 15.0897 0.00115868 15.1561 0H23.7051C23.7825 0.00070605 23.858 0.0230004 23.9228 0.0642546C23.9877 0.105509 24.039 0.163997 24.0709 0.232819L35.6498 25.269C35.6887 25.3519 35.6965 25.4456 35.6717 25.5335C35.647 25.6215 35.5913 25.6981 35.5144 25.75C35.4376 25.8018 35.3444 25.8256 35.2514 25.8171C35.1583 25.8087 35.0713 25.7685 35.0056 25.7036" fill="white"/>
<path d="M3.82877 25.7037C5.56408 24.0172 7.58104 22.6315 9.79315 21.606L9.99196 21.5051C11.3883 20.8714 12.849 20.3824 14.3499 20.0461L14.9225 19.9297C15.029 19.9073 15.1228 19.8463 15.1849 19.7589V19.7124L19.6463 10.0657L24.0441 0.551044C24.0723 0.491544 24.0846 0.426038 24.0798 0.360636C24.0751 0.295235 24.0534 0.23207 24.0169 0.177044C23.9804 0.122019 23.9302 0.0769262 23.8709 0.0459713C23.8117 0.0150165 23.7454 -0.000789981 23.6782 3.03793e-05H15.1134C15.036 0.000736429 14.9604 0.0230308 14.8956 0.064285C14.8308 0.105539 14.7794 0.164027 14.7476 0.23285L3.18462 25.2691C3.14567 25.352 3.13789 25.4456 3.16263 25.5336C3.18738 25.6215 3.24307 25.6981 3.31994 25.75C3.39682 25.8018 3.48995 25.8256 3.583 25.8172C3.67605 25.8087 3.76306 25.7685 3.82877 25.7037Z" fill="white"/>
<path d="M38.8369 32.191L38.7256 31.9969V31.9426C37.2424 29.2562 35.1881 26.9101 32.7001 25.0617C30.2121 23.2132 27.348 21.9051 24.2997 21.225C21.0844 20.5214 17.7493 20.5214 14.534 21.225C9.59871 22.3381 5.2083 25.0793 2.10429 28.9858C1.37279 29.9066 0.721074 30.8852 0.155913 31.9116V31.9659L0.0445661 32.1599C0.0129718 32.2194 -0.00227706 32.2859 0.000274935 32.3529C0.00282693 32.4198 0.023092 32.485 0.0591275 32.5421C0.0951631 32.5991 0.145745 32.6461 0.205907 32.6784C0.266069 32.7107 0.333771 32.7273 0.402438 32.7265H9.18995C9.29741 32.7262 9.40039 32.6843 9.47625 32.61C10.7712 31.3013 12.323 30.2604 14.0391 29.5496C15.7551 28.8387 17.6003 28.4723 19.4646 28.4723C21.3289 28.4723 23.174 28.8387 24.8901 29.5496C26.6062 30.2604 28.1579 31.3013 29.4529 32.61C29.49 32.6475 29.5345 32.6772 29.5837 32.6972C29.6329 32.7173 29.6859 32.7272 29.7392 32.7265H38.5347C38.6024 32.7275 38.6693 32.7112 38.7286 32.6793C38.788 32.6474 38.8377 32.6009 38.873 32.5445C38.9084 32.4881 38.928 32.4237 38.9301 32.3576C38.9321 32.2915 38.9164 32.2261 38.8846 32.1677" fill="white"/>
<path d="M47.172 30.0518H44.0078L55.1459 4H58.0359L69.0263 30.0518H65.7777L62.6767 22.7334H50.2413L47.172 30.0518ZM56.4432 7.2835L51.1695 20.3351H61.8118L56.4432 7.2835Z" fill="white"/>
<path d="M90.8081 23.6713C90.0741 25.9696 88.5204 27.9351 86.4289 29.2114C84.3373 30.4877 81.8463 30.9903 79.4076 30.6281C76.9689 30.2658 74.7439 29.0627 73.1362 27.2368C71.5286 25.411 70.6445 23.0834 70.6445 20.676C70.6445 18.2687 71.5286 15.9411 73.1362 14.1153C74.7439 12.2895 76.9689 11.0863 79.4076 10.724C81.8463 10.3618 84.3373 10.8644 86.4289 12.1407C88.5204 13.417 90.0741 15.3825 90.8081 17.6808H88.0657C87.5885 16.5408 86.8315 15.5327 85.8612 14.7453C84.891 13.9579 83.7374 13.4153 82.5018 13.1652C81.2662 12.9151 79.9866 12.9652 78.7755 13.311C77.5644 13.6569 76.459 14.288 75.5565 15.1487C74.1208 16.617 73.3298 18.5746 73.3521 20.604C73.3235 21.5964 73.501 22.5841 73.8738 23.5078C74.2467 24.4315 74.8072 25.2721 75.5215 25.9789C76.2359 26.6856 77.0895 27.2441 78.0308 27.6205C78.9721 27.997 79.9818 28.1837 80.999 28.1694C82.5032 28.2164 83.9857 27.8097 85.2446 27.0049C86.5035 26.2 87.4775 25.0359 88.0341 23.6713H90.8081Z" fill="white"/>
<path d="M114.107 30.0514H111.418V26.14C110.655 27.5311 109.507 28.6848 108.104 29.4693C106.702 30.2538 105.101 30.6374 103.486 30.5764C97.1576 30.5764 93.4238 25.7901 93.4238 20.5818C93.3778 19.272 93.6053 17.9667 94.0924 16.7454C94.5795 15.5241 95.316 14.4122 96.2572 13.4773C97.1984 12.5425 98.3246 11.8042 99.5673 11.3073C100.81 10.8105 102.143 10.5655 103.486 10.5872C105.111 10.5217 106.721 10.9114 108.127 11.7102C109.532 12.5091 110.674 13.6838 111.418 15.0955V11.1121H114.086L114.107 30.0514ZM96.0712 20.6229C96.0537 21.6227 96.2439 22.6156 96.6305 23.5416C97.0171 24.4677 97.5921 25.3077 98.3205 26.0109C99.049 26.7141 99.9159 27.2659 100.869 27.6331C101.822 28.0003 102.841 28.1751 103.866 28.1472C105.379 28.1877 106.867 27.7647 108.121 26.9376C109.375 26.1106 110.333 24.921 110.859 23.5359C111.293 22.5979 111.516 21.58 111.513 20.5509C111.549 19.5098 111.339 18.4744 110.901 17.5247C110.327 16.1534 109.34 14.9843 108.071 14.1719C106.801 13.3596 105.309 12.9423 103.792 12.9752C102.768 12.961 101.751 13.1487 100.803 13.5269C99.8549 13.9051 98.9947 14.466 98.2739 15.1762C97.5531 15.8863 96.9865 16.7311 96.608 17.6599C96.2296 18.5887 96.047 19.5825 96.0712 20.5818V20.6229Z" fill="white"/>
<path d="M138.703 30.0522H136.14V26.1408C135.375 27.5457 134.216 28.709 132.798 29.4946C131.381 30.2803 129.763 30.6557 128.135 30.5771C121.933 30.5771 118.104 25.8629 118.104 20.5517C118.055 19.2478 118.279 17.9479 118.762 16.7311C119.244 15.5143 119.975 14.4061 120.911 13.4739C121.846 12.5417 122.966 11.8052 124.203 11.309C125.439 10.8129 126.766 10.5675 128.103 10.5879C132.322 10.5879 135.17 12.976 136.035 14.9522V4.03125H138.703V30.0522ZM120.773 20.5826C120.746 21.5866 120.93 22.5853 121.313 23.5175C121.696 24.4497 122.27 25.2958 123 26.0041C123.729 26.7123 124.6 27.2678 125.557 27.6364C126.514 28.0051 127.539 28.1791 128.567 28.148C129.591 28.1551 130.606 27.963 131.554 27.5831C132.501 27.2031 133.361 26.6428 134.084 25.935C134.803 25.2153 135.365 24.3609 135.737 23.4233C136.109 22.4857 136.282 21.4843 136.246 20.4796C136.263 19.491 136.073 18.5093 135.688 17.5945C135.304 16.6796 134.733 15.8507 134.01 15.1581C132.917 14.1114 131.533 13.4023 130.029 13.1197C128.526 12.8371 126.97 12.9934 125.558 13.569C124.145 14.1447 122.937 15.1142 122.086 16.3562C121.235 17.5982 120.778 19.0576 120.773 20.5517V20.5826Z" fill="white"/>
<path d="M144.863 30.0518H141.699L152.848 4H155.717L166.728 30.0518H163.48L160.379 22.7334H147.933L144.863 30.0518ZM154.135 7.2835L148.861 20.3351H159.493L154.135 7.2835Z" fill="white"/>
<path d="M172.274 4.02148H169.605V30.063H172.274V4.02148Z" fill="white"/>
<path d="M180.102 4.02148H177.434V30.063H180.102V4.02148Z" fill="white"/>
<path d="M190.448 29.7222L182.949 11.1328H185.797L191.893 26.4489L198.169 11.1328H201.091L190.016 37.2464H187.137L190.448 29.7222Z" fill="white"/>
</svg>
