<svg width="12" height="12" viewBox="0 0 12 12" fill="none" xmlns="http://www.w3.org/2000/svg">
<path d="M4.31592 2.58216C4.59936 1.75269 5.74544 1.72757 6.08149 2.5068L6.10993 2.58263L6.49243 3.70123C6.58009 3.95776 6.72175 4.19251 6.90784 4.38965C7.09394 4.58678 7.32015 4.74171 7.57121 4.84399L7.67407 4.88239L8.79266 5.26441C9.62213 5.54785 9.64725 6.69394 8.8685 7.02999L8.79266 7.05843L7.67407 7.44093C7.41744 7.52853 7.1826 7.67016 6.98538 7.85626C6.78816 8.04236 6.63316 8.2686 6.53083 8.51971L6.49243 8.62209L6.11041 9.74116C5.82697 10.5706 4.68088 10.5957 4.3453 9.817L4.31592 9.74116L3.93389 8.62256C3.84629 8.36594 3.70466 8.1311 3.51856 7.93388C3.33246 7.73666 3.10622 7.58166 2.85511 7.47932L2.75273 7.44093L1.63414 7.0589C0.804196 6.77546 0.779075 5.62938 1.5583 5.2938L1.63414 5.26441L2.75273 4.88239C3.00926 4.79473 3.24401 4.65307 3.44115 4.46698C3.63828 4.28088 3.79322 4.05467 3.8955 3.80361L3.93389 3.70123L4.31592 2.58216ZM9.005 0.947876C9.09368 0.947876 9.18057 0.97275 9.25581 1.01967C9.33105 1.06659 9.39162 1.13368 9.43064 1.2133L9.45339 1.26876L9.61928 1.75506L10.1061 1.92096C10.1949 1.95115 10.2728 2.00704 10.3299 2.08155C10.387 2.15606 10.4206 2.24583 10.4266 2.33949C10.4326 2.43315 10.4106 2.52648 10.3635 2.60765C10.3164 2.68883 10.2463 2.75419 10.162 2.79545L10.1061 2.8182L9.61976 2.9841L9.45386 3.47087C9.42362 3.55971 9.36768 3.63757 9.29315 3.69459C9.21861 3.75161 9.12882 3.78521 9.03517 3.79115C8.94151 3.79709 8.8482 3.77509 8.76706 3.72795C8.68591 3.68081 8.62059 3.61063 8.57937 3.52633L8.55662 3.47087L8.39072 2.98457L7.90395 2.81868C7.81508 2.78849 7.73718 2.73259 7.68012 2.65808C7.62305 2.58358 7.5894 2.4938 7.58341 2.40014C7.57741 2.30648 7.59936 2.21315 7.64647 2.13198C7.69358 2.05081 7.76372 1.98545 7.84802 1.94418L7.90395 1.92143L8.39025 1.75554L8.55614 1.26876C8.5881 1.17511 8.64857 1.09382 8.72907 1.03627C8.80956 0.978727 8.90605 0.947817 9.005 0.947876Z" fill="white"/>
</svg>
