<svg width="20" height="20" viewBox="0 0 20 20" fill="none" xmlns="http://www.w3.org/2000/svg">
<path d="M17.5464 13.7011V15.9592C17.5473 16.1688 17.5042 16.3763 17.4201 16.5684C17.3359 16.7605 17.2125 16.9329 17.0577 17.0746C16.903 17.2163 16.7202 17.3242 16.5213 17.3914C16.3223 17.4585 16.1115 17.4835 15.9023 17.4646C13.5815 17.2129 11.3522 16.4215 9.39355 15.1538C7.57129 13.9981 6.02632 12.4562 4.86838 10.6376C3.59377 8.67394 2.80056 6.43826 2.553 4.11167C2.53415 3.90352 2.55894 3.69374 2.62578 3.49567C2.69262 3.29761 2.80005 3.11561 2.94123 2.96125C3.08241 2.8069 3.25425 2.68357 3.44581 2.59913C3.63736 2.51468 3.84444 2.47097 4.05385 2.47078H6.31643C6.68245 2.46718 7.03729 2.59654 7.31481 2.83473C7.59233 3.07293 7.7736 3.40371 7.82483 3.76542C7.92032 4.48807 8.09743 5.19761 8.35276 5.88051C8.45423 6.14992 8.4762 6.44272 8.41604 6.7242C8.35589 7.00569 8.21615 7.26406 8.01337 7.46872L7.05555 8.42465C8.12919 10.3091 9.69256 11.8693 11.5807 12.9409L12.5385 11.9849C12.7436 11.7826 13.0025 11.6431 13.2845 11.5831C13.5666 11.523 13.86 11.5449 14.1299 11.6462C14.8142 11.901 15.5251 12.0778 16.2492 12.1731C16.6156 12.2247 16.9501 12.4089 17.1893 12.6906C17.4285 12.9723 17.5556 13.3319 17.5464 13.7011Z" stroke="#EDEDED" stroke-width="2" stroke-linecap="round" stroke-linejoin="round"/>
</svg>
