<svg width="17" height="16" viewBox="0 0 17 16" fill="none" xmlns="http://www.w3.org/2000/svg">
<path fill-rule="evenodd" clip-rule="evenodd" d="M2.26938 0.861215C3.28355 -0.147119 4.95355 0.0320483 5.80272 1.16705L6.85438 2.57038C7.54605 3.49371 7.48438 4.78372 6.66355 5.59955L6.46522 5.79788C6.44273 5.88114 6.44044 5.96856 6.45855 6.05288C6.51105 6.39288 6.79522 7.11288 7.98522 8.29622C9.17522 9.47955 9.90022 9.76288 10.2452 9.81621C10.3322 9.8337 10.4219 9.83113 10.5077 9.80872L10.8477 9.47038C11.5777 8.74538 12.6977 8.60955 13.6011 9.10038L15.1927 9.96705C16.5569 10.707 16.9011 12.5604 15.7844 13.6712L14.6002 14.8479C14.2269 15.2187 13.7252 15.5279 13.1136 15.5854C11.6052 15.7262 8.09105 15.5462 4.39689 11.8737C0.949385 8.44538 0.287718 5.45538 0.203551 3.98205C0.161884 3.23705 0.513551 2.60705 0.961885 2.16205L2.26938 0.861215ZM4.80272 1.91621C4.38022 1.35205 3.59355 1.30705 3.15022 1.74788L1.84188 3.04788C1.56688 3.32121 1.43522 3.62288 1.45188 3.91122C1.51855 5.08205 2.05188 7.77955 5.27855 10.9879C8.66355 14.3529 11.7894 14.4537 12.9977 14.3404C13.2444 14.3179 13.4894 14.1895 13.7186 13.962L14.9019 12.7845C15.3836 12.3062 15.2777 11.4345 14.5961 11.0645L13.0044 10.1987C12.5644 9.96038 12.0494 10.0387 11.7294 10.357L11.3502 10.7345L10.9086 10.2912C11.3502 10.7345 11.3494 10.7354 11.3486 10.7354L11.3477 10.737L11.3452 10.7395L11.3394 10.7445L11.3269 10.7562C11.2917 10.7889 11.2538 10.8184 11.2136 10.8445C11.1469 10.8887 11.0586 10.9379 10.9477 10.9787C10.7227 11.0629 10.4244 11.1079 10.0561 11.0512C9.33355 10.9404 8.37605 10.4479 7.10355 9.18288C5.83188 7.91788 5.33522 6.96622 5.22355 6.24455C5.16605 5.87622 5.21189 5.57788 5.29689 5.35288C5.34367 5.22627 5.41064 5.10808 5.49522 5.00288L5.52188 4.97372L5.53355 4.96121L5.53855 4.95621L5.54105 4.95371L5.54272 4.95205L5.78272 4.71371C6.13939 4.35788 6.18939 3.76871 5.85355 3.31955L4.80272 1.91621Z" fill="#1C4CC3"/>
<path d="M0.203551 3.98205C0.287718 5.45538 0.949385 8.44538 4.39689 11.8737C8.09105 15.5462 11.6052 15.7262 13.1136 15.5854C13.7252 15.5279 14.2269 15.2187 14.6002 14.8479L15.7844 13.6712C16.9011 12.5604 16.5569 10.707 15.1927 9.96705L13.6011 9.10038C12.6977 8.60955 11.5777 8.74538 10.8477 9.47038L10.5077 9.80872C10.4219 9.83113 10.3322 9.8337 10.2452 9.81621C9.90022 9.76288 9.17522 9.47955 7.98522 8.29622C6.79522 7.11288 6.51105 6.39288 6.45855 6.05288C6.44044 5.96856 6.44273 5.88114 6.46522 5.79788L6.66355 5.59955C7.48438 4.78372 7.54605 3.49371 6.85438 2.57038L5.80272 1.16705C4.95355 0.0320483 3.28355 -0.147119 2.26938 0.861215L0.961885 2.16205C0.513551 2.60705 0.161884 3.23705 0.203551 3.98205ZM0.203551 3.98205L0.827718 3.94705M5.54272 4.95205L5.54105 4.95371L5.53855 4.95621L5.53355 4.96121L5.52188 4.97372L5.49522 5.00288C5.41064 5.10808 5.34367 5.22627 5.29689 5.35288C5.21189 5.57788 5.16605 5.87622 5.22355 6.24455C5.33522 6.96622 5.83188 7.91788 7.10355 9.18288C8.37605 10.4479 9.33355 10.9404 10.0561 11.0512C10.4244 11.1079 10.7227 11.0629 10.9477 10.9787C11.0586 10.9379 11.1469 10.8887 11.2136 10.8445C11.2538 10.8184 11.2917 10.7889 11.3269 10.7562L11.3394 10.7445L11.3452 10.7395L11.3477 10.737L11.3486 10.7354C11.3494 10.7354 11.3502 10.7345 10.9086 10.2912L11.3502 10.7345L11.7294 10.357C12.0494 10.0387 12.5644 9.96038 13.0044 10.1987L14.5961 11.0645C15.2777 11.4345 15.3836 12.3062 14.9019 12.7845L13.7186 13.962C13.4894 14.1895 13.2444 14.3179 12.9977 14.3404C11.7894 14.4537 8.66355 14.3529 5.27855 10.9879C2.05188 7.77955 1.51855 5.08205 1.45188 3.91122C1.43522 3.62288 1.56688 3.32121 1.84188 3.04788L3.15022 1.74788C3.59355 1.30705 4.38022 1.35205 4.80272 1.91621L5.85355 3.31955C6.18939 3.76871 6.13939 4.35788 5.78272 4.71371L5.54272 4.95205ZM5.54272 4.95205L5.98438 5.39371" stroke="#1C4CC3" stroke-width="0.4"/>
</svg>
