<svg width="151" height="46" viewBox="0 0 151 46" fill="none" xmlns="http://www.w3.org/2000/svg">
<path d="M145.623 0.919922C148.233 0.919922 150.348 3.08239 150.348 5.74992V40.2499C150.348 42.9175 148.233 45.0799 145.623 45.0799H4.99843C2.38889 45.0799 0.273438 42.9175 0.273438 40.2499V5.74992C0.273438 3.08239 2.38889 0.919922 4.99843 0.919922H145.623Z" fill="#1A233B"/>
<path d="M76.0025 24.8512C73.6451 24.8626 71.742 26.8233 71.7493 29.2331C71.7567 31.643 73.6719 33.5915 76.0293 33.5877C78.3868 33.584 80.2959 31.6294 80.2959 29.2195C80.3125 28.0523 79.8648 26.9282 79.0554 26.1047C78.246 25.2812 77.1443 24.8288 76.0025 24.8512ZM76.0025 31.8713C74.94 31.9473 73.9399 31.3515 73.4808 30.3691C73.0216 29.3866 73.1967 28.217 73.9221 27.4198C74.6476 26.6226 75.7761 26.3597 76.7679 26.7569C77.7597 27.1541 78.4131 28.1307 78.4157 29.2195C78.4484 29.9006 78.2106 30.5664 77.7562 31.0657C77.3019 31.565 76.6695 31.8555 76.0025 31.8713ZM66.6415 24.8512C64.2827 24.8569 62.3745 26.8151 62.3782 29.2263C62.3819 31.6375 64.2961 33.5897 66.6549 33.5878C69.0136 33.5859 70.9248 31.6307 70.9248 29.2195C70.9414 28.0523 70.4937 26.9282 69.6843 26.1047C68.8749 25.2812 67.7732 24.8288 66.6314 24.8512H66.6415ZM66.6415 31.8713C65.5783 31.9515 64.5754 31.3588 64.113 30.3769C63.6506 29.3951 63.8229 28.224 64.5474 27.4246C65.2718 26.6252 66.4009 26.3602 67.3939 26.7565C68.3869 27.1528 69.0417 28.1298 69.0446 29.2195C69.0773 29.9006 68.8395 30.5664 68.3851 31.0657C67.9308 31.565 67.2983 31.8555 66.6314 31.8713H66.6415ZM55.4907 26.1977V28.0478H59.8343C59.7662 28.9192 59.4119 29.7414 58.8289 30.3809C57.9501 31.2959 56.734 31.7887 55.4806 31.7377C52.8151 31.7377 50.6543 29.5288 50.6543 26.8041C50.6543 24.0794 52.8151 21.8705 55.4806 21.8705C56.7051 21.8501 57.8875 22.3269 58.7685 23.1964L60.0455 21.8911C58.8439 20.6472 57.2007 19.9539 55.4907 19.969C53.0563 19.8722 50.7653 21.1445 49.5199 23.2849C48.2746 25.4252 48.2746 28.0905 49.5199 30.2308C50.7653 32.3712 53.0563 33.6435 55.4907 33.5467C57.2319 33.6271 58.9221 32.9337 60.1259 31.6452C61.1794 30.4621 61.7418 28.9068 61.6945 27.3077C61.6977 26.9182 61.6641 26.5292 61.5939 26.1463L55.4907 26.1977ZM101.049 27.6366C100.512 26.0221 99.0562 24.914 97.3892 24.8512C96.2775 24.849 95.2145 25.3172 94.4525 26.1448C93.6906 26.9723 93.2978 28.0853 93.3672 29.2195C93.3425 30.3802 93.7807 31.5013 94.5809 32.3252C95.3812 33.149 96.4747 33.6048 97.6104 33.5878C99.039 33.5956 100.376 32.8698 101.17 31.6555L99.7118 30.6276C99.2692 31.382 98.4709 31.8427 97.6104 31.8405C96.7191 31.8752 95.8977 31.3494 95.5391 30.5146L101.26 28.0992L101.049 27.6366ZM95.2173 29.0962C95.1762 28.4539 95.3896 27.8218 95.8095 27.3423C96.2295 26.8627 96.8205 26.5761 97.4495 26.5471C98.1125 26.5025 98.7376 26.8665 99.0382 27.4722L95.2173 29.0962ZM90.572 33.3308H92.4523V20.4829H90.572V33.3308ZM87.4952 25.8277H87.4248C86.8517 25.1726 86.0323 24.7987 85.1725 24.7998C82.8902 24.913 81.0967 26.8375 81.0967 29.1732C81.0967 31.509 82.8902 33.4335 85.1725 33.5467C86.0351 33.5615 86.8598 33.1851 87.4248 32.5188H87.4852V33.1458C87.4852 34.8212 86.6104 35.7154 85.2027 35.7154C84.2438 35.6924 83.3936 35.0792 83.051 34.1634L81.412 34.8623C82.0432 36.4316 83.5429 37.4523 85.2027 37.4422C87.4047 37.4422 89.2246 36.1162 89.2246 32.8889V25.1082H87.4952V25.8277ZM85.3435 31.8713C83.999 31.7502 82.9679 30.5992 82.9679 29.2195C82.9679 27.8398 83.999 26.6888 85.3435 26.5677C85.9931 26.6018 86.6018 26.9025 87.0315 27.4018C87.4612 27.901 87.6756 28.5565 87.6259 29.2195C87.6814 29.8856 87.4677 30.5458 87.0347 31.0468C86.6016 31.5477 85.9869 31.8456 85.3334 31.8713H85.3435ZM109.857 20.4829H105.363V33.3308H107.243V28.4589H109.867C111.328 28.5662 112.725 27.8304 113.487 26.5523C114.249 25.2741 114.249 23.6677 113.487 22.3896C112.725 21.1115 111.328 20.3757 109.867 20.4829H109.857ZM109.857 26.6499H107.233V22.2714H109.897C111.089 22.2714 112.054 23.2584 112.054 24.4761C112.054 25.6937 111.089 26.6808 109.897 26.6808L109.857 26.6499ZM121.45 24.7998C120.052 24.7144 118.736 25.4855 118.102 26.763L119.771 27.4722C120.108 26.8387 120.778 26.4678 121.481 26.5266C121.963 26.469 122.447 26.6119 122.825 26.923C123.204 27.2342 123.444 27.6876 123.492 28.1814V28.315C122.888 27.9882 122.214 27.8187 121.531 27.8216C119.731 27.8216 117.911 28.8495 117.911 30.7099C117.947 31.5113 118.298 32.2638 118.886 32.7961C119.473 33.3285 120.245 33.5955 121.028 33.5364C121.993 33.6072 122.918 33.1342 123.441 32.303H123.502V33.3308H125.311V28.387C125.311 26.136 123.642 24.8307 121.501 24.8307L121.45 24.7998ZM121.219 31.8405C120.606 31.8405 119.751 31.5218 119.751 30.751C119.751 29.7231 120.817 29.384 121.762 29.384C122.359 29.3689 122.95 29.518 123.471 29.8156C123.341 30.9662 122.402 31.8431 121.269 31.8713L121.219 31.8405ZM131.907 25.1082L129.756 30.679H129.695L127.463 25.1082H125.452L128.801 32.8991L126.89 37.2263H128.851L133.999 25.1082H131.907ZM115.005 33.3308H116.886V20.4829H115.005V33.3308Z" fill="white"/>
<path d="M55.1674 13.0202C55.2019 13.7821 54.9293 14.5251 54.4132 15.0759C53.8365 15.6883 53.0322 16.0209 52.2012 15.9907C50.9266 15.9805 49.7821 15.1902 49.297 13.9853C48.8119 12.7804 49.0807 11.3956 49.9791 10.4712C50.5628 9.86205 51.3672 9.52717 52.2012 9.54617C52.6262 9.54472 53.0471 9.63217 53.4379 9.80313C53.8018 9.95315 54.1257 10.1891 54.3831 10.4918L53.8502 11.0365C53.4433 10.5418 52.8325 10.2715 52.2012 10.3068C51.5666 10.3036 50.9581 10.5648 50.516 11.0303C50.074 11.4958 49.8365 12.1252 49.8584 12.7736C49.8449 13.7533 50.4094 14.6451 51.2891 15.034C52.1689 15.423 53.1912 15.2327 53.8803 14.5517C54.1897 14.209 54.3682 13.7639 54.3831 13.2978H52.2012V12.5577H55.1271C55.154 12.7104 55.1674 12.8651 55.1674 13.0202ZM59.7725 10.4507H57.0577V12.4035H59.5312V13.1436H57.0577V15.0965H59.7725V15.857H56.2533V9.69007H59.7725V10.4507ZM63.0705 15.857H62.2962V10.4507H60.607V9.69007H64.7999V10.4507H63.0705V15.857ZM67.756 15.857V9.69007H68.5302V15.857H67.756ZM71.969 15.857H71.1948V10.4507H69.5056V9.69007H73.6482V10.4507H71.969V15.857ZM81.501 15.0553C80.2773 16.2993 78.3005 16.2993 77.0769 15.0553C75.8907 13.7718 75.8907 11.765 77.0769 10.4815C77.662 9.87893 78.4583 9.54004 79.2889 9.54004C80.1195 9.54004 80.9158 9.87893 81.501 10.4815C82.6922 11.763 82.6922 13.7739 81.501 15.0553ZM77.65 14.5414C78.5563 15.464 80.0216 15.464 80.9279 14.5414C81.8179 13.5384 81.8179 12.0087 80.9279 11.0057C80.0216 10.0831 78.5563 10.0831 77.65 11.0057C76.7599 12.0087 76.7599 13.5384 77.65 14.5414ZM83.4818 15.857V9.69007H84.4269L87.363 14.49V9.69007H88.1372V15.857H87.3328L84.2661 10.831V15.857H83.4818Z" fill="white"/>
<path d="M18.6794 11.0401C18.372 11.4172 18.2169 11.8998 18.2456 12.3898V33.7139C18.2169 34.2038 18.372 34.6865 18.6794 35.0636L18.7454 35.131L30.4299 23.1965V22.9169L18.7454 10.9727L18.6794 11.0401Z" fill="url(#paint0_linear_636_2767)"/>
<path d="M34.2923 27.1768L30.4258 23.1954V22.9159L34.2923 18.9248L34.3772 18.973L39.0077 21.6626C40.3279 22.4242 40.3279 23.6774 39.0077 24.4486L34.3961 27.1286L34.2923 27.1768Z" fill="url(#paint1_linear_636_2767)"/>
<path d="M34.4061 27.119L30.4263 23.0508L18.6758 35.0625C19.231 35.5614 20.0549 35.5857 20.6374 35.1203L34.4155 27.119" fill="url(#paint2_linear_636_2767)"/>
<path d="M34.4077 18.9832L20.6295 10.9818C20.0471 10.5164 19.2232 10.5407 18.668 11.0396L30.428 23.0513L34.4077 18.9832Z" fill="url(#paint3_linear_636_2767)"/>
<path opacity="0.2" d="M34.2929 27.0332L20.6279 34.9864C20.0687 35.4138 19.301 35.4138 18.7418 34.9864L18.6758 35.0539L18.7418 35.1213C19.2999 35.552 20.0698 35.552 20.6279 35.1213L34.4061 27.12L34.2929 27.0332Z" fill="black"/>
<path opacity="0.12" d="M18.6794 34.9275C18.372 34.5505 18.2169 34.0678 18.2456 33.5779V33.7225C18.2169 34.2124 18.372 34.6951 18.6794 35.0721L18.7454 35.0047L18.6794 34.9275ZM39.0118 24.304L34.2965 27.0322L34.3814 27.119L39.0118 24.439C39.5466 24.1822 39.9063 23.6527 39.9549 23.0508C39.8474 23.5953 39.4991 24.0581 39.0118 24.304Z" fill="black"/>
<path opacity="0.25" d="M20.6298 11.117L39.0101 21.7984C39.4973 22.0443 39.8456 22.5071 39.9531 23.0516C39.9045 22.4497 39.5448 21.9202 39.0101 21.6634L20.6298 10.9821C19.3095 10.2205 18.2344 10.8568 18.2344 12.3992V12.5438C18.2627 10.9917 19.3189 10.3555 20.6298 11.117Z" fill="white"/>
<defs>
<linearGradient id="paint0_linear_636_2767" x1="25.6809" y1="12.168" x2="15.4441" y2="22.1822" gradientUnits="userSpaceOnUse">
<stop stop-color="#00A0FF"/>
<stop offset="0.01" stop-color="#00A1FF"/>
<stop offset="0.26" stop-color="#00BEFF"/>
<stop offset="0.51" stop-color="#00D2FF"/>
<stop offset="0.76" stop-color="#00DFFF"/>
<stop offset="1" stop-color="#00E3FF"/>
</linearGradient>
<linearGradient id="paint1_linear_636_2767" x1="40.7335" y1="23.0508" x2="17.9208" y2="23.0508" gradientUnits="userSpaceOnUse">
<stop stop-color="#FFE000"/>
<stop offset="0.41" stop-color="#FFBD00"/>
<stop offset="0.78" stop-color="#FFA500"/>
<stop offset="1" stop-color="#FF9C00"/>
</linearGradient>
<linearGradient id="paint2_linear_636_2767" x1="32.2465" y1="26.8847" x2="14.7592" y2="43.9842" gradientUnits="userSpaceOnUse">
<stop stop-color="#FF3A44"/>
<stop offset="1" stop-color="#C31162"/>
</linearGradient>
<linearGradient id="paint3_linear_636_2767" x1="15.7162" y1="9.18098" x2="23.5216" y2="16.8167" gradientUnits="userSpaceOnUse">
<stop stop-color="#32A071"/>
<stop offset="0.07" stop-color="#2DA771"/>
<stop offset="0.48" stop-color="#15CF74"/>
<stop offset="0.8" stop-color="#06E775"/>
<stop offset="1" stop-color="#00F076"/>
</linearGradient>
</defs>
</svg>
