<svg width="290" height="508" viewBox="0 0 290 508" fill="none" xmlns="http://www.w3.org/2000/svg">
<g opacity="0.04">
<path d="M-16.1192 136.276H65.6116C65.6116 136.276 65.6116 67.6499 136.926 66.4328C173.963 65.7818 193.168 90.0534 200.981 108.636C210.038 130.218 207.293 154.815 195.15 174.841C181.294 197.698 151.433 220.667 96.3509 210.958L95.8273 393.059H176.652V285.104C176.652 285.104 290 255.808 290 130.841C290 11.3229 193.352 -14.4913 141.398 -16.1613C112.499 -17.0813 102.026 -18.3267 66.2768 -13.2459C20.7198 -6.73575 -17.0816 46.1664 -16.1192 136.276Z" fill="#1C4CC3"/>
<path d="M177.627 431.015H95.5986V507.622H177.627V431.015Z" fill="#1C4CC3"/>
<path opacity="0.1" d="M177.627 431.015H95.5986V507.622H177.627V431.015Z" fill="black"/>
<path d="M-49.9852 136.275H31.7598C31.7598 136.275 31.7598 67.6496 103.074 66.4325C140.112 65.7815 159.317 90.0531 167.115 108.635C176.186 130.218 173.441 154.815 161.298 174.841C147.443 197.697 117.057 218.473 61.9755 208.807V393.059H142.801V285.103C142.801 285.103 256.148 255.807 256.148 130.841C256.148 11.3226 148.957 -16.4305 103.089 -16.4305C68.0044 -16.3881 -51.5278 -7.91071 -49.9852 136.275Z" fill="#1C4CC3"/>
<path d="M143.778 431.015H61.7502V507.622H143.778V431.015Z" fill="#1C4CC3"/>
<path opacity="0.3" d="M143.778 431.015H61.7502V507.622H143.778V431.015Z" fill="black"/>
<path d="M112.302 66.7996C111.897 66.8345 111.49 66.8345 111.085 66.7996C110.278 66.7996 109.118 66.5307 107.603 66.5165C103.322 66.3062 99.0299 66.4862 94.7811 67.0543C88.4803 67.8519 82.2806 69.3082 76.2837 71.3991C72.7485 72.6348 69.3055 74.1198 65.9807 75.843C62.3867 77.6389 59.0025 79.827 55.8899 82.3673C52.7987 84.9305 50.0283 87.8577 47.639 91.0853C45.3742 94.0693 43.3082 97.1991 41.4543 100.454C38.3592 105.998 35.9045 111.876 34.1375 117.975C32.9394 122.091 32.1152 126.307 31.6749 130.571C31.5051 132.071 31.4626 133.26 31.4202 134.052C31.4211 134.461 31.3832 134.868 31.307 135.269C31.2704 134.865 31.2704 134.457 31.307 134.052C31.307 133.246 31.307 132.057 31.4343 130.543C31.7597 126.233 32.5135 121.966 33.6846 117.805C35.3867 111.636 37.8093 105.689 40.9024 100.086C42.76 96.7953 44.8356 93.6322 47.1153 90.6183C49.5247 87.338 52.3292 84.3671 55.4653 81.7729C58.6157 79.1977 62.0428 76.981 65.6835 75.1637C69.029 73.4088 72.4958 71.8953 76.0573 70.6349C82.1087 68.5519 88.3674 67.1284 94.7245 66.3891C99.0017 65.8636 103.321 65.764 107.617 66.0919C108.785 66.1666 109.948 66.3083 111.099 66.5165C111.506 66.5825 111.908 66.6771 112.302 66.7996Z" fill="#263238"/>
<path d="M235.454 52.2378C235.454 52.2378 235.355 52.1388 235.185 51.9265C235.015 51.7142 234.76 51.3462 234.477 50.9358L231.774 47.1146C231.194 46.2938 230.571 45.3456 229.835 44.369L227.288 41.2696L224.372 37.689C223.311 36.4436 222.065 35.2407 220.82 33.9245C219.575 32.6083 218.301 31.2072 216.857 29.8627C215.414 28.5182 213.871 27.1454 212.286 25.7302C211.493 25.0225 210.715 24.3149 209.866 23.5648L207.234 21.4844C205.436 20.0691 203.653 18.6539 201.714 17.2386C193.263 11.1922 184.298 5.89777 174.923 1.4161L167.465 -1.9522L160.063 -4.7827C157.643 -5.78753 155.181 -6.49515 152.803 -7.28769C150.425 -8.08024 148.104 -8.88694 145.727 -9.43889L138.962 -11.208C136.768 -11.7882 134.589 -12.142 132.508 -12.6232C130.428 -13.1044 128.418 -13.529 126.451 -13.7696L120.79 -14.5904C117.209 -15.199 113.926 -15.3263 111.067 -15.6094C109.652 -15.7226 108.237 -15.8783 107.062 -15.9349L103.694 -16.0198L99.0233 -16.1755H97.8062H97.3958C97.5317 -16.1967 97.6702 -16.1967 97.8062 -16.1755H99.0233H103.694H107.076C108.307 -16.1755 109.652 -16.0057 111.095 -15.9066C113.926 -15.666 117.266 -15.5669 120.847 -14.9867L126.508 -14.2224C128.475 -13.996 130.484 -13.4865 132.579 -13.1044C134.674 -12.7223 136.825 -12.326 139.075 -11.6891L145.868 -9.93422C148.217 -9.39643 150.538 -8.51897 152.944 -7.79719C155.35 -7.07541 157.799 -6.38194 160.219 -5.30635L167.663 -2.47584L175.164 0.906622C184.589 5.39845 193.588 10.732 202.054 16.8424C204.007 18.2576 205.79 19.7719 207.587 21.173L210.22 23.0836C211.069 23.7913 211.847 24.4989 212.64 25.2631L217.197 29.5089C218.612 30.9241 219.886 32.3394 221.145 33.6273C222.405 34.9152 223.608 36.1747 224.669 37.4343L227.5 41.0432L230.019 44.1851C230.741 45.1757 231.349 46.1381 231.916 47.0156C233.019 48.6714 233.883 49.9734 234.491 50.9075L235.156 51.9406C235.268 52.0264 235.368 52.1264 235.454 52.2378Z" fill="#263238"/>
<path d="M226.934 227.729C226.766 228.036 226.562 228.321 226.326 228.579L224.373 230.886C223.566 231.919 222.547 233.15 221.287 234.523C220.028 235.895 218.683 237.509 217.042 239.179C215.4 240.849 213.645 242.717 211.65 244.599C209.654 246.482 207.489 248.463 205.182 250.529C195.064 259.361 183.972 267.01 172.122 273.329C169.376 274.744 166.786 276.159 164.281 277.249C161.776 278.339 159.441 279.457 157.29 280.363C155.139 281.269 153.157 282.019 151.431 282.684C149.704 283.349 148.19 283.887 146.944 284.283L144.114 285.203C143.785 285.333 143.444 285.428 143.095 285.486C143.4 285.311 143.722 285.169 144.057 285.061L146.888 284.014C148.119 283.575 149.605 283.009 151.317 282.302C153.03 281.594 155.011 280.886 157.134 279.882C159.257 278.877 161.606 277.929 164.055 276.697C166.503 275.466 169.121 274.164 171.853 272.735C177.245 269.762 183.061 266.281 188.935 262.262C194.808 258.242 200.087 254.011 204.786 250.02C207.092 247.982 209.3 246.071 211.267 244.146C213.235 242.222 215.074 240.481 216.702 238.811C218.33 237.141 219.759 235.598 221.033 234.24C222.306 232.881 223.354 231.692 224.203 230.702L226.184 228.451C226.414 228.191 226.665 227.949 226.934 227.729Z" fill="#263238"/>
<path d="M141.369 386.632C141.157 386.632 140.987 363.903 140.987 335.867C140.987 307.831 141.157 285.088 141.369 285.088C141.582 285.088 141.737 307.817 141.737 335.867C141.737 363.918 141.568 386.632 141.369 386.632Z" fill="#263238"/>
<path d="M144.487 502.428C144.275 502.428 144.119 486.478 144.119 466.806C144.119 447.134 144.275 431.17 144.487 431.17C144.7 431.17 144.855 447.12 144.855 466.806C144.855 486.492 144.685 502.428 144.487 502.428Z" fill="#263238"/>
</g>
</svg>
