<svg width="28" height="24" viewBox="0 0 28 24" fill="none" xmlns="http://www.w3.org/2000/svg">
<path d="M0.421875 20.7773C1.75282 20.1135 2.83347 18.9413 3.59277 17.6006C4.4064 16.1639 4.86715 14.5054 4.86719 13.0059L4.86719 12.6816L0.32422 12.6816L0.324221 0.324216L11.0137 0.324217L11.0137 9.6123C11.0137 16.7779 6.99671 21.6249 1.33105 23.0283L0.421875 20.7773ZM16.3213 20.7764C17.6523 20.1125 18.7329 18.9409 19.4922 17.6006C20.306 16.1639 20.7675 14.5054 20.7676 13.0059L20.7676 12.6816L16.2432 12.6816L16.2432 0.324218L26.9326 0.324219L26.9326 9.6123C26.9326 16.777 22.8981 21.6246 17.2314 23.0283L16.3213 20.7764Z" fill="#1C4CC3" stroke="#1C4CC3" stroke-width="0.648973"/>
</svg>
