<svg width="158" height="158" viewBox="0 0 158 158" fill="none" xmlns="http://www.w3.org/2000/svg">
<path d="M94.9453 138.25C93.4725 138.25 92.2786 137.056 92.2786 135.583V89.5926C92.2786 52.7902 115.871 27.6101 149.36 20.1814C150.561 19.9149 151.78 20.5365 152.297 21.6534L156.763 31.3078C157.413 32.7137 156.727 34.3687 155.329 35.0353C141.76 41.5047 132.858 56.5818 131.778 69.7535C131.657 71.2213 132.861 72.4167 134.333 72.4167H155.333C156.806 72.4167 158 73.6106 158 75.0833V135.583C158 137.056 156.806 138.25 155.333 138.25H94.9453ZM2.66667 138.25C1.19391 138.25 0 137.056 0 135.583V89.5926C0 52.7898 23.7004 27.6096 57.1943 20.1812C58.3953 19.9148 59.6139 20.5359 60.1309 21.6523L64.6013 31.3069C65.2524 32.7131 64.5664 34.3689 63.1675 35.0356C49.5933 41.505 40.6917 56.582 39.611 69.7535C39.4905 71.2213 40.6939 72.4167 42.1667 72.4167H63.0548C64.5275 72.4167 65.7214 73.6106 65.7214 75.0833V135.583C65.7214 137.056 64.5275 138.25 63.0547 138.25H2.66667Z" fill="#1C4CC3"/>
</svg>
