<svg width="158" height="158" viewBox="0 0 158 158" fill="none" xmlns="http://www.w3.org/2000/svg">
<g opacity="0.05">
<path d="M63.0547 19.75C64.5275 19.75 65.7214 20.9439 65.7214 22.4167V68.4074C65.7214 105.21 42.1289 130.39 8.63994 137.819C7.43851 138.085 6.21953 137.464 5.70287 136.347L1.23695 126.692C0.586609 125.286 1.2726 123.631 2.67085 122.965C16.2402 116.495 25.1417 101.418 26.2224 88.2465C26.3428 86.7787 25.1394 85.5833 23.6667 85.5833H2.66667C1.19391 85.5833 0 84.3894 0 82.9167V22.4167C0 20.9439 1.19391 19.75 2.66666 19.75H63.0547ZM155.333 19.75C156.806 19.75 158 20.9439 158 22.4167V68.4074C158 105.21 134.3 130.39 100.806 137.819C99.6047 138.085 98.3861 137.464 97.8691 136.348L93.3987 126.693C92.7476 125.287 93.4336 123.631 94.8325 122.964C108.407 116.495 117.308 101.418 118.389 88.2465C118.509 86.7787 117.306 85.5833 115.833 85.5833H94.9452C93.4725 85.5833 92.2786 84.3894 92.2786 82.9167V22.4167C92.2786 20.9439 93.4725 19.75 94.9453 19.75H155.333Z" fill="#1C4CC3"/>
</g>
</svg>
