<svg width="14" height="15" viewBox="0 0 14 15" fill="none" xmlns="http://www.w3.org/2000/svg">
<path d="M6.37921 0.347054C6.62241 -0.115709 7.28497 -0.115708 7.52816 0.347055L9.38448 3.87937C9.46898 4.04017 9.61701 4.15819 9.79258 4.20476L13.4248 5.1681C13.8709 5.28643 14.0544 5.81957 13.7756 6.18742L11.2499 9.5194C11.1542 9.64564 11.1079 9.80252 11.1199 9.96048L11.4459 14.2613C11.4837 14.7605 10.9659 15.1127 10.5155 14.8942L7.23696 13.3036C7.05808 13.2169 6.84929 13.2169 6.67041 13.3036L3.39191 14.8942C2.94146 15.1127 2.42369 14.7605 2.46152 14.2613L2.78746 9.96048C2.79943 9.80252 2.75321 9.64564 2.65752 9.5194L0.131784 6.18742C-0.147053 5.81957 0.0364331 5.28643 0.482592 5.1681L4.11479 4.20476C4.29037 4.15819 4.43839 4.04017 4.5229 3.87937L6.37921 0.347054Z" fill="#FFCA28"/>
</svg>
