<svg width="24" height="24" viewBox="0 0 24 24" fill="none" xmlns="http://www.w3.org/2000/svg">
<path d="M9.66499 14.8868V8.81756L15.0177 11.8523L9.66499 14.8868ZM21.5715 6.90784C21.336 6.02396 20.642 5.32794 19.7609 5.09172C18.1638 4.66243 11.7595 4.66243 11.7595 4.66243C11.7595 4.66243 5.35526 4.66243 3.75812 5.09172C2.87698 5.32794 2.18299 6.02396 1.94749 6.90784C1.51953 8.50981 1.51953 11.8522 1.51953 11.8522C1.51953 11.8522 1.51953 15.1946 1.94749 16.7966C2.18299 17.6805 2.87698 18.3765 3.75812 18.6128C5.35526 19.042 11.7595 19.042 11.7595 19.042C11.7595 19.042 18.1638 19.042 19.7609 18.6128C20.642 18.3765 21.336 17.6805 21.5715 16.7966C21.9995 15.1946 21.9995 11.8522 21.9995 11.8522C21.9995 11.8522 21.9995 8.50981 21.5715 6.90784Z" fill="white"/>
</svg>
