<svg width="71" height="71" viewBox="0 0 71 71" fill="none" xmlns="http://www.w3.org/2000/svg">
<rect y="14.1961" width="58" height="58" rx="13" transform="rotate(-14.1677 0 14.1961)" fill="#3B3E98"/>
<mask id="mask0_3628_2438" style="mask-type:alpha" maskUnits="userSpaceOnUse" x="16" y="16" width="40" height="39">
<rect x="16.1353" y="23.9271" width="32" height="32" transform="rotate(-14.3174 16.1353 23.9271)" fill="#D9D9D9"/>
</mask>
<g mask="url(#mask0_3628_2438)">
<path d="M38.2331 45.809C36.9907 45.2545 35.7089 44.9051 34.3877 44.7607C33.0665 44.6162 31.76 44.7089 30.468 45.0386C29.5637 45.2694 28.7057 45.6145 27.8941 46.074C27.0825 46.5334 26.3333 47.0801 25.6466 47.714C25.2548 48.0663 24.8161 48.1668 24.3303 48.0156C23.8444 47.8644 23.5383 47.5411 23.4119 47.0459L19.4387 31.4783C19.3783 31.2414 19.3798 31.0002 19.4433 30.7547C19.5068 30.5091 19.6432 30.3023 19.8525 30.1342C20.7111 29.3646 21.6458 28.7133 22.6564 28.1801C23.6671 27.647 24.7322 27.2375 25.8519 26.9517C27.1007 26.633 28.3639 26.4826 29.6414 26.5006C30.9188 26.5186 32.189 26.7104 33.452 27.0761L37.4417 42.7084C38.364 41.7391 39.3841 40.9283 40.5019 40.276C41.6198 39.6238 42.7924 39.141 44.0197 38.8278C44.7949 38.63 45.5704 38.5009 46.3462 38.4405C47.122 38.3801 47.9197 38.3829 48.7393 38.4489L44.7826 22.9459C45.133 22.9711 45.4795 23.0031 45.8219 23.0418C46.1644 23.0806 46.5083 23.1476 46.8537 23.2429C47.118 23.2901 47.3369 23.4063 47.5103 23.5914C47.6836 23.7765 47.8006 23.9874 47.861 24.2243L51.8342 39.7919C51.9606 40.2872 51.8468 40.7176 51.4929 41.0831C51.139 41.4487 50.7057 41.5707 50.1931 41.4493C49.2865 41.222 48.3669 41.1012 47.4344 41.0869C46.5019 41.0726 45.5835 41.1808 44.6792 41.4116C43.3872 41.7414 42.1961 42.2862 41.1057 43.0461C40.0153 43.806 39.0578 44.727 38.2331 45.809ZM39.1683 38.6899L36.0359 26.4167L40.8469 18.3084L44.1441 31.2277L39.1683 38.6899ZM34.5364 42.1082L31.2721 29.3182C30.4846 29.1981 29.6881 29.1548 28.8825 29.1884C28.0769 29.222 27.2865 29.3377 26.5113 29.5356C25.7147 29.7389 24.9587 30.0121 24.2436 30.3552C23.5284 30.6982 22.854 31.1112 22.2204 31.594L25.4929 44.4163C26.1751 43.944 26.8712 43.5485 27.581 43.2297C28.2909 42.9109 29.0334 42.6526 29.8086 42.4548C30.5837 42.2569 31.3592 42.1278 32.1351 42.0674C32.9109 42.007 33.7113 42.0206 34.5364 42.1082Z" fill="white"/>
</g>
</svg>
