<svg width="72" height="72" viewBox="0 0 72 72" fill="none" xmlns="http://www.w3.org/2000/svg">
<rect opacity="0.2" x="15.0115" width="58" height="58" rx="13" transform="rotate(15 15.0115 0)" fill="#00A83E"/>
<path d="M40.8576 31.6855L46.4928 33.1955C46.5068 33.1993 46.5154 33.2044 46.5215 33.2092C46.5287 33.2149 46.5367 33.2232 46.5431 33.2342C46.5495 33.2453 46.5526 33.2563 46.554 33.2654C46.555 33.2731 46.5553 33.2831 46.5515 33.2971L45.0416 38.9323C45.0358 38.9535 45.0219 38.9716 45.0028 38.9826C44.9838 38.9936 44.9612 38.9966 44.9399 38.991C44.9186 38.9853 44.8998 38.9712 44.8887 38.952C44.8778 38.933 44.8747 38.9103 44.8803 38.8891L46.3379 33.4492L34.2651 40.4194C34.2556 40.4249 34.2447 40.4288 34.2339 40.4303C34.2233 40.4316 34.2125 40.4305 34.2022 40.4278C34.1917 40.425 34.1812 40.4204 34.1726 40.4138L34.1509 40.3888L31.6574 36.0699L30.6578 34.3371L24.6058 37.8312C24.5868 37.8422 24.5642 37.8452 24.5429 37.8396C24.5215 37.8339 24.5028 37.8198 24.4917 37.8006C24.4806 37.7814 24.4778 37.7582 24.4835 37.7368C24.4864 37.7264 24.4917 37.7169 24.4982 37.7084C24.5049 37.6997 24.5128 37.692 24.5223 37.6865L30.646 34.151C30.6555 34.1455 30.6664 34.1415 30.6772 34.1401C30.688 34.1387 30.6993 34.14 30.7099 34.1428C30.7202 34.1456 30.73 34.1501 30.7385 34.1566L30.7601 34.1815L33.2537 38.5004L34.2545 40.2326L46.2544 33.3044L40.8144 31.8468C40.8004 31.843 40.7919 31.8379 40.7858 31.8331C40.7785 31.8273 40.7708 31.8183 40.7644 31.8071C40.758 31.796 40.7548 31.785 40.7535 31.7759C40.7525 31.7682 40.7522 31.7583 40.756 31.7442C40.7598 31.7302 40.7649 31.7217 40.7697 31.7155C40.7754 31.7083 40.7837 31.7003 40.7947 31.6939C40.8058 31.6875 40.8168 31.6844 40.8259 31.6831C40.8337 31.682 40.8436 31.6818 40.8576 31.6855Z" fill="black" stroke="#00A83E" stroke-width="4"/>
</svg>
