<svg width="71" height="71" viewBox="0 0 71 71" fill="none" xmlns="http://www.w3.org/2000/svg">
<rect y="14.1961" width="58" height="58" rx="13" transform="rotate(-14.1677 0 14.1961)" fill="#3EA8FF"/>
<g clip-path="url(#clip0_1442_4463)">
<path d="M35.5648 50.2155C34.0778 50.2501 32.5939 50.0633 31.1619 49.6613M34.8678 20.217C38.2658 20.1397 41.5894 21.2184 44.2944 23.2764C46.9995 25.3345 48.9256 28.2499 49.7575 31.5454C50.5894 34.841 50.2778 38.3213 48.8738 41.4167C47.4697 44.512 45.0563 47.0389 42.0287 48.5837M25.3018 46.4736C24.0978 45.4147 23.0714 44.1695 22.2616 42.7856M20.261 36.4131C20.132 34.8126 20.2626 33.2326 20.6242 31.7232L20.7729 31.1614M23.9589 25.3017C25.2094 23.8805 26.7176 22.7089 28.4039 21.8487" stroke="white" stroke-width="4" stroke-linecap="round" stroke-linejoin="round"/>
</g>
<defs>
<clipPath id="clip0_1442_4463">
<rect width="40" height="40" fill="white" transform="translate(10.9292 20.7196) rotate(-14.1677)"/>
</clipPath>
</defs>
</svg>
