<svg width="63" height="63" viewBox="0 0 63 63" fill="none" xmlns="http://www.w3.org/2000/svg">
<rect opacity="0.2" y="4.53265" width="58" height="58" rx="13" transform="rotate(-4.48218 0 4.53265)" fill="#FFCA28"/>
<path d="M34.9337 25.784L40.7499 25.328C40.7644 25.3269 40.7741 25.329 40.7815 25.3314C40.7902 25.3344 40.8005 25.3395 40.8102 25.3478C40.8199 25.3561 40.8266 25.3654 40.8308 25.3736C40.8344 25.3805 40.838 25.3898 40.8391 25.4043L41.2951 31.2204C41.2967 31.2424 41.2896 31.264 41.2753 31.2808C41.261 31.2975 41.2407 31.3079 41.2188 31.3097C41.1968 31.3114 41.1743 31.3044 41.1575 31.29C41.1409 31.2757 41.1304 31.2553 41.1286 31.2335L40.6884 25.6189L31.6315 36.2165C31.6244 36.2248 31.6155 36.2322 31.6057 36.2371C31.5962 36.2419 31.5857 36.2445 31.575 36.2454C31.5642 36.2463 31.5528 36.2454 31.5424 36.2421L31.5137 36.2257L27.7226 32.9857L26.2022 31.6855L21.6621 36.998C21.6478 37.0147 21.6275 37.0251 21.6056 37.0269C21.5835 37.0286 21.5612 37.0216 21.5443 37.0072C21.5274 36.9928 21.517 36.9719 21.5153 36.9497C21.5145 36.939 21.5164 36.9283 21.5197 36.9181C21.5231 36.9077 21.528 36.8977 21.5351 36.8894L26.129 31.514C26.1361 31.5056 26.1451 31.4983 26.1548 31.4933C26.1646 31.4884 26.1756 31.4858 26.1865 31.485C26.1972 31.4842 26.2079 31.4851 26.2181 31.4884L26.2468 31.5047L30.038 34.7447L31.5592 36.0439L40.5614 25.5103L34.9468 25.9504C34.9323 25.9515 34.9226 25.9495 34.9152 25.947C34.9064 25.9441 34.8962 25.9381 34.8864 25.9297C34.8767 25.9213 34.87 25.9121 34.8658 25.9039C34.8622 25.8969 34.8586 25.8878 34.8575 25.8732C34.8564 25.8587 34.8584 25.849 34.8609 25.8416C34.8639 25.8329 34.8689 25.8226 34.8772 25.8129C34.8856 25.8031 34.8949 25.7965 34.9031 25.7922C34.91 25.7886 34.9192 25.7851 34.9337 25.784Z" fill="black" stroke="#FFCA28" stroke-width="4"/>
</svg>
