<svg width="20" height="20" viewBox="0 0 20 20" fill="none" xmlns="http://www.w3.org/2000/svg">
<g clip-path="url(#clip0_717_6581)">
<path d="M15.4435 5.5376C15.4435 5.31663 15.3557 5.10472 15.1994 4.94847C15.0432 4.79222 14.8313 4.70443 14.6103 4.70439L7.94348 4.70439C7.83284 4.70247 7.72293 4.7226 7.62016 4.76361C7.51738 4.80462 7.4238 4.86569 7.34488 4.94325C7.26596 5.02081 7.20328 5.11331 7.16049 5.21536C7.1177 5.3174 7.09566 5.42695 7.09566 5.5376C7.09566 5.64825 7.1177 5.7578 7.16049 5.85984C7.20328 5.96189 7.26596 6.05439 7.34488 6.13195C7.42381 6.20951 7.51738 6.27058 7.62016 6.31159C7.72293 6.3526 7.83284 6.37273 7.94348 6.37081L12.5986 6.37081L4.79509 14.1743C4.63881 14.3306 4.55101 14.5426 4.55101 14.7636C4.55101 14.9846 4.63881 15.1965 4.79509 15.3528C4.95137 15.5091 5.16333 15.5969 5.38434 15.5969C5.60536 15.5969 5.81732 15.5091 5.9736 15.3528L13.7771 7.54932L13.7771 12.2044C13.7809 12.4229 13.8704 12.6312 14.0262 12.7843C14.182 12.9375 14.3918 13.0233 14.6103 13.0233C14.8288 13.0233 15.0386 12.9375 15.1944 12.7843C15.3503 12.6312 15.4397 12.4229 15.4435 12.2044L15.4435 5.5376Z" fill="#1C4CC3"/>
</g>
<defs>
<clipPath id="clip0_717_6581">
<rect width="20" height="20" fill="white"/>
</clipPath>
</defs>
</svg>
